STARTFONT 2.1
COMMENT
COMMENT Converted from OpenType font "JF-Dot-Ayu20.ttf" by "otf2bdf 3.0".
COMMENT
FONT -FreeType-JF Dot Ayu Gothic 20-Medium-R-Normal--17-120-100-100-P-201-ISO10646-1
SIZE 12 100 100
FONTBOUNDINGBOX 20 20 0 -3
STARTPROPERTIES 19
FOUNDRY "FreeType"
FAMILY_NAME "JF Dot Ayu Gothic 20"
WEIGHT_NAME "Medium"
SLANT "R"
SETWIDTH_NAME "Normal"
ADD_STYLE_NAME ""
PIXEL_SIZE 17
POINT_SIZE 120
RESOLUTION_X 100
RESOLUTION_Y 100
SPACING "P"
AVERAGE_WIDTH 201
CHARSET_REGISTRY "ISO10646"
CHARSET_ENCODING "1"
FONT_ASCENT 17
FONT_DESCENT 2
COPYRIGHT "-FreeType-JF Dot Ayu Gothic 20-Medium-R-Normal--17-120-100-100-P-201-ISO10646-1"
_OTF_FONTFILE "JF-Dot-Ayu20.ttf"
_OTF_PSNAME "JF-Dot-Ayu-20"
ENDPROPERTIES
CHARS 7221
STARTCHAR 0020
ENCODING 32
SWIDTH 600 0
DWIDTH 10 0
BBX 10 20 0 -3
BITMAP
0000
0000
0000
0000
0000
0000
0000
0000
0000
0000
0000
0000
0000
0000
0000
0000
0000
0000
0000
0000
ENDCHAR
STARTCHAR 0021
ENCODING 33
SWIDTH 600 0
DWIDTH 10 0
BBX 10 20 0 -3
BITMAP
0000
0000
0800
0800
0800
0800
0800
0800
0800
0800
0800
0800
0800
0800
0000
0000
1800
1800
0000
0000
ENDCHAR
STARTCHAR 0022
ENCODING 34
SWIDTH 600 0
DWIDTH 10 0
BBX 10 20 0 -3
BITMAP
0000
1B00
3600
2400
4800
0000
0000
0000
0000
0000
0000
0000
0000
0000
0000
0000
0000
0000
0000
0000
ENDCHAR
STARTCHAR 0023
ENCODING 35
SWIDTH 600 0
DWIDTH 10 0
BBX 10 20 0 -3
BITMAP
0000
1100
1100
1100
1100
7F80
2200
2200
2200
2200
2200
2200
2200
FF00
4400
4400
4400
4400
0000
0000
ENDCHAR
STARTCHAR 0024
ENCODING 36
SWIDTH 600 0
DWIDTH 10 0
BBX 10 20 0 -3
BITMAP
0000
0800
0800
1C00
2B00
4900
4800
4800
2800
1C00
0B00
0880
8880
8880
4900
3E00
0800
0800
0800
0000
ENDCHAR
STARTCHAR 0025
ENCODING 37
SWIDTH 600 0
DWIDTH 10 0
BBX 10 20 0 -3
BITMAP
0000
0000
0080
3080
4900
4900
4A00
4A00
3400
0400
0800
0B00
1480
1480
2480
2480
4300
4000
0000
0000
ENDCHAR
STARTCHAR 0026
ENCODING 38
SWIDTH 600 0
DWIDTH 10 0
BBX 10 20 0 -3
BITMAP
0000
0000
0000
1C00
2200
4200
4200
2400
2800
1000
2880
4880
8500
8500
8200
4700
38C0
0000
0000
0000
ENDCHAR
STARTCHAR 0027
ENCODING 39
SWIDTH 600 0
DWIDTH 10 0
BBX 10 20 0 -3
BITMAP
0000
0C00
0C00
0400
0800
0000
0000
0000
0000
0000
0000
0000
0000
0000
0000
0000
0000
0000
0000
0000
ENDCHAR
STARTCHAR 0028
ENCODING 40
SWIDTH 600 0
DWIDTH 10 0
BBX 10 20 0 -3
BITMAP
0100
0200
0400
0400
0800
0800
0800
1000
1000
1000
1000
1000
0800
0800
0800
0400
0400
0200
0100
0000
ENDCHAR
STARTCHAR 0029
ENCODING 41
SWIDTH 600 0
DWIDTH 10 0
BBX 10 20 0 -3
BITMAP
2000
1000
0800
0800
0400
0400
0400
0200
0200
0200
0200
0200
0400
0400
0400
0800
0800
1000
2000
0000
ENDCHAR
STARTCHAR 002A
ENCODING 42
SWIDTH 600 0
DWIDTH 10 0
BBX 10 20 0 -3
BITMAP
0000
0000
0000
0000
0800
0800
4900
2A00
1C00
0800
1C00
2A00
4900
0800
0800
0000
0000
0000
0000
0000
ENDCHAR
STARTCHAR 002B
ENCODING 43
SWIDTH 600 0
DWIDTH 10 0
BBX 10 20 0 -3
BITMAP
0000
0000
0000
0800
0800
0800
0800
0800
0800
FF80
0800
0800
0800
0800
0800
0800
0000
0000
0000
0000
ENDCHAR
STARTCHAR 002C
ENCODING 44
SWIDTH 600 0
DWIDTH 10 0
BBX 10 20 0 -3
BITMAP
0000
0000
0000
0000
0000
0000
0000
0000
0000
0000
0000
0000
0000
0000
0000
1800
1800
0800
1000
0000
ENDCHAR
STARTCHAR 002D
ENCODING 45
SWIDTH 600 0
DWIDTH 10 0
BBX 10 20 0 -3
BITMAP
0000
0000
0000
0000
0000
0000
0000
0000
0000
7F80
0000
0000
0000
0000
0000
0000
0000
0000
0000
0000
ENDCHAR
STARTCHAR 002E
ENCODING 46
SWIDTH 600 0
DWIDTH 10 0
BBX 10 20 0 -3
BITMAP
0000
0000
0000
0000
0000
0000
0000
0000
0000
0000
0000
0000
0000
0000
0000
1800
1800
0000
0000
0000
ENDCHAR
STARTCHAR 002F
ENCODING 47
SWIDTH 600 0
DWIDTH 10 0
BBX 10 20 0 -3
BITMAP
0000
0080
0080
0100
0100
0200
0200
0400
0400
0800
0800
1000
1000
2000
2000
4000
4000
8000
8000
0000
ENDCHAR
STARTCHAR 0030
ENCODING 48
SWIDTH 600 0
DWIDTH 10 0
BBX 10 20 0 -3
BITMAP
0000
0000
0000
0C00
1200
2100
2100
4080
4080
4080
4080
4080
4080
2100
2100
1200
0C00
0000
0000
0000
ENDCHAR
STARTCHAR 0031
ENCODING 49
SWIDTH 600 0
DWIDTH 10 0
BBX 10 20 0 -3
BITMAP
0000
0000
0000
0400
1C00
0400
0400
0400
0400
0400
0400
0400
0400
0400
0400
0400
0400
0000
0000
0000
ENDCHAR
STARTCHAR 0032
ENCODING 50
SWIDTH 600 0
DWIDTH 10 0
BBX 10 20 0 -3
BITMAP
0000
0000
0000
1E00
2100
4080
4080
0080
0100
0100
0200
0400
0800
1000
2000
4000
7F80
0000
0000
0000
ENDCHAR
STARTCHAR 0033
ENCODING 51
SWIDTH 600 0
DWIDTH 10 0
BBX 10 20 0 -3
BITMAP
0000
0000
0000
1E00
2100
4080
4080
0080
0100
0600
0100
0080
0080
4080
4080
2100
1E00
0000
0000
0000
ENDCHAR
STARTCHAR 0034
ENCODING 52
SWIDTH 600 0
DWIDTH 10 0
BBX 10 20 0 -3
BITMAP
0000
0000
0000
0600
0600
0A00
0A00
1200
1200
2200
2200
4200
7F80
0200
0200
0200
0200
0000
0000
0000
ENDCHAR
STARTCHAR 0035
ENCODING 53
SWIDTH 600 0
DWIDTH 10 0
BBX 10 20 0 -3
BITMAP
0000
0000
0000
3F80
2000
2000
2000
2000
2E00
3100
0080
0080
0080
0080
2080
2100
1E00
0000
0000
0000
ENDCHAR
STARTCHAR 0036
ENCODING 54
SWIDTH 600 0
DWIDTH 10 0
BBX 10 20 0 -3
BITMAP
0000
0000
0000
1E00
2100
4080
4000
4000
4E00
5100
6080
4080
4080
4080
4080
2100
1E00
0000
0000
0000
ENDCHAR
STARTCHAR 0037
ENCODING 55
SWIDTH 600 0
DWIDTH 10 0
BBX 10 20 0 -3
BITMAP
0000
0000
0000
7F00
0100
0100
0200
0200
0200
0400
0400
0400
0800
0800
0800
1000
1000
0000
0000
0000
ENDCHAR
STARTCHAR 0038
ENCODING 56
SWIDTH 600 0
DWIDTH 10 0
BBX 10 20 0 -3
BITMAP
0000
0000
0000
1E00
2100
4080
4080
4080
2100
1E00
2100
4080
4080
4080
4080
2100
1E00
0000
0000
0000
ENDCHAR
STARTCHAR 0039
ENCODING 57
SWIDTH 600 0
DWIDTH 10 0
BBX 10 20 0 -3
BITMAP
0000
0000
0000
1E00
2100
4080
4080
4080
4080
4080
2180
1E80
0080
0080
4080
2100
1E00
0000
0000
0000
ENDCHAR
STARTCHAR 003A
ENCODING 58
SWIDTH 600 0
DWIDTH 10 0
BBX 10 20 0 -3
BITMAP
0000
0000
0000
0000
0000
0000
0C00
0C00
0000
0000
0000
0000
0000
0C00
0C00
0000
0000
0000
0000
0000
ENDCHAR
STARTCHAR 003B
ENCODING 59
SWIDTH 600 0
DWIDTH 10 0
BBX 10 20 0 -3
BITMAP
0000
0000
0000
0000
0000
0000
0C00
0C00
0000
0000
0000
0000
0000
0C00
0C00
0400
0800
0000
0000
0000
ENDCHAR
STARTCHAR 003C
ENCODING 60
SWIDTH 600 0
DWIDTH 10 0
BBX 10 20 0 -3
BITMAP
0000
0000
0000
0080
0100
0200
0400
0800
1000
2000
4000
2000
1000
0800
0400
0200
0100
0080
0000
0000
ENDCHAR
STARTCHAR 003D
ENCODING 61
SWIDTH 600 0
DWIDTH 10 0
BBX 10 20 0 -3
BITMAP
0000
0000
0000
0000
0000
0000
0000
0000
7F80
0000
0000
0000
7F80
0000
0000
0000
0000
0000
0000
0000
ENDCHAR
STARTCHAR 003E
ENCODING 62
SWIDTH 600 0
DWIDTH 10 0
BBX 10 20 0 -3
BITMAP
0000
0000
0000
4000
2000
1000
0800
0400
0200
0100
0080
0100
0200
0400
0800
1000
2000
4000
0000
0000
ENDCHAR
STARTCHAR 003F
ENCODING 63
SWIDTH 600 0
DWIDTH 10 0
BBX 10 20 0 -3
BITMAP
0000
0000
0000
3E00
4100
8080
8080
0080
0100
0200
0400
0800
0800
0800
0000
0000
1800
1800
0000
0000
ENDCHAR
STARTCHAR 0040
ENCODING 64
SWIDTH 600 0
DWIDTH 10 0
BBX 10 20 0 -3
BITMAP
0000
0000
1E00
2100
4100
4280
8E80
9280
9280
A280
A480
A480
A480
9B00
4000
4080
2100
1E00
0000
0000
ENDCHAR
STARTCHAR 0041
ENCODING 65
SWIDTH 600 0
DWIDTH 10 0
BBX 10 20 0 -3
BITMAP
0000
0000
0000
0C00
0C00
1200
1200
1200
1200
2100
2100
3F00
2100
4080
4080
4080
4080
0000
0000
0000
ENDCHAR
STARTCHAR 0042
ENCODING 66
SWIDTH 600 0
DWIDTH 10 0
BBX 10 20 0 -3
BITMAP
0000
0000
0000
7E00
4100
4080
4080
4080
4100
7E00
4100
4080
4080
4080
4080
4100
7E00
0000
0000
0000
ENDCHAR
STARTCHAR 0043
ENCODING 67
SWIDTH 600 0
DWIDTH 10 0
BBX 10 20 0 -3
BITMAP
0000
0000
0000
1E00
2100
4080
4080
8000
8000
8000
8000
8000
8000
4080
4080
2100
1E00
0000
0000
0000
ENDCHAR
STARTCHAR 0044
ENCODING 68
SWIDTH 600 0
DWIDTH 10 0
BBX 10 20 0 -3
BITMAP
0000
0000
0000
7C00
4200
4100
4100
4080
4080
4080
4080
4080
4080
4100
4100
4200
7C00
0000
0000
0000
ENDCHAR
STARTCHAR 0045
ENCODING 69
SWIDTH 600 0
DWIDTH 10 0
BBX 10 20 0 -3
BITMAP
0000
0000
0000
7F80
4000
4000
4000
4000
4000
7F00
4000
4000
4000
4000
4000
4000
7F80
0000
0000
0000
ENDCHAR
STARTCHAR 0046
ENCODING 70
SWIDTH 600 0
DWIDTH 10 0
BBX 10 20 0 -3
BITMAP
0000
0000
0000
7F80
4000
4000
4000
4000
4000
7F00
4000
4000
4000
4000
4000
4000
4000
0000
0000
0000
ENDCHAR
STARTCHAR 0047
ENCODING 71
SWIDTH 600 0
DWIDTH 10 0
BBX 10 20 0 -3
BITMAP
0000
0000
0000
1E00
2100
4080
4080
8000
8000
8000
8780
8080
8080
4080
4180
2280
1C80
0000
0000
0000
ENDCHAR
STARTCHAR 0048
ENCODING 72
SWIDTH 600 0
DWIDTH 10 0
BBX 10 20 0 -3
BITMAP
0000
0000
0000
4080
4080
4080
4080
4080
4080
7F80
4080
4080
4080
4080
4080
4080
4080
0000
0000
0000
ENDCHAR
STARTCHAR 0049
ENCODING 73
SWIDTH 600 0
DWIDTH 10 0
BBX 10 20 0 -3
BITMAP
0000
0000
0000
1C00
0800
0800
0800
0800
0800
0800
0800
0800
0800
0800
0800
0800
1C00
0000
0000
0000
ENDCHAR
STARTCHAR 004A
ENCODING 74
SWIDTH 600 0
DWIDTH 10 0
BBX 10 20 0 -3
BITMAP
0000
0000
0000
0200
0200
0200
0200
0200
0200
0200
0200
0200
0200
0200
4200
4200
2400
1800
0000
0000
ENDCHAR
STARTCHAR 004B
ENCODING 75
SWIDTH 600 0
DWIDTH 10 0
BBX 10 20 0 -3
BITMAP
0000
0000
0000
4100
4200
4200
4400
4800
4800
5400
6400
4200
4200
4100
4100
4080
4080
0000
0000
0000
ENDCHAR
STARTCHAR 004C
ENCODING 76
SWIDTH 600 0
DWIDTH 10 0
BBX 10 20 0 -3
BITMAP
0000
0000
0000
2000
2000
2000
2000
2000
2000
2000
2000
2000
2000
2000
2000
2000
3F80
0000
0000
0000
ENDCHAR
STARTCHAR 004D
ENCODING 77
SWIDTH 600 0
DWIDTH 10 0
BBX 10 20 0 -3
BITMAP
0000
0000
0000
8080
8080
C180
C180
C180
A280
A280
A280
9480
9480
9480
8880
8880
8880
0000
0000
0000
ENDCHAR
STARTCHAR 004E
ENCODING 78
SWIDTH 600 0
DWIDTH 10 0
BBX 10 20 0 -3
BITMAP
0000
0000
0000
4080
6080
6080
5080
5080
4880
4880
4480
4480
4280
4280
4180
4180
4080
0000
0000
0000
ENDCHAR
STARTCHAR 004F
ENCODING 79
SWIDTH 600 0
DWIDTH 10 0
BBX 10 20 0 -3
BITMAP
0000
0000
0000
1E00
2100
2100
4080
4080
4080
4080
4080
4080
4080
4080
2100
2100
1E00
0000
0000
0000
ENDCHAR
STARTCHAR 0050
ENCODING 80
SWIDTH 600 0
DWIDTH 10 0
BBX 10 20 0 -3
BITMAP
0000
0000
0000
7E00
4100
4080
4080
4080
4100
7E00
4000
4000
4000
4000
4000
4000
4000
0000
0000
0000
ENDCHAR
STARTCHAR 0051
ENCODING 81
SWIDTH 600 0
DWIDTH 10 0
BBX 10 20 0 -3
BITMAP
0000
0000
0000
1E00
2100
2100
4080
4080
4080
4080
4080
4080
4080
4480
2300
2100
1E80
0080
0000
0000
ENDCHAR
STARTCHAR 0052
ENCODING 82
SWIDTH 600 0
DWIDTH 10 0
BBX 10 20 0 -3
BITMAP
0000
0000
0000
7E00
4100
4080
4080
4080
4100
7E00
4400
4200
4200
4100
4100
4080
4080
0000
0000
0000
ENDCHAR
STARTCHAR 0053
ENCODING 83
SWIDTH 600 0
DWIDTH 10 0
BBX 10 20 0 -3
BITMAP
0000
0000
0000
1E00
2100
4080
4000
4000
3000
0C00
0300
0080
0080
4080
4080
2100
1E00
0000
0000
0000
ENDCHAR
STARTCHAR 0054
ENCODING 84
SWIDTH 600 0
DWIDTH 10 0
BBX 10 20 0 -3
BITMAP
0000
0000
0000
FF80
0800
0800
0800
0800
0800
0800
0800
0800
0800
0800
0800
0800
0800
0000
0000
0000
ENDCHAR
STARTCHAR 0055
ENCODING 85
SWIDTH 600 0
DWIDTH 10 0
BBX 10 20 0 -3
BITMAP
0000
0000
0000
4080
4080
4080
4080
4080
4080
4080
4080
4080
4080
4080
4080
2100
1E00
0000
0000
0000
ENDCHAR
STARTCHAR 0056
ENCODING 86
SWIDTH 600 0
DWIDTH 10 0
BBX 10 20 0 -3
BITMAP
0000
0000
0000
4080
4080
4080
4080
2100
2100
2100
2100
1200
1200
1200
0C00
0C00
0C00
0000
0000
0000
ENDCHAR
STARTCHAR 0057
ENCODING 87
SWIDTH 600 0
DWIDTH 10 0
BBX 10 20 0 -3
BITMAP
0000
0000
0000
8880
8880
8880
8880
8880
5500
5500
5500
5500
5500
2200
2200
2200
2200
0000
0000
0000
ENDCHAR
STARTCHAR 0058
ENCODING 88
SWIDTH 600 0
DWIDTH 10 0
BBX 10 20 0 -3
BITMAP
0000
0000
0000
4080
4080
2100
2200
1200
1C00
0800
0C00
1400
1200
2100
2100
4080
4080
0000
0000
0000
ENDCHAR
STARTCHAR 0059
ENCODING 89
SWIDTH 600 0
DWIDTH 10 0
BBX 10 20 0 -3
BITMAP
0000
0000
0000
8080
8080
4100
2200
2200
1400
1400
0800
0800
0800
0800
0800
0800
0800
0000
0000
0000
ENDCHAR
STARTCHAR 005A
ENCODING 90
SWIDTH 600 0
DWIDTH 10 0
BBX 10 20 0 -3
BITMAP
0000
0000
0000
7F00
0100
0200
0200
0400
0400
0800
0800
1000
1000
2000
2000
4000
7F80
0000
0000
0000
ENDCHAR
STARTCHAR 005B
ENCODING 91
SWIDTH 600 0
DWIDTH 10 0
BBX 10 20 0 -3
BITMAP
0000
1F00
1000
1000
1000
1000
1000
1000
1000
1000
1000
1000
1000
1000
1000
1000
1000
1000
1F00
0000
ENDCHAR
STARTCHAR 005C
ENCODING 92
SWIDTH 600 0
DWIDTH 10 0
BBX 10 20 0 -3
BITMAP
0000
0000
0000
4100
4100
2200
2200
1400
7F00
1400
0800
7F00
0800
0800
0800
0800
0800
0000
0000
0000
ENDCHAR
STARTCHAR 005D
ENCODING 93
SWIDTH 600 0
DWIDTH 10 0
BBX 10 20 0 -3
BITMAP
0000
3E00
0200
0200
0200
0200
0200
0200
0200
0200
0200
0200
0200
0200
0200
0200
0200
0200
3E00
0000
ENDCHAR
STARTCHAR 005E
ENCODING 94
SWIDTH 600 0
DWIDTH 10 0
BBX 10 20 0 -3
BITMAP
0000
0C00
1200
2100
0000
0000
0000
0000
0000
0000
0000
0000
0000
0000
0000
0000
0000
0000
0000
0000
ENDCHAR
STARTCHAR 005F
ENCODING 95
SWIDTH 600 0
DWIDTH 10 0
BBX 10 20 0 -3
BITMAP
0000
0000
0000
0000
0000
0000
0000
0000
0000
0000
0000
0000
0000
0000
0000
0000
0000
0000
FFC0
0000
ENDCHAR
STARTCHAR 0060
ENCODING 96
SWIDTH 600 0
DWIDTH 10 0
BBX 10 20 0 -3
BITMAP
0000
3000
3000
2000
1000
0000
0000
0000
0000
0000
0000
0000
0000
0000
0000
0000
0000
0000
0000
0000
ENDCHAR
STARTCHAR 0061
ENCODING 97
SWIDTH 600 0
DWIDTH 10 0
BBX 10 20 0 -3
BITMAP
0000
0000
0000
0000
0000
0000
0000
1E00
2100
4080
0180
0E80
3080
4080
4080
4180
3E80
0000
0000
0000
ENDCHAR
STARTCHAR 0062
ENCODING 98
SWIDTH 600 0
DWIDTH 10 0
BBX 10 20 0 -3
BITMAP
0000
0000
0000
2000
2000
2000
2000
2E00
3100
2080
2080
2080
2080
2080
2080
3100
2E00
0000
0000
0000
ENDCHAR
STARTCHAR 0063
ENCODING 99
SWIDTH 600 0
DWIDTH 10 0
BBX 10 20 0 -3
BITMAP
0000
0000
0000
0000
0000
0000
0000
1E00
2100
4080
4000
4000
4000
4000
4080
2100
1E00
0000
0000
0000
ENDCHAR
STARTCHAR 0064
ENCODING 100
SWIDTH 600 0
DWIDTH 10 0
BBX 10 20 0 -3
BITMAP
0000
0000
0000
0100
0100
0100
0100
1D00
2300
4100
4100
4100
4100
4100
4100
2300
1D00
0000
0000
0000
ENDCHAR
STARTCHAR 0065
ENCODING 101
SWIDTH 600 0
DWIDTH 10 0
BBX 10 20 0 -3
BITMAP
0000
0000
0000
0000
0000
0000
0000
1E00
2100
4080
4080
7F80
4000
4000
4080
2100
1E00
0000
0000
0000
ENDCHAR
STARTCHAR 0066
ENCODING 102
SWIDTH 600 0
DWIDTH 10 0
BBX 10 20 0 -3
BITMAP
0000
0000
0000
0700
0880
0800
0800
3F00
0800
0800
0800
0800
0800
0800
0800
0800
0800
0000
0000
0000
ENDCHAR
STARTCHAR 0067
ENCODING 103
SWIDTH 600 0
DWIDTH 10 0
BBX 10 20 0 -3
BITMAP
0000
0000
0000
0000
0000
0000
0080
3D00
4200
4200
4200
4200
3C00
4000
3800
4700
8080
8080
8080
7F00
ENDCHAR
STARTCHAR 0068
ENCODING 104
SWIDTH 600 0
DWIDTH 10 0
BBX 10 20 0 -3
BITMAP
0000
0000
0000
2000
2000
2000
2000
2F00
3080
2080
2080
2080
2080
2080
2080
2080
2080
0000
0000
0000
ENDCHAR
STARTCHAR 0069
ENCODING 105
SWIDTH 600 0
DWIDTH 10 0
BBX 10 20 0 -3
BITMAP
0000
0000
0000
0C00
0C00
0000
0000
0400
0400
0400
0400
0400
0400
0400
0400
0400
0400
0000
0000
0000
ENDCHAR
STARTCHAR 006A
ENCODING 106
SWIDTH 600 0
DWIDTH 10 0
BBX 10 20 0 -3
BITMAP
0000
0000
0000
0600
0600
0000
0000
0200
0200
0200
0200
0200
0200
0200
0200
0200
2200
2200
1C00
0000
ENDCHAR
STARTCHAR 006B
ENCODING 107
SWIDTH 600 0
DWIDTH 10 0
BBX 10 20 0 -3
BITMAP
0000
0000
0000
2000
2000
2000
2000
2100
2200
2400
2400
2800
3400
2200
2200
2100
2080
0000
0000
0000
ENDCHAR
STARTCHAR 006C
ENCODING 108
SWIDTH 600 0
DWIDTH 10 0
BBX 10 20 0 -3
BITMAP
0000
0000
0000
0C00
0400
0400
0400
0400
0400
0400
0400
0400
0400
0400
0400
0400
0400
0000
0000
0000
ENDCHAR
STARTCHAR 006D
ENCODING 109
SWIDTH 600 0
DWIDTH 10 0
BBX 10 20 0 -3
BITMAP
0000
0000
0000
0000
0000
0000
0000
5600
6900
4900
4900
4900
4900
4900
4900
4900
4900
0000
0000
0000
ENDCHAR
STARTCHAR 006E
ENCODING 110
SWIDTH 600 0
DWIDTH 10 0
BBX 10 20 0 -3
BITMAP
0000
0000
0000
0000
0000
0000
0000
5E00
6100
4100
4100
4100
4100
4100
4100
4100
4100
0000
0000
0000
ENDCHAR
STARTCHAR 006F
ENCODING 111
SWIDTH 600 0
DWIDTH 10 0
BBX 10 20 0 -3
BITMAP
0000
0000
0000
0000
0000
0000
0000
1E00
2100
4080
4080
4080
4080
4080
4080
2100
1E00
0000
0000
0000
ENDCHAR
STARTCHAR 0070
ENCODING 112
SWIDTH 600 0
DWIDTH 10 0
BBX 10 20 0 -3
BITMAP
0000
0000
0000
0000
0000
0000
0000
2E00
3100
2080
2080
2080
2080
2080
3100
2E00
2000
2000
2000
2000
ENDCHAR
STARTCHAR 0071
ENCODING 113
SWIDTH 600 0
DWIDTH 10 0
BBX 10 20 0 -3
BITMAP
0000
0000
0000
0000
0000
0000
0000
1D00
2300
4100
4100
4100
4100
4100
2300
1D00
0100
0100
0100
0100
ENDCHAR
STARTCHAR 0072
ENCODING 114
SWIDTH 600 0
DWIDTH 10 0
BBX 10 20 0 -3
BITMAP
0000
0000
0000
0000
0000
0000
0000
2700
2800
3000
2000
2000
2000
2000
2000
2000
2000
0000
0000
0000
ENDCHAR
STARTCHAR 0073
ENCODING 115
SWIDTH 600 0
DWIDTH 10 0
BBX 10 20 0 -3
BITMAP
0000
0000
0000
0000
0000
0000
0000
1F00
2080
2080
2000
1C00
0300
0080
4080
2080
1F00
0000
0000
0000
ENDCHAR
STARTCHAR 0074
ENCODING 116
SWIDTH 600 0
DWIDTH 10 0
BBX 10 20 0 -3
BITMAP
0000
0000
0000
0800
0800
0800
0800
7F00
0800
0800
0800
0800
0800
0800
0800
0800
0600
0000
0000
0000
ENDCHAR
STARTCHAR 0075
ENCODING 117
SWIDTH 600 0
DWIDTH 10 0
BBX 10 20 0 -3
BITMAP
0000
0000
0000
0000
0000
0000
0000
4100
4100
4100
4100
4100
4100
4100
4100
4300
3D00
0000
0000
0000
ENDCHAR
STARTCHAR 0076
ENCODING 118
SWIDTH 600 0
DWIDTH 10 0
BBX 10 20 0 -3
BITMAP
0000
0000
0000
0000
0000
0000
0000
4100
4100
4100
2200
2200
2200
1400
1400
0800
0800
0000
0000
0000
ENDCHAR
STARTCHAR 0077
ENCODING 119
SWIDTH 600 0
DWIDTH 10 0
BBX 10 20 0 -3
BITMAP
0000
0000
0000
0000
0000
0000
0000
8880
8880
8880
8880
5500
5500
5500
2200
2200
2200
0000
0000
0000
ENDCHAR
STARTCHAR 0078
ENCODING 120
SWIDTH 600 0
DWIDTH 10 0
BBX 10 20 0 -3
BITMAP
0000
0000
0000
0000
0000
0000
0000
4100
2200
2200
1400
0800
0800
1400
2200
2200
4100
0000
0000
0000
ENDCHAR
STARTCHAR 0079
ENCODING 121
SWIDTH 600 0
DWIDTH 10 0
BBX 10 20 0 -3
BITMAP
0000
0000
0000
0000
0000
0000
0000
4100
4100
4100
2200
2200
1400
1400
0800
0800
0800
1000
6000
0000
ENDCHAR
STARTCHAR 007A
ENCODING 122
SWIDTH 600 0
DWIDTH 10 0
BBX 10 20 0 -3
BITMAP
0000
0000
0000
0000
0000
0000
0000
7F80
0100
0200
0200
0400
0800
1000
1000
2000
7F80
0000
0000
0000
ENDCHAR
STARTCHAR 007B
ENCODING 123
SWIDTH 600 0
DWIDTH 10 0
BBX 10 20 0 -3
BITMAP
0100
0200
0200
0400
0400
0400
0400
0400
0400
1800
0400
0400
0400
0400
0400
0400
0200
0200
0100
0000
ENDCHAR
STARTCHAR 007C
ENCODING 124
SWIDTH 600 0
DWIDTH 10 0
BBX 10 20 0 -3
BITMAP
0800
0800
0800
0800
0800
0800
0800
0800
0800
0800
0800
0800
0800
0800
0800
0800
0800
0800
0800
0800
ENDCHAR
STARTCHAR 007D
ENCODING 125
SWIDTH 600 0
DWIDTH 10 0
BBX 10 20 0 -3
BITMAP
2000
1000
1000
0800
0800
0800
0800
0800
0800
0600
0800
0800
0800
0800
0800
0800
1000
1000
2000
0000
ENDCHAR
STARTCHAR 007E
ENCODING 126
SWIDTH 600 0
DWIDTH 10 0
BBX 10 20 0 -3
BITMAP
0000
0000
3000
4C80
0300
0000
0000
0000
0000
0000
0000
0000
0000
0000
0000
0000
0000
0000
0000
0000
ENDCHAR
STARTCHAR 00A0
ENCODING 160
SWIDTH 600 0
DWIDTH 10 0
BBX 10 20 0 -3
BITMAP
0000
0000
0000
0000
0000
0000
0000
0000
0000
0000
0000
0000
0000
0000
0000
0000
0000
0000
0000
0000
ENDCHAR
STARTCHAR 00A1
ENCODING 161
SWIDTH 600 0
DWIDTH 10 0
BBX 10 20 0 -3
BITMAP
0000
0000
0000
1800
1800
0000
0000
0800
0800
0800
0800
0800
0800
0800
0800
0800
0800
0800
0000
0000
ENDCHAR
STARTCHAR 00A2
ENCODING 162
SWIDTH 600 0
DWIDTH 10 0
BBX 10 20 0 -3
BITMAP
0000
0000
0000
0000
0200
0200
0200
1E00
2500
4480
4400
4800
4800
4800
4880
2900
1E00
1000
1000
1000
ENDCHAR
STARTCHAR 00A3
ENCODING 163
SWIDTH 600 0
DWIDTH 10 0
BBX 10 20 0 -3
BITMAP
0000
0000
0F00
1080
1080
1000
1000
1000
7F00
1000
1000
1000
1000
7000
9840
9640
6180
0000
0000
0000
ENDCHAR
STARTCHAR 00A4
ENCODING 164
SWIDTH 600 0
DWIDTH 10 0
BBX 10 20 0 -3
BITMAP
0000
0000
0000
0000
0000
8040
4C80
3300
2100
4080
4080
2100
3300
4C80
8040
0000
0000
0000
0000
0000
ENDCHAR
STARTCHAR 00A5
ENCODING 165
SWIDTH 600 0
DWIDTH 10 0
BBX 10 20 0 -3
BITMAP
0000
8000
8000
4000
4000
2000
2000
1000
1000
0800
0800
0400
0400
0200
0200
0100
0100
0080
0080
0000
ENDCHAR
STARTCHAR 00A6
ENCODING 166
SWIDTH 600 0
DWIDTH 10 0
BBX 10 20 0 -3
BITMAP
0000
0800
0800
0800
0800
0800
0800
0800
0800
0000
0000
0800
0800
0800
0800
0800
0800
0800
0800
0000
ENDCHAR
STARTCHAR 00A7
ENCODING 167
SWIDTH 1200 0
DWIDTH 20 0
BBX 8 17 6 -1
BITMAP
3C
42
81
80
40
70
8C
82
42
41
31
0E
02
01
81
42
3C
ENDCHAR
STARTCHAR 00A8
ENCODING 168
SWIDTH 1200 0
DWIDTH 20 0
BBX 7 2 6 14
BITMAP
C6
C6
ENDCHAR
STARTCHAR 00A9
ENCODING 169
SWIDTH 600 0
DWIDTH 10 0
BBX 10 12 0 2
BITMAP
1E00
2100
4080
4C80
9240
9040
9040
9240
4C80
4080
2100
1E00
ENDCHAR
STARTCHAR 00AA
ENCODING 170
SWIDTH 600 0
DWIDTH 10 0
BBX 7 10 1 6
BITMAP
38
C4
04
3C
44
84
8C
74
00
FE
ENDCHAR
STARTCHAR 00AB
ENCODING 171
SWIDTH 600 0
DWIDTH 10 0
BBX 8 9 1 3
BITMAP
09
12
24
48
90
48
24
12
09
ENDCHAR
STARTCHAR 00AC
ENCODING 172
SWIDTH 600 0
DWIDTH 10 0
BBX 8 5 1 5
BITMAP
FF
01
01
01
01
ENDCHAR
STARTCHAR 00AD
ENCODING 173
SWIDTH 600 0
DWIDTH 10 0
BBX 6 1 2 7
BITMAP
FC
ENDCHAR
STARTCHAR 00AE
ENCODING 174
SWIDTH 600 0
DWIDTH 10 0
BBX 10 13 0 1
BITMAP
1E00
2100
4080
5C80
9240
9240
9C40
9440
9240
5280
4080
2100
1E00
ENDCHAR
STARTCHAR 00AF
ENCODING 175
SWIDTH 600 0
DWIDTH 10 0
BBX 6 1 2 15
BITMAP
FC
ENDCHAR
STARTCHAR 00B0
ENCODING 176
SWIDTH 1200 0
DWIDTH 20 0
BBX 5 5 1 11
BITMAP
70
88
88
88
70
ENDCHAR
STARTCHAR 00B1
ENCODING 177
SWIDTH 1200 0
DWIDTH 20 0
BBX 14 15 3 1
BITMAP
0200
0200
0200
0200
0200
0200
FFF8
0200
0200
0200
0200
0200
0200
0000
FFFC
ENDCHAR
STARTCHAR 00B2
ENCODING 178
SWIDTH 600 0
DWIDTH 10 0
BBX 5 7 2 9
BITMAP
70
88
08
30
40
80
F8
ENDCHAR
STARTCHAR 00B3
ENCODING 179
SWIDTH 600 0
DWIDTH 10 0
BBX 5 7 2 9
BITMAP
70
88
08
70
08
88
70
ENDCHAR
STARTCHAR 00B4
ENCODING 180
SWIDTH 1200 0
DWIDTH 20 0
BBX 4 4 8 12
BITMAP
10
20
40
80
ENDCHAR
STARTCHAR 00B5
ENCODING 181
SWIDTH 600 0
DWIDTH 10 0
BBX 9 13 1 -3
BITMAP
2200
2200
2200
2200
2200
2280
2280
2500
3800
4000
4000
4000
8000
ENDCHAR
STARTCHAR 00B6
ENCODING 182
SWIDTH 1200 0
DWIDTH 20 0
BBX 9 16 5 -1
BITMAP
3F80
7880
F880
F880
F880
F880
7880
3880
0880
0880
0880
0880
0880
0880
0880
0880
ENDCHAR
STARTCHAR 00B7
ENCODING 183
SWIDTH 600 0
DWIDTH 10 0
BBX 10 20 0 -3
BITMAP
0000
0000
0000
0000
0000
0000
0000
0000
0C00
0C00
0C00
0000
0000
0000
0000
0000
0000
0000
0000
0000
ENDCHAR
STARTCHAR 00B8
ENCODING 184
SWIDTH 600 0
DWIDTH 10 0
BBX 10 20 0 -3
BITMAP
0000
0000
0000
0000
0000
0000
0000
0000
0000
0000
0000
0000
0000
0000
0000
0000
1000
0C00
0200
3C00
ENDCHAR
STARTCHAR 00B9
ENCODING 185
SWIDTH 600 0
DWIDTH 10 0
BBX 10 20 0 -3
BITMAP
0000
0800
1800
2800
0800
0800
0800
0800
0000
0000
0000
0000
0000
0000
0000
0000
0000
0000
0000
0000
ENDCHAR
STARTCHAR 00BA
ENCODING 186
SWIDTH 600 0
DWIDTH 10 0
BBX 10 20 0 -3
BITMAP
0000
1C00
2200
4100
4100
4100
4100
2200
1C00
0000
7F00
0000
0000
0000
0000
0000
0000
0000
0000
0000
ENDCHAR
STARTCHAR 00BB
ENCODING 187
SWIDTH 600 0
DWIDTH 10 0
BBX 10 20 0 -3
BITMAP
0000
0000
0000
0000
0000
4800
2400
1200
0900
0480
0900
1200
2400
4800
0000
0000
0000
0000
0000
0000
ENDCHAR
STARTCHAR 00BC
ENCODING 188
SWIDTH 600 0
DWIDTH 10 0
BBX 10 20 0 -3
BITMAP
0000
2000
6000
A000
2080
2100
2200
0400
0880
1180
2280
47C0
0080
0080
0000
0000
0000
0000
0000
0000
ENDCHAR
STARTCHAR 00BD
ENCODING 189
SWIDTH 600 0
DWIDTH 10 0
BBX 10 20 0 -3
BITMAP
0000
2000
6000
A000
2080
2100
2200
0400
0B80
1440
2080
4100
0200
07C0
0000
0000
0000
0000
0000
0000
ENDCHAR
STARTCHAR 00BE
ENCODING 190
SWIDTH 600 0
DWIDTH 10 0
BBX 10 20 0 -3
BITMAP
0000
F800
1000
6000
1080
8900
7200
0400
0880
1180
2280
47C0
0080
0080
0000
0000
0000
0000
0000
0000
ENDCHAR
STARTCHAR 00BF
ENCODING 191
SWIDTH 600 0
DWIDTH 10 0
BBX 10 20 0 -3
BITMAP
0000
0000
0000
1800
1800
0000
0000
0800
0800
0800
1000
2000
4000
8100
8080
8080
4100
3E00
0000
0000
ENDCHAR
STARTCHAR 00C0
ENCODING 192
SWIDTH 600 0
DWIDTH 10 0
BBX 10 20 0 -3
BITMAP
1800
0400
0200
0000
0C00
0C00
1200
1200
1200
2100
2100
2100
3F00
4080
4080
4080
4080
0000
0000
0000
ENDCHAR
STARTCHAR 00C1
ENCODING 193
SWIDTH 600 0
DWIDTH 10 0
BBX 10 20 0 -3
BITMAP
0600
0800
1000
0000
0C00
0C00
1200
1200
1200
2100
2100
2100
3F00
4080
4080
4080
4080
0000
0000
0000
ENDCHAR
STARTCHAR 00C2
ENCODING 194
SWIDTH 600 0
DWIDTH 10 0
BBX 10 20 0 -3
BITMAP
0C00
1200
2100
0000
0C00
0C00
1200
1200
1200
2100
2100
2100
3F00
4080
4080
4080
4080
0000
0000
0000
ENDCHAR
STARTCHAR 00C3
ENCODING 195
SWIDTH 600 0
DWIDTH 10 0
BBX 10 20 0 -3
BITMAP
0000
1900
2600
0000
0C00
0C00
1200
1200
1200
2100
2100
2100
3F00
4080
4080
4080
4080
0000
0000
0000
ENDCHAR
STARTCHAR 00C4
ENCODING 196
SWIDTH 600 0
DWIDTH 10 0
BBX 10 20 0 -3
BITMAP
3300
3300
0000
0000
0C00
0C00
1200
1200
1200
2100
2100
2100
3F00
4080
4080
4080
4080
0000
0000
0000
ENDCHAR
STARTCHAR 00C5
ENCODING 197
SWIDTH 600 0
DWIDTH 10 0
BBX 10 20 0 -3
BITMAP
0C00
1200
0C00
0000
0C00
0C00
1200
1200
1200
2100
2100
2100
3F00
4080
4080
4080
4080
0000
0000
0000
ENDCHAR
STARTCHAR 00C6
ENCODING 198
SWIDTH 600 0
DWIDTH 10 0
BBX 10 20 0 -3
BITMAP
0000
0000
07C0
0400
0C00
0C00
0C00
1400
1400
1780
2400
3C00
2400
4400
4400
4400
47C0
0000
0000
0000
ENDCHAR
STARTCHAR 00C7
ENCODING 199
SWIDTH 600 0
DWIDTH 10 0
BBX 10 20 0 -3
BITMAP
0000
0000
0000
1E00
2100
4080
4080
8000
8000
8000
8000
8000
4000
4080
2100
1E00
0800
0600
0100
1E00
ENDCHAR
STARTCHAR 00C8
ENCODING 200
SWIDTH 600 0
DWIDTH 10 0
BBX 10 20 0 -3
BITMAP
1800
0400
0200
0000
7F80
4000
4000
4000
4000
4000
7E00
4000
4000
4000
4000
4000
7F80
0000
0000
0000
ENDCHAR
STARTCHAR 00C9
ENCODING 201
SWIDTH 600 0
DWIDTH 10 0
BBX 10 20 0 -3
BITMAP
0600
0800
1000
0000
7F80
4000
4000
4000
4000
4000
7E00
4000
4000
4000
4000
4000
7F80
0000
0000
0000
ENDCHAR
STARTCHAR 00CA
ENCODING 202
SWIDTH 600 0
DWIDTH 10 0
BBX 10 20 0 -3
BITMAP
0800
1400
2200
0000
7F80
4000
4000
4000
4000
4000
7E00
4000
4000
4000
4000
4000
7F80
0000
0000
0000
ENDCHAR
STARTCHAR 00CB
ENCODING 203
SWIDTH 600 0
DWIDTH 10 0
BBX 10 20 0 -3
BITMAP
3300
3300
0000
0000
7F80
4000
4000
4000
4000
4000
7E00
4000
4000
4000
4000
4000
7F80
0000
0000
0000
ENDCHAR
STARTCHAR 00CC
ENCODING 204
SWIDTH 600 0
DWIDTH 10 0
BBX 10 20 0 -3
BITMAP
3000
0800
0400
0000
0800
0800
0800
0800
0800
0800
0800
0800
0800
0800
0800
0800
0800
0000
0000
0000
ENDCHAR
STARTCHAR 00CD
ENCODING 205
SWIDTH 600 0
DWIDTH 10 0
BBX 10 20 0 -3
BITMAP
0600
0800
1000
0000
0800
0800
0800
0800
0800
0800
0800
0800
0800
0800
0800
0800
0800
0000
0000
0000
ENDCHAR
STARTCHAR 00CE
ENCODING 206
SWIDTH 600 0
DWIDTH 10 0
BBX 10 20 0 -3
BITMAP
0800
1400
2200
0000
0800
0800
0800
0800
0800
0800
0800
0800
0800
0800
0800
0800
0800
0000
0000
0000
ENDCHAR
STARTCHAR 00CF
ENCODING 207
SWIDTH 600 0
DWIDTH 10 0
BBX 10 20 0 -3
BITMAP
3300
3300
0000
0000
0800
0800
0800
0800
0800
0800
0800
0800
0800
0800
0800
0800
0800
0000
0000
0000
ENDCHAR
STARTCHAR 00D0
ENCODING 208
SWIDTH 600 0
DWIDTH 10 0
BBX 10 20 0 -3
BITMAP
0000
0000
0000
7C00
4200
4100
4100
4080
4080
F880
4080
4080
4080
4100
4100
4200
7C00
0000
0000
0000
ENDCHAR
STARTCHAR 00D1
ENCODING 209
SWIDTH 600 0
DWIDTH 10 0
BBX 10 20 0 -3
BITMAP
1900
2600
0000
4080
6080
6080
5080
5080
4880
4880
4480
4480
4280
4280
4180
4180
4080
0000
0000
0000
ENDCHAR
STARTCHAR 00D2
ENCODING 210
SWIDTH 600 0
DWIDTH 10 0
BBX 10 20 0 -3
BITMAP
1800
0400
0200
0000
1E00
2100
2100
4080
4080
4080
4080
4080
4080
4080
2100
2100
1E00
0000
0000
0000
ENDCHAR
STARTCHAR 00D3
ENCODING 211
SWIDTH 600 0
DWIDTH 10 0
BBX 10 20 0 -3
BITMAP
0600
0800
1000
0000
1E00
2100
2100
4080
4080
4080
4080
4080
4080
4080
2100
2100
1E00
0000
0000
0000
ENDCHAR
STARTCHAR 00D4
ENCODING 212
SWIDTH 600 0
DWIDTH 10 0
BBX 10 20 0 -3
BITMAP
0800
1400
2200
0000
1E00
2100
2100
4080
4080
4080
4080
4080
4080
4080
2100
2100
1E00
0000
0000
0000
ENDCHAR
STARTCHAR 00D5
ENCODING 213
SWIDTH 600 0
DWIDTH 10 0
BBX 10 20 0 -3
BITMAP
1900
2600
0000
0000
1E00
2100
2100
4080
4080
4080
4080
4080
4080
4080
2100
2100
1E00
0000
0000
0000
ENDCHAR
STARTCHAR 00D6
ENCODING 214
SWIDTH 600 0
DWIDTH 10 0
BBX 10 20 0 -3
BITMAP
3300
3300
0000
0000
1E00
2100
2100
4080
4080
4080
4080
4080
4080
4080
2100
2100
1E00
0000
0000
0000
ENDCHAR
STARTCHAR 00D7
ENCODING 215
SWIDTH 1200 0
DWIDTH 20 0
BBX 12 12 4 1
BITMAP
8010
4020
2040
1080
0900
0600
0600
0900
1080
2040
4020
8010
ENDCHAR
STARTCHAR 00D8
ENCODING 216
SWIDTH 600 0
DWIDTH 10 0
BBX 10 20 0 -3
BITMAP
0000
0100
0100
1E00
2300
2300
4480
4480
4480
4480
4880
4880
4880
4880
3100
3100
1E00
2000
2000
0000
ENDCHAR
STARTCHAR 00D9
ENCODING 217
SWIDTH 600 0
DWIDTH 10 0
BBX 10 20 0 -3
BITMAP
1800
0400
0200
0000
4080
4080
4080
4080
4080
4080
4080
4080
4080
4080
4080
2100
1E00
0000
0000
0000
ENDCHAR
STARTCHAR 00DA
ENCODING 218
SWIDTH 600 0
DWIDTH 10 0
BBX 10 20 0 -3
BITMAP
0600
0800
1000
0000
4080
4080
4080
4080
4080
4080
4080
4080
4080
4080
4080
2100
1E00
0000
0000
0000
ENDCHAR
STARTCHAR 00DB
ENCODING 219
SWIDTH 600 0
DWIDTH 10 0
BBX 10 20 0 -3
BITMAP
0C00
1200
2100
0000
4080
4080
4080
4080
4080
4080
4080
4080
4080
4080
4080
2100
1E00
0000
0000
0000
ENDCHAR
STARTCHAR 00DC
ENCODING 220
SWIDTH 600 0
DWIDTH 10 0
BBX 10 20 0 -3
BITMAP
3300
3300
0000
0000
4080
4080
4080
4080
4080
4080
4080
4080
4080
4080
4080
2100
1E00
0000
0000
0000
ENDCHAR
STARTCHAR 00DD
ENCODING 221
SWIDTH 600 0
DWIDTH 10 0
BBX 10 20 0 -3
BITMAP
0600
0800
1000
0000
4100
4100
4100
2200
2200
1400
1400
0800
0800
0800
0800
0800
0800
0000
0000
0000
ENDCHAR
STARTCHAR 00DE
ENCODING 222
SWIDTH 600 0
DWIDTH 10 0
BBX 10 20 0 -3
BITMAP
0000
0000
4000
4000
4000
4000
7E00
4100
4080
4080
4080
4100
7E00
4000
4000
4000
4000
0000
0000
0000
ENDCHAR
STARTCHAR 00DF
ENCODING 223
SWIDTH 600 0
DWIDTH 10 0
BBX 10 20 0 -3
BITMAP
0000
0000
0000
1E00
2100
4080
4080
4080
4100
4E00
4100
4080
4080
4080
4080
5100
4E00
0000
0000
0000
ENDCHAR
STARTCHAR 00E0
ENCODING 224
SWIDTH 600 0
DWIDTH 10 0
BBX 10 20 0 -3
BITMAP
0000
0000
0000
1800
0400
0200
0000
1E00
2100
4080
0180
0E80
3080
4080
4080
4180
3E80
0000
0000
0000
ENDCHAR
STARTCHAR 00E1
ENCODING 225
SWIDTH 600 0
DWIDTH 10 0
BBX 10 20 0 -3
BITMAP
0000
0000
0000
0600
0800
1000
0000
1E00
2100
4080
0180
0E80
3080
4080
4080
4180
3E80
0000
0000
0000
ENDCHAR
STARTCHAR 00E2
ENCODING 226
SWIDTH 600 0
DWIDTH 10 0
BBX 10 20 0 -3
BITMAP
0000
0000
0400
0A00
1100
0000
0000
1E00
2100
4080
0180
0E80
3080
4080
4080
4180
3E80
0000
0000
0000
ENDCHAR
STARTCHAR 00E3
ENCODING 227
SWIDTH 600 0
DWIDTH 10 0
BBX 10 20 0 -3
BITMAP
0000
0000
0000
1900
2600
0000
0000
1E00
2100
4080
0180
0E80
3080
4080
4080
4180
3E80
0000
0000
0000
ENDCHAR
STARTCHAR 00E4
ENCODING 228
SWIDTH 600 0
DWIDTH 10 0
BBX 10 20 0 -3
BITMAP
0000
0000
0000
3300
3300
0000
0000
1E00
2100
4080
0180
0E80
3080
4080
4080
4180
3E80
0000
0000
0000
ENDCHAR
STARTCHAR 00E5
ENCODING 229
SWIDTH 600 0
DWIDTH 10 0
BBX 10 20 0 -3
BITMAP
0000
0000
0C00
1200
1200
0C00
0000
1E00
2100
4080
0180
0E80
3080
4080
4080
4180
3E80
0000
0000
0000
ENDCHAR
STARTCHAR 00E6
ENCODING 230
SWIDTH 600 0
DWIDTH 10 0
BBX 10 20 0 -3
BITMAP
0000
0000
0000
0000
0000
0000
0000
7B00
8C80
8840
0840
3FC0
4800
8800
8800
8C40
7380
0000
0000
0000
ENDCHAR
STARTCHAR 00E7
ENCODING 231
SWIDTH 600 0
DWIDTH 10 0
BBX 10 20 0 -3
BITMAP
0000
0000
0000
0000
0000
0000
0000
1E00
2100
4080
4000
4000
4000
4080
2100
1E00
0800
0600
0100
1E00
ENDCHAR
STARTCHAR 00E8
ENCODING 232
SWIDTH 600 0
DWIDTH 10 0
BBX 10 20 0 -3
BITMAP
0000
0000
1800
0400
0200
0000
0000
1E00
2100
4080
4080
7F80
4000
4000
4080
2100
1E00
0000
0000
0000
ENDCHAR
STARTCHAR 00E9
ENCODING 233
SWIDTH 600 0
DWIDTH 10 0
BBX 10 20 0 -3
BITMAP
0000
0000
0600
0800
1000
0000
0000
1E00
2100
4080
4080
7F80
4000
4000
4080
2100
1E00
0000
0000
0000
ENDCHAR
STARTCHAR 00EA
ENCODING 234
SWIDTH 600 0
DWIDTH 10 0
BBX 10 20 0 -3
BITMAP
0000
0000
0C00
1200
2100
0000
0000
1E00
2100
4080
4080
7F80
4000
4000
4080
2100
1E00
0000
0000
0000
ENDCHAR
STARTCHAR 00EB
ENCODING 235
SWIDTH 600 0
DWIDTH 10 0
BBX 10 20 0 -3
BITMAP
0000
0000
0000
3300
3300
0000
0000
1E00
2100
4080
4080
7F80
4000
4000
4080
2100
1E00
0000
0000
0000
ENDCHAR
STARTCHAR 00EC
ENCODING 236
SWIDTH 600 0
DWIDTH 10 0
BBX 10 20 0 -3
BITMAP
0000
0000
1800
0400
0200
0000
0000
0400
0400
0400
0400
0400
0400
0400
0400
0400
0400
0000
0000
0000
ENDCHAR
STARTCHAR 00ED
ENCODING 237
SWIDTH 600 0
DWIDTH 10 0
BBX 10 20 0 -3
BITMAP
0000
0000
0600
0800
1000
0000
0000
0400
0400
0400
0400
0400
0400
0400
0400
0400
0400
0000
0000
0000
ENDCHAR
STARTCHAR 00EE
ENCODING 238
SWIDTH 600 0
DWIDTH 10 0
BBX 10 20 0 -3
BITMAP
0000
0000
0C00
1200
2100
0000
0000
0400
0400
0400
0400
0400
0400
0400
0400
0400
0400
0000
0000
0000
ENDCHAR
STARTCHAR 00EF
ENCODING 239
SWIDTH 600 0
DWIDTH 10 0
BBX 10 20 0 -3
BITMAP
0000
0000
0000
3300
3300
0000
0000
0400
0400
0400
0400
0400
0400
0400
0400
0400
0400
0000
0000
0000
ENDCHAR
STARTCHAR 00F0
ENCODING 240
SWIDTH 600 0
DWIDTH 10 0
BBX 10 20 0 -3
BITMAP
0000
0000
6200
1400
0800
1400
6200
0100
1F00
2180
4080
4080
4080
4080
4080
2100
1E00
0000
0000
0000
ENDCHAR
STARTCHAR 00F1
ENCODING 241
SWIDTH 600 0
DWIDTH 10 0
BBX 10 20 0 -3
BITMAP
0000
0000
0000
3200
4C00
0000
0000
5E00
6100
4100
4100
4100
4100
4100
4100
4100
4100
0000
0000
0000
ENDCHAR
STARTCHAR 00F2
ENCODING 242
SWIDTH 600 0
DWIDTH 10 0
BBX 10 20 0 -3
BITMAP
0000
0000
0000
1800
0400
0200
0000
1E00
2100
4080
4080
4080
4080
4080
4080
2100
1E00
0000
0000
0000
ENDCHAR
STARTCHAR 00F3
ENCODING 243
SWIDTH 600 0
DWIDTH 10 0
BBX 10 20 0 -3
BITMAP
0000
0000
0000
0600
0800
1000
0000
1E00
2100
4080
4080
4080
4080
4080
4080
2100
1E00
0000
0000
0000
ENDCHAR
STARTCHAR 00F4
ENCODING 244
SWIDTH 600 0
DWIDTH 10 0
BBX 10 20 0 -3
BITMAP
0000
0000
0000
0C00
1200
2100
0000
1E00
2100
4080
4080
4080
4080
4080
4080
2100
1E00
0000
0000
0000
ENDCHAR
STARTCHAR 00F5
ENCODING 245
SWIDTH 600 0
DWIDTH 10 0
BBX 10 20 0 -3
BITMAP
0000
0000
0000
1900
2600
0000
0000
1E00
2100
4080
4080
4080
4080
4080
4080
2100
1E00
0000
0000
0000
ENDCHAR
STARTCHAR 00F6
ENCODING 246
SWIDTH 600 0
DWIDTH 10 0
BBX 10 20 0 -3
BITMAP
0000
0000
0000
3300
3300
0000
0000
1E00
2100
4080
4080
4080
4080
4080
4080
2100
1E00
0000
0000
0000
ENDCHAR
STARTCHAR 00F7
ENCODING 247
SWIDTH 1200 0
DWIDTH 20 0
BBX 14 11 3 2
BITMAP
0300
0300
0000
0000
0000
FFFC
0000
0000
0000
0300
0300
ENDCHAR
STARTCHAR 00F8
ENCODING 248
SWIDTH 600 0
DWIDTH 10 0
BBX 8 14 1 -2
BITMAP
02
02
3C
46
85
89
89
91
91
A1
62
3C
40
40
ENDCHAR
STARTCHAR 00F9
ENCODING 249
SWIDTH 600 0
DWIDTH 10 0
BBX 7 15 1 0
BITMAP
30
08
04
00
00
82
82
82
82
82
82
82
82
86
7A
ENDCHAR
STARTCHAR 00FA
ENCODING 250
SWIDTH 600 0
DWIDTH 10 0
BBX 7 15 1 0
BITMAP
0C
10
20
00
00
82
82
82
82
82
82
82
82
86
7A
ENDCHAR
STARTCHAR 00FB
ENCODING 251
SWIDTH 600 0
DWIDTH 10 0
BBX 7 15 1 0
BITMAP
18
24
42
00
00
82
82
82
82
82
82
82
82
86
7A
ENDCHAR
STARTCHAR 00FC
ENCODING 252
SWIDTH 600 0
DWIDTH 10 0
BBX 7 14 1 0
BITMAP
66
66
00
00
82
82
82
82
82
82
82
82
86
7A
ENDCHAR
STARTCHAR 00FD
ENCODING 253
SWIDTH 600 0
DWIDTH 10 0
BBX 7 18 2 -3
BITMAP
18
20
40
00
00
82
82
82
44
44
44
28
28
10
10
20
20
C0
ENDCHAR
STARTCHAR 00FE
ENCODING 254
SWIDTH 600 0
DWIDTH 10 0
BBX 7 18 2 -3
BITMAP
80
80
80
80
80
B8
C4
82
82
82
82
82
C4
B8
80
80
80
80
ENDCHAR
STARTCHAR 00FF
ENCODING 255
SWIDTH 600 0
DWIDTH 10 0
BBX 7 17 2 -3
BITMAP
CC
CC
00
00
82
82
82
44
44
44
28
28
10
10
20
20
C0
ENDCHAR
STARTCHAR 0391
ENCODING 913
SWIDTH 1200 0
DWIDTH 20 0
BBX 19 20 0 -3
BITMAP
000000
000000
004000
004000
00A000
00A000
011000
011000
020800
020800
020800
07FC00
040400
080200
080200
100100
100100
000000
000000
000000
ENDCHAR
STARTCHAR 0392
ENCODING 914
SWIDTH 1200 0
DWIDTH 20 0
BBX 19 20 0 -3
BITMAP
000000
000000
07F800
040400
040200
040200
040200
040200
040400
07FC00
040200
040100
040100
040100
040100
040200
07FC00
000000
000000
000000
ENDCHAR
STARTCHAR 0393
ENCODING 915
SWIDTH 1200 0
DWIDTH 20 0
BBX 19 20 0 -3
BITMAP
000000
000000
03FF00
020000
020000
020000
020000
020000
020000
020000
020000
020000
020000
020000
020000
020000
020000
000000
000000
000000
ENDCHAR
STARTCHAR 0394
ENCODING 916
SWIDTH 1200 0
DWIDTH 20 0
BBX 19 20 0 -3
BITMAP
000000
000000
004000
004000
00A000
00A000
011000
011000
020800
020800
040400
040400
080200
080200
100100
100100
3FFF80
000000
000000
000000
ENDCHAR
STARTCHAR 0395
ENCODING 917
SWIDTH 1200 0
DWIDTH 20 0
BBX 19 20 0 -3
BITMAP
000000
000000
07FF00
040000
040000
040000
040000
040000
040000
07F800
040000
040000
040000
040000
040000
040000
07FF00
000000
000000
000000
ENDCHAR
STARTCHAR 0396
ENCODING 918
SWIDTH 1200 0
DWIDTH 20 0
BBX 19 20 0 -3
BITMAP
000000
000000
0FFF00
000200
000400
000800
000800
001000
002000
004000
008000
010000
010000
020000
040000
080000
1FFF00
000000
000000
000000
ENDCHAR
STARTCHAR 0397
ENCODING 919
SWIDTH 1200 0
DWIDTH 20 0
BBX 19 20 0 -3
BITMAP
000000
000000
080100
080100
080100
080100
080100
080100
080100
0FFF00
080100
080100
080100
080100
080100
080100
080100
000000
000000
000000
ENDCHAR
STARTCHAR 0398
ENCODING 920
SWIDTH 1200 0
DWIDTH 20 0
BBX 19 20 0 -3
BITMAP
000000
000000
00F000
030C00
040200
080100
080100
100080
100080
11F880
100080
100080
080100
080100
040200
030C00
00F000
000000
000000
000000
ENDCHAR
STARTCHAR 0399
ENCODING 921
SWIDTH 1200 0
DWIDTH 20 0
BBX 19 20 0 -3
BITMAP
000000
000000
00E000
004000
004000
004000
004000
004000
004000
004000
004000
004000
004000
004000
004000
004000
00E000
000000
000000
000000
ENDCHAR
STARTCHAR 039A
ENCODING 922
SWIDTH 1200 0
DWIDTH 20 0
BBX 19 20 0 -3
BITMAP
000000
000000
040200
040400
040800
041000
042000
044000
048000
058000
064000
042000
041000
040800
040400
040200
040100
000000
000000
000000
ENDCHAR
STARTCHAR 039B
ENCODING 923
SWIDTH 1200 0
DWIDTH 20 0
BBX 19 20 0 -3
BITMAP
000000
000000
004000
004000
00A000
00A000
011000
011000
020800
020800
040400
040400
080200
080200
100100
100100
100100
000000
000000
000000
ENDCHAR
STARTCHAR 039C
ENCODING 924
SWIDTH 1200 0
DWIDTH 20 0
BBX 19 20 0 -3
BITMAP
000000
000000
300180
300180
280280
280280
240480
240480
220880
220880
211080
211080
20A080
20A080
204080
204080
204080
000000
000000
000000
ENDCHAR
STARTCHAR 039D
ENCODING 925
SWIDTH 1200 0
DWIDTH 20 0
BBX 19 20 0 -3
BITMAP
000000
000000
100100
180100
140100
120100
110100
110100
108100
104100
102100
101100
101100
100900
100500
100300
100100
000000
000000
000000
ENDCHAR
STARTCHAR 039E
ENCODING 926
SWIDTH 1200 0
DWIDTH 20 0
BBX 19 20 0 -3
BITMAP
000000
000000
1FFF00
000000
000000
000000
000000
000000
000000
03F800
000000
000000
000000
000000
000000
000000
1FFF00
000000
000000
000000
ENDCHAR
STARTCHAR 039F
ENCODING 927
SWIDTH 1200 0
DWIDTH 20 0
BBX 19 20 0 -3
BITMAP
000000
000000
00F000
030C00
040200
080100
080100
100080
100080
100080
100080
100080
080100
080100
040200
030C00
00F000
000000
000000
000000
ENDCHAR
STARTCHAR 03A0
ENCODING 928
SWIDTH 1200 0
DWIDTH 20 0
BBX 19 20 0 -3
BITMAP
000000
000000
0FFE00
080200
080200
080200
080200
080200
080200
080200
080200
080200
080200
080200
080200
080200
080200
000000
000000
000000
ENDCHAR
STARTCHAR 03A1
ENCODING 929
SWIDTH 1200 0
DWIDTH 20 0
BBX 19 20 0 -3
BITMAP
000000
000000
07FC00
040200
040100
040100
040100
040100
040200
07FC00
040000
040000
040000
040000
040000
040000
040000
000000
000000
000000
ENDCHAR
STARTCHAR 03A3
ENCODING 931
SWIDTH 1200 0
DWIDTH 20 0
BBX 19 20 0 -3
BITMAP
000000
000000
0FFF80
040000
020000
010000
008000
004000
002000
001800
002000
004000
008000
010000
020000
040000
0FFF80
000000
000000
000000
ENDCHAR
STARTCHAR 03A4
ENCODING 932
SWIDTH 1200 0
DWIDTH 20 0
BBX 19 20 0 -3
BITMAP
000000
000000
3FFF80
004000
004000
004000
004000
004000
004000
004000
004000
004000
004000
004000
004000
004000
004000
000000
000000
000000
ENDCHAR
STARTCHAR 03A5
ENCODING 933
SWIDTH 1200 0
DWIDTH 20 0
BBX 19 20 0 -3
BITMAP
000000
000000
071C00
18A300
204080
204080
404040
404040
004000
004000
004000
004000
004000
004000
004000
004000
004000
000000
000000
000000
ENDCHAR
STARTCHAR 03A6
ENCODING 934
SWIDTH 1200 0
DWIDTH 20 0
BBX 19 20 0 -3
BITMAP
000000
000000
004000
004000
03F800
0C4600
104100
204080
204080
204080
204080
104100
0C4600
03F800
004000
004000
004000
000000
000000
000000
ENDCHAR
STARTCHAR 03A7
ENCODING 935
SWIDTH 1200 0
DWIDTH 20 0
BBX 19 20 0 -3
BITMAP
000000
000000
100100
080200
040400
040400
020800
011000
00A000
004000
00A000
011000
020800
040400
040400
080200
100100
000000
000000
000000
ENDCHAR
STARTCHAR 03A8
ENCODING 936
SWIDTH 1200 0
DWIDTH 20 0
BBX 19 20 0 -3
BITMAP
000000
000000
004000
104100
104100
104100
104100
104100
104100
104100
084200
044400
03F800
004000
004000
004000
004000
000000
000000
000000
ENDCHAR
STARTCHAR 03A9
ENCODING 937
SWIDTH 1200 0
DWIDTH 20 0
BBX 19 20 0 -3
BITMAP
000000
000000
01F800
060600
080100
080100
100080
100080
100080
100080
100080
080100
040200
020400
019800
009000
1F9F80
000000
000000
000000
ENDCHAR
STARTCHAR 03B1
ENCODING 945
SWIDTH 1200 0
DWIDTH 20 0
BBX 19 20 0 -3
BITMAP
000000
000000
000000
000000
000000
000000
000000
00E200
011200
021200
021400
041400
041800
041000
042A00
022A00
01C400
000000
000000
000000
ENDCHAR
STARTCHAR 03B2
ENCODING 946
SWIDTH 1200 0
DWIDTH 20 0
BBX 19 20 0 -3
BITMAP
000000
000000
001C00
002200
004100
004100
008100
008200
00B400
010800
010400
010200
010200
020200
020200
028400
027800
020000
020000
000000
ENDCHAR
STARTCHAR 03B3
ENCODING 947
SWIDTH 1200 0
DWIDTH 20 0
BBX 19 20 0 -3
BITMAP
000000
000000
000000
000000
000000
000000
000000
000000
018600
024800
045000
002000
006000
004000
004000
004000
008000
008000
008000
000000
ENDCHAR
STARTCHAR 03B4
ENCODING 948
SWIDTH 1200 0
DWIDTH 20 0
BBX 19 20 0 -3
BITMAP
000000
000000
003000
004C00
004200
004100
002000
003000
00CC00
010400
010200
020200
020200
020400
020400
010800
00F000
000000
000000
000000
ENDCHAR
STARTCHAR 03B5
ENCODING 949
SWIDTH 1200 0
DWIDTH 20 0
BBX 19 20 0 -3
BITMAP
000000
000000
000000
000000
000000
000000
000000
007800
008400
010000
010000
00F000
010000
020000
020400
010800
00F000
000000
000000
000000
ENDCHAR
STARTCHAR 03B6
ENCODING 950
SWIDTH 1200 0
DWIDTH 20 0
BBX 19 20 0 -3
BITMAP
000000
000000
010000
020C00
021800
01E000
004000
008000
010000
010000
020000
020000
020000
020000
018000
007000
000C00
000400
00C400
003800
ENDCHAR
STARTCHAR 03B7
ENCODING 951
SWIDTH 1200 0
DWIDTH 20 0
BBX 19 20 0 -3
BITMAP
000000
000000
000000
000000
000000
000000
000000
031800
04A400
00C200
008200
010400
010400
010400
020800
020800
020800
001000
001000
001000
ENDCHAR
STARTCHAR 03B8
ENCODING 952
SWIDTH 1200 0
DWIDTH 20 0
BBX 19 20 0 -3
BITMAP
000000
000000
003800
004400
008200
010200
010200
020200
020200
03FC00
040400
040400
040800
040800
041000
022000
01C000
000000
000000
000000
ENDCHAR
STARTCHAR 03B9
ENCODING 953
SWIDTH 1200 0
DWIDTH 20 0
BBX 19 20 0 -3
BITMAP
000000
000000
000000
000000
000000
000000
000000
008000
008000
010000
010000
010000
020000
020000
020800
023000
01C000
000000
000000
000000
ENDCHAR
STARTCHAR 03BA
ENCODING 954
SWIDTH 1200 0
DWIDTH 20 0
BBX 19 20 0 -3
BITMAP
000000
000000
000000
000000
000000
000000
000000
010C00
011000
012000
024000
038000
024000
022000
042400
042800
041000
000000
000000
000000
ENDCHAR
STARTCHAR 03BB
ENCODING 955
SWIDTH 1200 0
DWIDTH 20 0
BBX 19 20 0 -3
BITMAP
000000
000000
00C000
002000
001000
001000
001000
001000
003000
005000
005000
009000
009000
011000
010800
020800
020600
000000
000000
000000
ENDCHAR
STARTCHAR 03BC
ENCODING 956
SWIDTH 1200 0
DWIDTH 20 0
BBX 19 20 0 -3
BITMAP
000000
000000
000000
000000
000000
000000
000000
020800
020800
020800
041000
041000
041000
042000
0C2200
0A5400
098800
080000
100000
100000
ENDCHAR
STARTCHAR 03BD
ENCODING 957
SWIDTH 1200 0
DWIDTH 20 0
BBX 19 20 0 -3
BITMAP
000000
000000
000000
000000
000000
000000
000000
040400
020400
020400
010400
010800
010800
011000
012000
014000
018000
000000
000000
000000
ENDCHAR
STARTCHAR 03BE
ENCODING 958
SWIDTH 1200 0
DWIDTH 20 0
BBX 19 20 0 -3
BITMAP
000000
000000
007800
008000
004000
00FE00
010000
020000
020000
010000
01FC00
020000
040000
040000
020000
01C000
003800
000400
020400
01F800
ENDCHAR
STARTCHAR 03BF
ENCODING 959
SWIDTH 1200 0
DWIDTH 20 0
BBX 19 20 0 -3
BITMAP
000000
000000
000000
000000
000000
000000
000000
007000
018800
020400
020400
040400
040400
040800
040800
023000
01C000
000000
000000
000000
ENDCHAR
STARTCHAR 03C0
ENCODING 960
SWIDTH 1200 0
DWIDTH 20 0
BBX 19 20 0 -3
BITMAP
000000
000000
000000
000000
000000
000000
000100
07FE00
089000
009000
009000
011000
011000
021000
021100
041200
080C00
000000
000000
000000
ENDCHAR
STARTCHAR 03C1
ENCODING 961
SWIDTH 1200 0
DWIDTH 20 0
BBX 19 20 0 -3
BITMAP
000000
000000
000000
000000
000000
000000
000000
003C00
004200
008100
008100
010100
010100
010200
010200
028C00
027000
020000
020000
020000
ENDCHAR
STARTCHAR 03C3
ENCODING 963
SWIDTH 1200 0
DWIDTH 20 0
BBX 19 20 0 -3
BITMAP
000000
000000
000000
000000
000000
000000
000180
007E00
018800
020400
020400
040400
040400
040400
040800
021000
01E000
000000
000000
000000
ENDCHAR
STARTCHAR 03C4
ENCODING 964
SWIDTH 1200 0
DWIDTH 20 0
BBX 19 20 0 -3
BITMAP
000000
000000
000000
000000
000000
000000
000400
07F800
088000
008000
008000
010000
010000
010000
010800
013000
00C000
000000
000000
000000
ENDCHAR
STARTCHAR 03C5
ENCODING 965
SWIDTH 1200 0
DWIDTH 20 0
BBX 19 20 0 -3
BITMAP
000000
000000
000000
000000
000000
000000
000000
040800
020400
020400
020400
020400
020800
020800
021000
022000
01C000
000000
000000
000000
ENDCHAR
STARTCHAR 03C6
ENCODING 966
SWIDTH 1200 0
DWIDTH 20 0
BBX 19 20 0 -3
BITMAP
000000
000000
001000
001000
001000
001000
002000
00F800
012400
022200
042200
044200
044200
044400
024800
01F000
008000
008000
008000
008000
ENDCHAR
STARTCHAR 03C7
ENCODING 967
SWIDTH 1200 0
DWIDTH 20 0
BBX 19 20 0 -3
BITMAP
000000
000000
000000
000000
000000
000000
000000
018400
024800
005000
005000
006000
00C000
014000
014400
022400
041800
000000
000000
000000
ENDCHAR
STARTCHAR 03C8
ENCODING 968
SWIDTH 1200 0
DWIDTH 20 0
BBX 19 20 0 -3
BITMAP
000000
000000
001000
001000
001000
001000
002000
012400
022200
042200
042200
044200
044200
044400
024800
01F000
008000
008000
008000
008000
ENDCHAR
STARTCHAR 03C9
ENCODING 969
SWIDTH 1200 0
DWIDTH 20 0
BBX 19 20 0 -3
BITMAP
000000
000000
000000
000000
000000
000000
000000
010400
020200
040200
042100
082100
082100
084200
084200
04A400
031800
000000
000000
000000
ENDCHAR
STARTCHAR 0401
ENCODING 1025
SWIDTH 1200 0
DWIDTH 20 0
BBX 19 20 0 -3
BITMAP
030C00
030C00
000000
07FF00
040000
040000
040000
040000
040000
07F000
040000
040000
040000
040000
040000
040000
07FF00
000000
000000
000000
ENDCHAR
STARTCHAR 0410
ENCODING 1040
SWIDTH 1200 0
DWIDTH 20 0
BBX 19 20 0 -3
BITMAP
000000
000000
004000
004000
00A000
00A000
011000
011000
020800
020800
040400
07FC00
040400
080200
080200
100100
100100
000000
000000
000000
ENDCHAR
STARTCHAR 0411
ENCODING 1041
SWIDTH 1200 0
DWIDTH 20 0
BBX 19 20 0 -3
BITMAP
000000
000000
07FE00
040000
040000
040000
040000
040000
040000
07FC00
040200
040100
040100
040100
040100
040200
07FC00
000000
000000
000000
ENDCHAR
STARTCHAR 0412
ENCODING 1042
SWIDTH 1200 0
DWIDTH 20 0
BBX 19 20 0 -3
BITMAP
000000
000000
07F800
040400
040200
040200
040200
040400
040800
07FC00
040200
040100
040100
040100
040100
040200
07FC00
000000
000000
000000
ENDCHAR
STARTCHAR 0413
ENCODING 1043
SWIDTH 1200 0
DWIDTH 20 0
BBX 19 20 0 -3
BITMAP
000000
000000
03FF00
020000
020000
020000
020000
020000
020000
020000
020000
020000
020000
020000
020000
020000
020000
000000
000000
000000
ENDCHAR
STARTCHAR 0414
ENCODING 1044
SWIDTH 1200 0
DWIDTH 20 0
BBX 19 20 0 -3
BITMAP
000000
000000
00FF00
008100
008100
008100
008100
008100
010100
010100
010100
020100
020100
040100
040100
080100
1FFF80
100080
100080
000000
ENDCHAR
STARTCHAR 0415
ENCODING 1045
SWIDTH 1200 0
DWIDTH 20 0
BBX 19 20 0 -3
BITMAP
000000
000000
07FF00
040000
040000
040000
040000
040000
040000
07F000
040000
040000
040000
040000
040000
040000
07FF00
000000
000000
000000
ENDCHAR
STARTCHAR 0416
ENCODING 1046
SWIDTH 1200 0
DWIDTH 20 0
BBX 19 20 0 -3
BITMAP
000000
000000
304180
484240
084200
044400
044400
024800
01F000
015000
024800
024800
044400
044400
084200
104100
6040C0
000000
000000
000000
ENDCHAR
STARTCHAR 0417
ENCODING 1047
SWIDTH 1200 0
DWIDTH 20 0
BBX 19 20 0 -3
BITMAP
000000
000000
03F800
040400
080200
080100
000100
000200
000400
00FC00
000200
000100
000100
080100
080200
040400
03F800
000000
000000
000000
ENDCHAR
STARTCHAR 0418
ENCODING 1048
SWIDTH 1200 0
DWIDTH 20 0
BBX 19 20 0 -3
BITMAP
000000
000000
100300
100500
100900
100900
101100
102100
104100
104100
108100
110100
120100
120100
140100
180100
100100
000000
000000
000000
ENDCHAR
STARTCHAR 0419
ENCODING 1049
SWIDTH 1200 0
DWIDTH 20 0
BBX 19 20 0 -3
BITMAP
021000
021000
01E000
100100
100300
100500
100900
101100
102100
102100
104100
108100
110100
110100
120100
140100
180100
000000
000000
000000
ENDCHAR
STARTCHAR 041A
ENCODING 1050
SWIDTH 1200 0
DWIDTH 20 0
BBX 19 20 0 -3
BITMAP
000000
000000
080600
080980
081000
082000
082000
084000
088000
0F8000
084000
082000
081000
080800
080400
080200
080180
000000
000000
000000
ENDCHAR
STARTCHAR 041B
ENCODING 1051
SWIDTH 1200 0
DWIDTH 20 0
BBX 19 20 0 -3
BITMAP
000000
000000
01FF00
010100
010100
010100
010100
010100
010100
010100
010100
010100
020100
020100
020100
040100
380100
000000
000000
000000
ENDCHAR
STARTCHAR 041C
ENCODING 1052
SWIDTH 1200 0
DWIDTH 20 0
BBX 19 20 0 -3
BITMAP
000000
000000
180300
180300
140300
140500
140500
120900
220880
211080
211080
20A080
20A080
404040
404040
404040
400040
000000
000000
000000
ENDCHAR
STARTCHAR 041D
ENCODING 1053
SWIDTH 1200 0
DWIDTH 20 0
BBX 19 20 0 -3
BITMAP
000000
000000
080100
080100
080100
080100
080100
080100
080100
0FFF00
080100
080100
080100
080100
080100
080100
080100
000000
000000
000000
ENDCHAR
STARTCHAR 041E
ENCODING 1054
SWIDTH 1200 0
DWIDTH 20 0
BBX 19 20 0 -3
BITMAP
000000
000000
00F000
030C00
040200
080100
080100
100080
100080
100080
100080
100080
080100
080100
040200
030C00
00F000
000000
000000
000000
ENDCHAR
STARTCHAR 041F
ENCODING 1055
SWIDTH 1200 0
DWIDTH 20 0
BBX 19 20 0 -3
BITMAP
000000
000000
0FFF00
080100
080100
080100
080100
080100
080100
080100
080100
080100
080100
080100
080100
080100
080100
000000
000000
000000
ENDCHAR
STARTCHAR 0420
ENCODING 1056
SWIDTH 1200 0
DWIDTH 20 0
BBX 19 20 0 -3
BITMAP
000000
000000
07FC00
040200
040100
040100
040100
040100
040200
07FC00
040000
040000
040000
040000
040000
040000
040000
000000
000000
000000
ENDCHAR
STARTCHAR 0421
ENCODING 1057
SWIDTH 1200 0
DWIDTH 20 0
BBX 19 20 0 -3
BITMAP
000000
000000
00FC00
030200
040100
080080
080080
100000
100000
100000
100000
100000
080000
080080
040100
030600
00F800
000000
000000
000000
ENDCHAR
STARTCHAR 0422
ENCODING 1058
SWIDTH 1200 0
DWIDTH 20 0
BBX 19 20 0 -3
BITMAP
000000
000000
3FFF80
004000
004000
004000
004000
004000
004000
004000
004000
004000
004000
004000
004000
004000
004000
000000
000000
000000
ENDCHAR
STARTCHAR 0423
ENCODING 1059
SWIDTH 1200 0
DWIDTH 20 0
BBX 19 20 0 -3
BITMAP
000000
000000
080080
080080
040100
040100
020200
010400
010400
008800
008800
005000
003000
002000
002000
004000
008000
0F0000
000000
000000
ENDCHAR
STARTCHAR 0424
ENCODING 1060
SWIDTH 1200 0
DWIDTH 20 0
BBX 19 20 0 -3
BITMAP
000000
000000
004000
004000
03F800
0C4600
104100
204080
204080
204080
204080
104100
0C4600
03F800
004000
004000
004000
000000
000000
000000
ENDCHAR
STARTCHAR 0425
ENCODING 1061
SWIDTH 1200 0
DWIDTH 20 0
BBX 19 20 0 -3
BITMAP
000000
000000
080100
080100
040200
020400
010800
010800
009000
006000
009000
010800
010800
020400
040200
080100
080100
000000
000000
000000
ENDCHAR
STARTCHAR 0426
ENCODING 1062
SWIDTH 1200 0
DWIDTH 20 0
BBX 19 20 0 -3
BITMAP
000000
000000
040200
040200
040200
040200
040200
040200
040200
040200
040200
040200
040200
040200
040200
040200
07FF80
000080
000080
000000
ENDCHAR
STARTCHAR 0427
ENCODING 1063
SWIDTH 1200 0
DWIDTH 20 0
BBX 19 20 0 -3
BITMAP
000000
000000
080200
080200
080200
080200
080200
080200
080200
080200
080E00
041200
03E200
000200
000200
000200
000200
000000
000000
000000
ENDCHAR
STARTCHAR 0428
ENCODING 1064
SWIDTH 1200 0
DWIDTH 20 0
BBX 19 20 0 -3
BITMAP
000000
000000
204080
204080
204080
204080
204080
204080
204080
204080
204080
204080
204080
204080
204080
204080
3FFF80
000000
000000
000000
ENDCHAR
STARTCHAR 0429
ENCODING 1065
SWIDTH 1200 0
DWIDTH 20 0
BBX 19 20 0 -3
BITMAP
000000
000000
204080
204080
204080
204080
204080
204080
204080
204080
204080
204080
204080
204080
204080
204080
3FFFE0
000020
000020
000000
ENDCHAR
STARTCHAR 042A
ENCODING 1066
SWIDTH 1200 0
DWIDTH 20 0
BBX 19 20 0 -3
BITMAP
000000
000000
3E0000
220000
220000
020000
020000
020000
020000
03FE00
020100
020080
020080
020080
020080
020100
03FE00
000000
000000
000000
ENDCHAR
STARTCHAR 042B
ENCODING 1067
SWIDTH 1200 0
DWIDTH 20 0
BBX 19 20 0 -3
BITMAP
000000
000000
100080
100080
100080
100080
100080
100080
100080
1FE080
101080
100880
100880
100880
101080
101080
1FE080
000000
000000
000000
ENDCHAR
STARTCHAR 042C
ENCODING 1068
SWIDTH 1200 0
DWIDTH 20 0
BBX 19 20 0 -3
BITMAP
000000
000000
040000
040000
040000
040000
040000
040000
040000
07FC00
040200
040100
040100
040100
040100
040600
07F800
000000
000000
000000
ENDCHAR
STARTCHAR 042D
ENCODING 1069
SWIDTH 1200 0
DWIDTH 20 0
BBX 19 20 0 -3
BITMAP
000000
000000
03F000
0C0C00
100200
000200
000100
000100
038100
044700
003900
000100
000100
000200
100200
0C0C00
03F000
000000
000000
000000
ENDCHAR
STARTCHAR 042E
ENCODING 1070
SWIDTH 1200 0
DWIDTH 20 0
BBX 19 20 0 -3
BITMAP
000000
000000
203E00
204100
208080
208080
210040
210040
210040
3F0040
210040
210040
210040
208080
208080
204100
203E00
000000
000000
000000
ENDCHAR
STARTCHAR 042F
ENCODING 1071
SWIDTH 1200 0
DWIDTH 20 0
BBX 19 20 0 -3
BITMAP
000000
000000
03FF00
040100
080100
080100
080100
080100
040100
03FF00
008100
010100
010100
020100
040100
080100
300100
000000
000000
000000
ENDCHAR
STARTCHAR 0430
ENCODING 1072
SWIDTH 1200 0
DWIDTH 20 0
BBX 19 20 0 -3
BITMAP
000000
000000
000000
000000
000000
000000
000000
00F000
010800
020400
000400
007C00
018400
020400
020400
020D00
01F600
000000
000000
000000
ENDCHAR
STARTCHAR 0431
ENCODING 1073
SWIDTH 1200 0
DWIDTH 20 0
BBX 19 20 0 -3
BITMAP
000000
000000
000200
000C00
007000
018000
020000
04F000
050C00
060400
040200
040200
040200
040200
020400
010800
00F000
000000
000000
000000
ENDCHAR
STARTCHAR 0432
ENCODING 1074
SWIDTH 1200 0
DWIDTH 20 0
BBX 19 20 0 -3
BITMAP
000000
000000
000000
000000
000000
000000
000000
01F800
010400
010200
010400
01F800
010400
010200
010200
010400
01F800
000000
000000
000000
ENDCHAR
STARTCHAR 0433
ENCODING 1075
SWIDTH 1200 0
DWIDTH 20 0
BBX 19 20 0 -3
BITMAP
000000
000000
000000
000000
000000
000000
000000
01FE00
010000
010000
010000
010000
010000
010000
010000
010000
010000
000000
000000
000000
ENDCHAR
STARTCHAR 0434
ENCODING 1076
SWIDTH 1200 0
DWIDTH 20 0
BBX 19 20 0 -3
BITMAP
000000
000000
000000
000000
000000
000000
000000
01FE00
010200
010200
010200
010200
020200
020200
020200
040200
07FF00
080100
080100
000000
ENDCHAR
STARTCHAR 0435
ENCODING 1077
SWIDTH 1200 0
DWIDTH 20 0
BBX 19 20 0 -3
BITMAP
000000
000000
000000
000000
000000
000000
000000
00F800
010400
020200
020200
03FE00
020000
020000
020200
010400
00F800
000000
000000
000000
ENDCHAR
STARTCHAR 0436
ENCODING 1078
SWIDTH 1200 0
DWIDTH 20 0
BBX 19 20 0 -3
BITMAP
000000
000000
000000
000000
000000
000000
000000
184300
244480
024800
015000
01F000
024800
044400
084200
104100
204080
000000
000000
000000
ENDCHAR
STARTCHAR 0437
ENCODING 1079
SWIDTH 1200 0
DWIDTH 20 0
BBX 19 20 0 -3
BITMAP
000000
000000
000000
000000
000000
000000
000000
01F000
020800
040400
000800
007000
000800
000400
040400
020800
01F000
000000
000000
000000
ENDCHAR
STARTCHAR 0438
ENCODING 1080
SWIDTH 1200 0
DWIDTH 20 0
BBX 19 20 0 -3
BITMAP
000000
000000
000000
000000
000000
000000
000000
040200
040600
040A00
041200
042200
044200
048200
050200
060200
040200
000000
000000
000000
ENDCHAR
STARTCHAR 0439
ENCODING 1081
SWIDTH 1200 0
DWIDTH 20 0
BBX 19 20 0 -3
BITMAP
000000
000000
000000
000000
020400
01F800
000000
040200
040600
040A00
041200
042200
044200
048200
050200
060200
040200
000000
000000
000000
ENDCHAR
STARTCHAR 043A
ENCODING 1082
SWIDTH 1200 0
DWIDTH 20 0
BBX 19 20 0 -3
BITMAP
000000
000000
000000
000000
000000
000000
000000
020C00
021200
022000
024000
038000
024000
022000
021000
020800
020600
000000
000000
000000
ENDCHAR
STARTCHAR 043B
ENCODING 1083
SWIDTH 1200 0
DWIDTH 20 0
BBX 19 20 0 -3
BITMAP
000000
000000
000000
000000
000000
000000
000000
007E00
004200
004200
004200
004200
008200
008200
008200
010200
0E0200
000000
000000
000000
ENDCHAR
STARTCHAR 043C
ENCODING 1084
SWIDTH 1200 0
DWIDTH 20 0
BBX 19 20 0 -3
BITMAP
000000
000000
000000
000000
000000
000000
000000
020400
020400
020400
050A00
051200
089100
08A100
084100
104080
104080
000000
000000
000000
ENDCHAR
STARTCHAR 043D
ENCODING 1085
SWIDTH 1200 0
DWIDTH 20 0
BBX 19 20 0 -3
BITMAP
000000
000000
000000
000000
000000
000000
000000
040200
040200
040200
040200
07FE00
040200
040200
040200
040200
040200
000000
000000
000000
ENDCHAR
STARTCHAR 043E
ENCODING 1086
SWIDTH 1200 0
DWIDTH 20 0
BBX 19 20 0 -3
BITMAP
000000
000000
000000
000000
000000
000000
000000
01F000
020800
040400
040400
040400
040400
040400
040400
020800
01F000
000000
000000
000000
ENDCHAR
STARTCHAR 043F
ENCODING 1087
SWIDTH 1200 0
DWIDTH 20 0
BBX 19 20 0 -3
BITMAP
000000
000000
000000
000000
000000
000000
000000
07FE00
040200
040200
040200
040200
040200
040200
040200
040200
040200
000000
000000
000000
ENDCHAR
STARTCHAR 0440
ENCODING 1088
SWIDTH 1200 0
DWIDTH 20 0
BBX 19 20 0 -3
BITMAP
000000
000000
000000
000000
000000
000000
000000
02F800
030400
020200
020100
020100
020100
020100
020200
030400
02F800
020000
020000
020000
ENDCHAR
STARTCHAR 0441
ENCODING 1089
SWIDTH 1200 0
DWIDTH 20 0
BBX 19 20 0 -3
BITMAP
000000
000000
000000
000000
000000
000000
000000
00F800
010400
020200
020200
020000
020000
020000
020200
010400
00F800
000000
000000
000000
ENDCHAR
STARTCHAR 0442
ENCODING 1090
SWIDTH 1200 0
DWIDTH 20 0
BBX 19 20 0 -3
BITMAP
000000
000000
000000
000000
000000
000000
000000
0FFE00
004000
004000
004000
004000
004000
004000
004000
004000
004000
000000
000000
000000
ENDCHAR
STARTCHAR 0443
ENCODING 1091
SWIDTH 1200 0
DWIDTH 20 0
BBX 19 20 0 -3
BITMAP
000000
000000
000000
000000
000000
000000
000000
040200
020400
020400
010800
010800
009000
009000
006000
002000
004000
004000
088000
070000
ENDCHAR
STARTCHAR 0444
ENCODING 1092
SWIDTH 1200 0
DWIDTH 20 0
BBX 19 20 0 -3
BITMAP
000000
004000
004000
004000
004000
004000
004000
075C00
08E200
104100
104100
104100
104100
104100
08E200
075C00
004000
004000
004000
004000
ENDCHAR
STARTCHAR 0445
ENCODING 1093
SWIDTH 1200 0
DWIDTH 20 0
BBX 19 20 0 -3
BITMAP
000000
000000
000000
000000
000000
000000
000000
080400
040800
021000
012000
00C000
00C000
012000
021000
040800
080400
000000
000000
000000
ENDCHAR
STARTCHAR 0446
ENCODING 1094
SWIDTH 1200 0
DWIDTH 20 0
BBX 19 20 0 -3
BITMAP
000000
000000
000000
000000
000000
000000
000000
040400
040400
040400
040400
040400
040400
040400
040400
040400
07FF00
000100
000100
000000
ENDCHAR
STARTCHAR 0447
ENCODING 1095
SWIDTH 1200 0
DWIDTH 20 0
BBX 19 20 0 -3
BITMAP
000000
000000
000000
000000
000000
000000
000000
040400
040400
040400
040400
040400
040400
041C00
03E400
000400
000400
000000
000000
000000
ENDCHAR
STARTCHAR 0448
ENCODING 1096
SWIDTH 1200 0
DWIDTH 20 0
BBX 19 20 0 -3
BITMAP
000000
000000
000000
000000
000000
000000
000000
104100
104100
104100
104100
104100
104100
104100
104100
104100
1FFFC0
000000
000000
000000
ENDCHAR
STARTCHAR 0449
ENCODING 1097
SWIDTH 1200 0
DWIDTH 20 0
BBX 19 20 0 -3
BITMAP
000000
000000
000000
000000
000000
000000
000000
104100
104100
104100
104100
104100
104100
104100
104100
104100
1FFFC0
000040
000040
000000
ENDCHAR
STARTCHAR 044A
ENCODING 1098
SWIDTH 1200 0
DWIDTH 20 0
BBX 19 20 0 -3
BITMAP
000000
000000
000000
000000
000000
000000
000000
0F8000
008000
008000
008000
00FE00
008100
008080
008080
008100
00FE00
000000
000000
000000
ENDCHAR
STARTCHAR 044B
ENCODING 1099
SWIDTH 1200 0
DWIDTH 20 0
BBX 19 20 0 -3
BITMAP
000000
000000
000000
000000
000000
000000
000000
080100
080100
080100
080100
0FC100
082100
081100
081100
082100
0FC100
000000
000000
000000
ENDCHAR
STARTCHAR 044C
ENCODING 1100
SWIDTH 1200 0
DWIDTH 20 0
BBX 19 20 0 -3
BITMAP
000000
000000
000000
000000
000000
000000
000000
020000
020000
020000
020000
03F800
020400
020200
020200
020400
03F800
000000
000000
000000
ENDCHAR
STARTCHAR 044D
ENCODING 1101
SWIDTH 1200 0
DWIDTH 20 0
BBX 19 20 0 -3
BITMAP
000000
000000
000000
000000
000000
000000
000000
03F000
040800
000400
000400
00CC00
013400
000400
000400
040800
03F000
000000
000000
000000
ENDCHAR
STARTCHAR 044E
ENCODING 1102
SWIDTH 1200 0
DWIDTH 20 0
BBX 19 20 0 -3
BITMAP
000000
000000
000000
000000
000000
000000
000000
087C00
088200
088200
090100
0F0100
090100
090100
088200
088200
087C00
000000
000000
000000
ENDCHAR
STARTCHAR 044F
ENCODING 1103
SWIDTH 1200 0
DWIDTH 20 0
BBX 19 20 0 -3
BITMAP
000000
000000
000000
000000
000000
000000
000000
01FC00
020400
040400
020400
01FC00
004400
008400
010400
020400
0C0400
000000
000000
000000
ENDCHAR
STARTCHAR 0451
ENCODING 1105
SWIDTH 1200 0
DWIDTH 20 0
BBX 19 20 0 -3
BITMAP
000000
000000
000000
018C00
018C00
000000
000000
00F800
010400
020200
020200
03FE00
020000
020000
020200
010400
00F800
000000
000000
000000
ENDCHAR
STARTCHAR 2000
ENCODING 8192
SWIDTH 1200 0
DWIDTH 20 0
BBX 19 20 0 -3
BITMAP
000000
000000
000000
000000
000000
000000
000000
000000
000000
000000
000000
000000
000000
000000
000000
000000
000000
000000
000000
000000
ENDCHAR
STARTCHAR 2001
ENCODING 8193
SWIDTH 1200 0
DWIDTH 20 0
BBX 19 20 0 -3
BITMAP
000000
000000
000000
000000
000000
000000
000000
000000
000000
000000
000000
000000
000000
000000
000000
000000
000000
000000
000000
000000
ENDCHAR
STARTCHAR 2002
ENCODING 8194
SWIDTH 1200 0
DWIDTH 20 0
BBX 19 20 0 -3
BITMAP
000000
000000
000000
000000
000000
000000
000000
000000
000000
000000
000000
000000
000000
000000
000000
000000
000000
000000
000000
000000
ENDCHAR
STARTCHAR 2003
ENCODING 8195
SWIDTH 1200 0
DWIDTH 20 0
BBX 19 20 0 -3
BITMAP
000000
000000
000000
000000
000000
000000
000000
000000
000000
000000
000000
000000
000000
000000
000000
000000
000000
000000
000000
000000
ENDCHAR
STARTCHAR 2004
ENCODING 8196
SWIDTH 1200 0
DWIDTH 20 0
BBX 19 20 0 -3
BITMAP
000000
000000
000000
000000
000000
000000
000000
000000
000000
000000
000000
000000
000000
000000
000000
000000
000000
000000
000000
000000
ENDCHAR
STARTCHAR 2005
ENCODING 8197
SWIDTH 1200 0
DWIDTH 20 0
BBX 19 20 0 -3
BITMAP
000000
000000
000000
000000
000000
000000
000000
000000
000000
000000
000000
000000
000000
000000
000000
000000
000000
000000
000000
000000
ENDCHAR
STARTCHAR 2006
ENCODING 8198
SWIDTH 1200 0
DWIDTH 20 0
BBX 19 20 0 -3
BITMAP
000000
000000
000000
000000
000000
000000
000000
000000
000000
000000
000000
000000
000000
000000
000000
000000
000000
000000
000000
000000
ENDCHAR
STARTCHAR 2007
ENCODING 8199
SWIDTH 1200 0
DWIDTH 20 0
BBX 19 20 0 -3
BITMAP
000000
000000
000000
000000
000000
000000
000000
000000
000000
000000
000000
000000
000000
000000
000000
000000
000000
000000
000000
000000
ENDCHAR
STARTCHAR 2008
ENCODING 8200
SWIDTH 1200 0
DWIDTH 20 0
BBX 19 20 0 -3
BITMAP
000000
000000
000000
000000
000000
000000
000000
000000
000000
000000
000000
000000
000000
000000
000000
000000
000000
000000
000000
000000
ENDCHAR
STARTCHAR 2009
ENCODING 8201
SWIDTH 1200 0
DWIDTH 20 0
BBX 19 20 0 -3
BITMAP
000000
000000
000000
000000
000000
000000
000000
000000
000000
000000
000000
000000
000000
000000
000000
000000
000000
000000
000000
000000
ENDCHAR
STARTCHAR 200A
ENCODING 8202
SWIDTH 1200 0
DWIDTH 20 0
BBX 19 20 0 -3
BITMAP
000000
000000
000000
000000
000000
000000
000000
000000
000000
000000
000000
000000
000000
000000
000000
000000
000000
000000
000000
000000
ENDCHAR
STARTCHAR 200B
ENCODING 8203
SWIDTH 600 0
DWIDTH 10 0
BBX 1 1 0 0
BITMAP
00
ENDCHAR
STARTCHAR 200C
ENCODING 8204
SWIDTH 600 0
DWIDTH 10 0
BBX 1 1 0 0
BITMAP
00
ENDCHAR
STARTCHAR 200D
ENCODING 8205
SWIDTH 600 0
DWIDTH 10 0
BBX 1 1 0 0
BITMAP
00
ENDCHAR
STARTCHAR 200E
ENCODING 8206
SWIDTH 600 0
DWIDTH 10 0
BBX 1 1 0 0
BITMAP
00
ENDCHAR
STARTCHAR 200F
ENCODING 8207
SWIDTH 600 0
DWIDTH 10 0
BBX 1 1 0 0
BITMAP
00
ENDCHAR
STARTCHAR 2010
ENCODING 8208
SWIDTH 1200 0
DWIDTH 20 0
BBX 20 20 0 -3
BITMAP
000000
000000
000000
000000
000000
000000
000000
000000
000000
03FC00
000000
000000
000000
000000
000000
000000
000000
000000
000000
000000
ENDCHAR
STARTCHAR 2014
ENCODING 8212
SWIDTH 1200 0
DWIDTH 20 0
BBX 20 20 0 -3
BITMAP
000000
000000
000000
000000
000000
000000
000000
000000
000000
7FFFE0
000000
000000
000000
000000
000000
000000
000000
000000
000000
000000
ENDCHAR
STARTCHAR 2015
ENCODING 8213
SWIDTH 1200 0
DWIDTH 20 0
BBX 20 20 0 -3
BITMAP
000000
000000
000000
000000
000000
000000
000000
000000
000000
7FFFE0
000000
000000
000000
000000
000000
000000
000000
000000
000000
000000
ENDCHAR
STARTCHAR 2016
ENCODING 8214
SWIDTH 1200 0
DWIDTH 20 0
BBX 20 20 0 -3
BITMAP
011000
011000
011000
011000
011000
011000
011000
011000
011000
011000
011000
011000
011000
011000
011000
011000
011000
011000
011000
011000
ENDCHAR
STARTCHAR 2018
ENCODING 8216
SWIDTH 1200 0
DWIDTH 20 0
BBX 20 20 0 -3
BITMAP
000000
000040
000080
0000C0
0000C0
000000
000000
000000
000000
000000
000000
000000
000000
000000
000000
000000
000000
000000
000000
000000
ENDCHAR
STARTCHAR 2019
ENCODING 8217
SWIDTH 1200 0
DWIDTH 20 0
BBX 20 20 0 -3
BITMAP
000000
300000
300000
100000
200000
000000
000000
000000
000000
000000
000000
000000
000000
000000
000000
000000
000000
000000
000000
000000
ENDCHAR
STARTCHAR 201C
ENCODING 8220
SWIDTH 1200 0
DWIDTH 20 0
BBX 20 20 0 -3
BITMAP
000000
000440
000880
000CC0
000CC0
000000
000000
000000
000000
000000
000000
000000
000000
000000
000000
000000
000000
000000
000000
000000
ENDCHAR
STARTCHAR 201D
ENCODING 8221
SWIDTH 1200 0
DWIDTH 20 0
BBX 20 20 0 -3
BITMAP
000000
330000
330000
110000
220000
000000
000000
000000
000000
000000
000000
000000
000000
000000
000000
000000
000000
000000
000000
000000
ENDCHAR
STARTCHAR 2020
ENCODING 8224
SWIDTH 1200 0
DWIDTH 20 0
BBX 20 20 0 -3
BITMAP
006000
006000
006000
006000
07FE00
07FE00
006000
006000
006000
006000
006000
006000
006000
006000
006000
006000
006000
006000
006000
006000
ENDCHAR
STARTCHAR 2021
ENCODING 8225
SWIDTH 1200 0
DWIDTH 20 0
BBX 20 20 0 -3
BITMAP
006000
006000
006000
006000
07FE00
07FE00
006000
006000
006000
006000
006000
006000
006000
006000
07FE00
07FE00
006000
006000
006000
006000
ENDCHAR
STARTCHAR 2025
ENCODING 8229
SWIDTH 1200 0
DWIDTH 20 0
BBX 20 20 0 -3
BITMAP
000000
000000
000000
000000
000000
000000
000000
000000
000000
0C0300
0C0300
000000
000000
000000
000000
000000
000000
000000
000000
000000
ENDCHAR
STARTCHAR 2026
ENCODING 8230
SWIDTH 1200 0
DWIDTH 20 0
BBX 20 20 0 -3
BITMAP
000000
000000
000000
000000
000000
000000
000000
000000
000000
186180
186180
000000
000000
000000
000000
000000
000000
000000
000000
000000
ENDCHAR
STARTCHAR 2030
ENCODING 8240
SWIDTH 1200 0
DWIDTH 20 0
BBX 20 20 0 -3
BITMAP
000000
001000
381000
442000
442000
444000
444000
448000
390000
010000
0271C0
028A20
048A20
088A20
088A20
108A20
1071C0
200000
200000
000000
ENDCHAR
STARTCHAR 2032
ENCODING 8242
SWIDTH 1200 0
DWIDTH 20 0
BBX 20 20 0 -3
BITMAP
000000
100000
100000
100000
200000
200000
000000
000000
000000
000000
000000
000000
000000
000000
000000
000000
000000
000000
000000
000000
ENDCHAR
STARTCHAR 2033
ENCODING 8243
SWIDTH 1200 0
DWIDTH 20 0
BBX 20 20 0 -3
BITMAP
000000
120000
120000
120000
240000
240000
000000
000000
000000
000000
000000
000000
000000
000000
000000
000000
000000
000000
000000
000000
ENDCHAR
STARTCHAR 203B
ENCODING 8251
SWIDTH 1200 0
DWIDTH 20 0
BBX 20 20 0 -3
BITMAP
000000
000000
000000
106080
086100
040200
020400
010800
009000
186180
186180
009000
010800
020400
040200
086100
106080
000000
000000
000000
ENDCHAR
STARTCHAR 203E
ENCODING 8254
SWIDTH 1200 0
DWIDTH 20 0
BBX 20 20 0 -3
BITMAP
FFFFF0
000000
000000
000000
000000
000000
000000
000000
000000
000000
000000
000000
000000
000000
000000
000000
000000
000000
000000
000000
ENDCHAR
STARTCHAR 2103
ENCODING 8451
SWIDTH 1200 0
DWIDTH 20 0
BBX 20 20 0 -3
BITMAP
000000
000000
307800
498600
4A0100
320100
040080
040000
040000
040000
040000
040080
040080
020100
020100
018600
007800
000000
000000
000000
ENDCHAR
STARTCHAR 2116
ENCODING 8470
SWIDTH 1200 0
DWIDTH 20 0
BBX 20 20 0 -3
BITMAP
000000
000000
408000
408000
608000
608000
508000
508C00
489200
48A100
44A100
44A100
42A100
42A100
41A100
419260
408C60
000000
000000
000000
ENDCHAR
STARTCHAR 2121
ENCODING 8481
SWIDTH 1200 0
DWIDTH 20 0
BBX 20 20 0 -3
BITMAP
000000
000000
FF8000
080000
080000
080000
080000
08FA00
088200
088200
088200
08F200
088200
088200
088200
088200
08FBE0
000000
000000
000000
ENDCHAR
STARTCHAR 212B
ENCODING 8491
SWIDTH 1200 0
DWIDTH 20 0
BBX 20 20 0 -3
BITMAP
000000
006000
009000
009000
006000
000000
006000
006000
009000
009000
010800
010800
020400
03FC00
040200
040200
080100
080100
000000
000000
ENDCHAR
STARTCHAR 2160
ENCODING 8544
SWIDTH 1200 0
DWIDTH 20 0
BBX 20 20 0 -3
BITMAP
000000
000000
01F000
004000
004000
004000
004000
004000
004000
004000
004000
004000
004000
004000
004000
004000
01F000
000000
000000
000000
ENDCHAR
STARTCHAR 2161
ENCODING 8545
SWIDTH 1200 0
DWIDTH 20 0
BBX 20 20 0 -3
BITMAP
000000
000000
07FE00
010800
010800
010800
010800
010800
010800
010800
010800
010800
010800
010800
010800
010800
07FE00
000000
000000
000000
ENDCHAR
STARTCHAR 2162
ENCODING 8546
SWIDTH 1200 0
DWIDTH 20 0
BBX 20 20 0 -3
BITMAP
000000
000000
1FFF00
044400
044400
044400
044400
044400
044400
044400
044400
044400
044400
044400
044400
044400
1FFF00
000000
000000
000000
ENDCHAR
STARTCHAR 2163
ENCODING 8547
SWIDTH 1200 0
DWIDTH 20 0
BBX 20 20 0 -3
BITMAP
000000
000000
1FFF80
048200
048200
048200
044400
044400
044400
044400
042800
042800
042800
042800
041000
041000
1F1000
000000
000000
000000
ENDCHAR
STARTCHAR 2164
ENCODING 8548
SWIDTH 1200 0
DWIDTH 20 0
BBX 20 20 0 -3
BITMAP
000000
000000
1F1F00
040400
040400
040400
020800
020800
020800
011000
011000
011000
00A000
00A000
00A000
004000
004000
000000
000000
000000
ENDCHAR
STARTCHAR 2165
ENCODING 8549
SWIDTH 1200 0
DWIDTH 20 0
BBX 20 20 0 -3
BITMAP
000000
000000
3FFF00
082400
082400
082400
044400
044400
044400
044400
028400
028400
028400
028400
010400
010400
011F00
000000
000000
000000
ENDCHAR
STARTCHAR 2166
ENCODING 8550
SWIDTH 1200 0
DWIDTH 20 0
BBX 20 20 0 -3
BITMAP
000000
000000
7FFFC0
104900
104900
104900
088900
088900
088900
088900
050900
050900
050900
050900
020900
020900
023FC0
000000
000000
000000
ENDCHAR
STARTCHAR 2167
ENCODING 8551
SWIDTH 1200 0
DWIDTH 20 0
BBX 20 20 0 -3
BITMAP
000000
000000
7FFFC0
105500
105500
105500
089500
089500
089500
089500
051500
051500
051500
051500
021500
021500
027FC0
000000
000000
000000
ENDCHAR
STARTCHAR 2168
ENCODING 8552
SWIDTH 1200 0
DWIDTH 20 0
BBX 20 20 0 -3
BITMAP
000000
000000
3F83C0
090100
088200
084400
084400
082800
082800
081000
082800
082800
084400
084400
088200
090100
3F83C0
000000
000000
000000
ENDCHAR
STARTCHAR 2169
ENCODING 8553
SWIDTH 1200 0
DWIDTH 20 0
BBX 20 20 0 -3
BITMAP
000000
000000
3E0F80
080200
040400
020800
020800
011000
00A000
004000
00A000
011000
020800
020800
040400
080200
3E0F80
000000
000000
000000
ENDCHAR
STARTCHAR 2190
ENCODING 8592
SWIDTH 1200 0
DWIDTH 20 0
BBX 20 20 0 -3
BITMAP
000000
000000
000000
000000
000000
000000
040000
180000
300000
7FFFE0
300000
180000
040000
000000
000000
000000
000000
000000
000000
000000
ENDCHAR
STARTCHAR 2191
ENCODING 8593
SWIDTH 1200 0
DWIDTH 20 0
BBX 20 20 0 -3
BITMAP
000000
004000
00E000
01F000
015000
024800
004000
004000
004000
004000
004000
004000
004000
004000
004000
004000
004000
004000
004000
000000
ENDCHAR
STARTCHAR 2192
ENCODING 8594
SWIDTH 1200 0
DWIDTH 20 0
BBX 20 20 0 -3
BITMAP
000000
000000
000000
000000
000000
000000
000200
000180
0000C0
7FFFE0
0000C0
000180
000200
000000
000000
000000
000000
000000
000000
000000
ENDCHAR
STARTCHAR 2193
ENCODING 8595
SWIDTH 1200 0
DWIDTH 20 0
BBX 20 20 0 -3
BITMAP
004000
004000
004000
004000
004000
004000
004000
004000
004000
004000
004000
004000
004000
024800
015000
01F000
00E000
004000
000000
000000
ENDCHAR
STARTCHAR 21D2
ENCODING 8658
SWIDTH 1200 0
DWIDTH 20 0
BBX 20 20 0 -3
BITMAP
000000
000000
000000
000000
000400
000200
000100
7FFF80
000040
000020
000040
7FFF80
000100
000200
000400
000000
000000
000000
000000
000000
ENDCHAR
STARTCHAR 21D4
ENCODING 8660
SWIDTH 1200 0
DWIDTH 20 0
BBX 20 20 0 -3
BITMAP
000000
000000
000000
000000
040400
080200
100100
3FFF80
400040
800020
400040
3FFF80
100100
080200
040400
000000
000000
000000
000000
000000
ENDCHAR
STARTCHAR 2200
ENCODING 8704
SWIDTH 1200 0
DWIDTH 20 0
BBX 20 20 0 -3
BITMAP
000000
000000
400040
200080
200080
100100
1FFF00
080200
080200
040400
040400
020800
020800
011000
011000
00A000
00A000
004000
004000
000000
ENDCHAR
STARTCHAR 2202
ENCODING 8706
SWIDTH 1200 0
DWIDTH 20 0
BBX 20 20 0 -3
BITMAP
000000
000000
007000
018800
020400
000400
000400
000400
00E400
031400
040C00
040800
080800
080800
081000
081000
042000
03C000
000000
000000
ENDCHAR
STARTCHAR 2203
ENCODING 8707
SWIDTH 1200 0
DWIDTH 20 0
BBX 20 20 0 -3
BITMAP
000000
000000
0FFF00
000100
000100
000100
000100
000100
000100
0FFF00
000100
000100
000100
000100
000100
000100
0FFF00
000000
000000
000000
ENDCHAR
STARTCHAR 2207
ENCODING 8711
SWIDTH 1200 0
DWIDTH 20 0
BBX 20 20 0 -3
BITMAP
000000
000000
7FFFC0
200080
200080
100100
100100
080200
080200
040400
040400
020800
020800
011000
011000
00A000
00A000
004000
004000
000000
ENDCHAR
STARTCHAR 2208
ENCODING 8712
SWIDTH 1200 0
DWIDTH 20 0
BBX 20 20 0 -3
BITMAP
000000
000000
03FFC0
0C0000
100000
200000
200000
400000
400000
7FFFC0
400000
400000
200000
200000
100000
0C0000
03FFC0
000000
000000
000000
ENDCHAR
STARTCHAR 220B
ENCODING 8715
SWIDTH 1200 0
DWIDTH 20 0
BBX 20 20 0 -3
BITMAP
000000
000000
7FF800
000600
000100
000080
000080
000040
000040
7FFFC0
000040
000040
000080
000080
000100
000600
7FF800
000000
000000
000000
ENDCHAR
STARTCHAR 2211
ENCODING 8721
SWIDTH 1200 0
DWIDTH 20 0
BBX 20 20 0 -3
BITMAP
000000
000000
0FFF80
040000
020000
010000
008000
004000
002000
001800
002000
004000
008000
010000
020000
040000
0FFF80
000000
000000
000000
ENDCHAR
STARTCHAR 2212
ENCODING 8722
SWIDTH 1200 0
DWIDTH 20 0
BBX 20 20 0 -3
BITMAP
000000
000000
000000
000000
000000
000000
000000
000000
000000
1FFF80
000000
000000
000000
000000
000000
000000
000000
000000
000000
000000
ENDCHAR
STARTCHAR 221A
ENCODING 8730
SWIDTH 1200 0
DWIDTH 20 0
BBX 20 20 0 -3
BITMAP
003FF0
002000
002000
002000
004000
004000
004000
004000
008000
008000
008000
108000
190000
390000
4D0000
0D0000
060000
060000
020000
000000
ENDCHAR
STARTCHAR 221D
ENCODING 8733
SWIDTH 1200 0
DWIDTH 20 0
BBX 20 20 0 -3
BITMAP
000000
000000
000000
000000
000000
000000
1E0780
211840
40A000
404000
40A000
211840
1E0780
000000
000000
000000
000000
000000
000000
000000
ENDCHAR
STARTCHAR 221E
ENCODING 8734
SWIDTH 1200 0
DWIDTH 20 0
BBX 20 20 0 -3
BITMAP
000000
000000
000000
000000
000000
000000
1E0F00
211080
40A040
404040
40A040
211080
1E0F00
000000
000000
000000
000000
000000
000000
000000
ENDCHAR
STARTCHAR 221F
ENCODING 8735
SWIDTH 1200 0
DWIDTH 20 0
BBX 20 20 0 -3
BITMAP
000000
200000
200000
200000
200000
200000
200000
200000
200000
200000
200000
200000
200000
200000
200000
200000
200000
3FFFC0
000000
000000
ENDCHAR
STARTCHAR 2220
ENCODING 8736
SWIDTH 1200 0
DWIDTH 20 0
BBX 20 20 0 -3
BITMAP
000000
000000
000080
000100
000200
000400
000800
001000
002000
004000
008000
010000
020000
040000
080000
100000
200000
7FFFC0
000000
000000
ENDCHAR
STARTCHAR 2225
ENCODING 8741
SWIDTH 1200 0
DWIDTH 20 0
BBX 20 20 0 -3
BITMAP
011000
011000
011000
011000
011000
011000
011000
011000
011000
011000
011000
011000
011000
011000
011000
011000
011000
011000
011000
011000
ENDCHAR
STARTCHAR 2227
ENCODING 8743
SWIDTH 1200 0
DWIDTH 20 0
BBX 20 20 0 -3
BITMAP
000000
004000
004000
00A000
00A000
011000
011000
020800
020800
040400
040400
080200
080200
100100
100100
200080
200080
400040
000000
000000
ENDCHAR
STARTCHAR 2228
ENCODING 8744
SWIDTH 1200 0
DWIDTH 20 0
BBX 20 20 0 -3
BITMAP
000000
000000
400040
200080
200080
100100
100100
080200
080200
040400
040400
020800
020800
011000
011000
00A000
00A000
004000
004000
000000
ENDCHAR
STARTCHAR 2229
ENCODING 8745
SWIDTH 1200 0
DWIDTH 20 0
BBX 20 20 0 -3
BITMAP
000000
00F000
030C00
040200
080100
080100
100080
100080
100080
100080
100080
100080
100080
100080
100080
100080
100080
100080
000000
000000
ENDCHAR
STARTCHAR 222A
ENCODING 8746
SWIDTH 1200 0
DWIDTH 20 0
BBX 20 20 0 -3
BITMAP
000000
100080
100080
100080
100080
100080
100080
100080
100080
100080
100080
100080
100080
080100
080100
040200
030C00
00F000
000000
000000
ENDCHAR
STARTCHAR 222B
ENCODING 8747
SWIDTH 1200 0
DWIDTH 20 0
BBX 20 20 0 -3
BITMAP
007000
008800
010800
010000
010000
008000
008000
008000
004000
004000
002000
002000
001000
001000
001000
000800
000800
010800
011000
00E000
ENDCHAR
STARTCHAR 222C
ENCODING 8748
SWIDTH 1200 0
DWIDTH 20 0
BBX 20 20 0 -3
BITMAP
070E00
089100
10A100
102000
102000
081000
081000
081000
040800
040800
020400
020400
010200
010200
010200
008100
008100
10A100
112200
0E1C00
ENDCHAR
STARTCHAR 222E
ENCODING 8750
SWIDTH 1200 0
DWIDTH 20 0
BBX 20 20 0 -3
BITMAP
007000
008800
010800
010000
010000
008000
008000
00F000
014800
024400
022400
012800
00F000
001000
001000
000800
000800
010800
011000
00E000
ENDCHAR
STARTCHAR 2234
ENCODING 8756
SWIDTH 1200 0
DWIDTH 20 0
BBX 20 20 0 -3
BITMAP
000000
000000
000000
00E000
00E000
00E000
000000
000000
000000
000000
000000
000000
1C0700
1C0700
1C0700
000000
000000
000000
000000
000000
ENDCHAR
STARTCHAR 2235
ENCODING 8757
SWIDTH 1200 0
DWIDTH 20 0
BBX 20 20 0 -3
BITMAP
000000
000000
000000
000000
1C0700
1C0700
1C0700
000000
000000
000000
000000
000000
000000
00E000
00E000
00E000
000000
000000
000000
000000
ENDCHAR
STARTCHAR 223D
ENCODING 8765
SWIDTH 1200 0
DWIDTH 20 0
BBX 20 20 0 -3
BITMAP
000000
000000
000000
000000
000000
000000
1C0F00
221080
402040
404040
408040
210880
1E0700
000000
000000
000000
000000
000000
000000
000000
ENDCHAR
STARTCHAR 2252
ENCODING 8786
SWIDTH 1200 0
DWIDTH 20 0
BBX 20 20 0 -3
BITMAP
000000
000000
000000
060000
060000
000000
000000
3FFFC0
000000
000000
000000
3FFFC0
000000
000000
000600
000600
000000
000000
000000
000000
ENDCHAR
STARTCHAR 2260
ENCODING 8800
SWIDTH 1200 0
DWIDTH 20 0
BBX 20 20 0 -3
BITMAP
000000
000000
000000
001000
001000
002000
002000
1FFF00
002000
004000
004000
1FFF00
008000
008000
010000
010000
000000
000000
000000
000000
ENDCHAR
STARTCHAR 2261
ENCODING 8801
SWIDTH 1200 0
DWIDTH 20 0
BBX 20 20 0 -3
BITMAP
000000
000000
000000
000000
000000
1FFF80
000000
000000
000000
1FFF80
000000
000000
000000
1FFF80
000000
000000
000000
000000
000000
000000
ENDCHAR
STARTCHAR 2266
ENCODING 8806
SWIDTH 1200 0
DWIDTH 20 0
BBX 20 20 0 -3
BITMAP
000000
000180
000E00
003000
01C000
060000
380000
060000
01C000
003000
000E00
000180
000000
3FFF80
000000
000000
3FFF80
000000
000000
000000
ENDCHAR
STARTCHAR 2267
ENCODING 8807
SWIDTH 1200 0
DWIDTH 20 0
BBX 20 20 0 -3
BITMAP
000000
300000
0E0000
018000
007000
000C00
000380
000C00
007000
018000
0E0000
300000
000000
3FFF80
000000
000000
3FFF80
000000
000000
000000
ENDCHAR
STARTCHAR 226A
ENCODING 8810
SWIDTH 1200 0
DWIDTH 20 0
BBX 20 20 0 -3
BITMAP
000000
000420
000840
003180
004200
018C00
021000
0C6000
108000
630000
108000
0C6000
021000
018C00
004200
003180
000840
000420
000000
000000
ENDCHAR
STARTCHAR 226B
ENCODING 8811
SWIDTH 1200 0
DWIDTH 20 0
BBX 20 20 0 -3
BITMAP
000000
420000
210000
18C000
042000
031800
008400
006300
001080
000C60
001080
006300
008400
031800
042000
18C000
210000
420000
000000
000000
ENDCHAR
STARTCHAR 2282
ENCODING 8834
SWIDTH 1200 0
DWIDTH 20 0
BBX 20 20 0 -3
BITMAP
000000
000000
000000
03FFC0
0C0000
100000
200000
200000
400000
400000
400000
400000
200000
200000
100000
0C0000
03FFC0
000000
000000
000000
ENDCHAR
STARTCHAR 2283
ENCODING 8835
SWIDTH 1200 0
DWIDTH 20 0
BBX 20 20 0 -3
BITMAP
000000
000000
000000
7FF800
000600
000100
000080
000080
000040
000040
000040
000040
000080
000080
000100
000600
7FF800
000000
000000
000000
ENDCHAR
STARTCHAR 2286
ENCODING 8838
SWIDTH 1200 0
DWIDTH 20 0
BBX 20 20 0 -3
BITMAP
000000
000000
07FFC0
180000
200000
200000
400000
400000
400000
200000
200000
180000
07FFC0
000000
000000
000000
7FFFC0
000000
000000
000000
ENDCHAR
STARTCHAR 2287
ENCODING 8839
SWIDTH 1200 0
DWIDTH 20 0
BBX 20 20 0 -3
BITMAP
000000
000000
7FFC00
000300
000080
000080
000040
000040
000040
000080
000080
000300
7FFC00
000000
000000
000000
7FFFC0
000000
000000
000000
ENDCHAR
STARTCHAR 22A5
ENCODING 8869
SWIDTH 1200 0
DWIDTH 20 0
BBX 20 20 0 -3
BITMAP
000000
004000
004000
004000
004000
004000
004000
004000
004000
004000
004000
004000
004000
004000
004000
004000
004000
7FFFC0
000000
000000
ENDCHAR
STARTCHAR 22BF
ENCODING 8895
SWIDTH 1200 0
DWIDTH 20 0
BBX 20 20 0 -3
BITMAP
000000
000040
0000C0
000140
000240
000440
000840
001040
002040
004040
008040
010040
020040
040040
080040
100040
200040
7FFFC0
000000
000000
ENDCHAR
STARTCHAR 2312
ENCODING 8978
SWIDTH 1200 0
DWIDTH 20 0
BBX 20 20 0 -3
BITMAP
000000
000000
03FC00
0C0300
100080
200040
400020
400020
000000
000000
000000
000000
000000
000000
000000
000000
000000
000000
000000
000000
ENDCHAR
STARTCHAR 2460
ENCODING 9312
SWIDTH 1200 0
DWIDTH 20 0
BBX 20 20 0 -3
BITMAP
03F800
0C0600
100100
204080
41C040
404040
804020
804020
804020
804020
804020
804020
804020
404040
404040
204080
100100
0C0600
03F800
000000
ENDCHAR
STARTCHAR 2461
ENCODING 9313
SWIDTH 1200 0
DWIDTH 20 0
BBX 20 20 0 -3
BITMAP
03F800
0C0600
100100
20E080
411040
420840
820820
800820
801020
801020
802020
804020
808020
410040
420040
23F880
100100
0C0600
03F800
000000
ENDCHAR
STARTCHAR 2462
ENCODING 9314
SWIDTH 1200 0
DWIDTH 20 0
BBX 20 20 0 -3
BITMAP
03F800
0C0600
100100
20E080
411040
420840
820820
801020
806020
801020
800820
800820
820820
420840
411040
20E080
100100
0C0600
03F800
000000
ENDCHAR
STARTCHAR 2463
ENCODING 9315
SWIDTH 1200 0
DWIDTH 20 0
BBX 20 20 0 -3
BITMAP
03F800
0C0600
100100
202080
406040
40A040
80A020
812020
822020
822020
842020
8FFC20
802020
402040
402040
202080
100100
0C0600
03F800
000000
ENDCHAR
STARTCHAR 2464
ENCODING 9316
SWIDTH 1200 0
DWIDTH 20 0
BBX 20 20 0 -3
BITMAP
03F800
0C0600
100100
21F880
410040
410040
810020
820020
83E020
821020
800820
800820
800820
420840
421040
21E080
100100
0C0600
03F800
000000
ENDCHAR
STARTCHAR 2465
ENCODING 9317
SWIDTH 1200 0
DWIDTH 20 0
BBX 20 20 0 -3
BITMAP
03F800
0C0600
100100
20E080
411040
420840
820020
820020
82E020
831020
820820
820820
820820
420840
411040
20E080
100100
0C0600
03F800
000000
ENDCHAR
STARTCHAR 2466
ENCODING 9318
SWIDTH 1200 0
DWIDTH 20 0
BBX 20 20 0 -3
BITMAP
03F800
0C0600
100100
23F880
400840
400840
801020
801020
802020
802020
802020
804020
804020
404040
404040
204080
100100
0C0600
03F800
000000
ENDCHAR
STARTCHAR 2467
ENCODING 9319
SWIDTH 1200 0
DWIDTH 20 0
BBX 20 20 0 -3
BITMAP
03F800
0C0600
100100
20E080
411040
420840
820820
811020
80E020
811020
820820
820820
820820
420840
411040
20E080
100100
0C0600
03F800
000000
ENDCHAR
STARTCHAR 2468
ENCODING 9320
SWIDTH 1200 0
DWIDTH 20 0
BBX 20 20 0 -3
BITMAP
03F800
0C0600
100100
20E080
411040
420840
820820
820820
820820
811820
80E820
800820
800820
420840
411040
20E080
100100
0C0600
03F800
000000
ENDCHAR
STARTCHAR 2469
ENCODING 9321
SWIDTH 1200 0
DWIDTH 20 0
BBX 20 20 0 -3
BITMAP
03F800
0C0600
100100
221880
4E2440
422440
824220
824220
824220
824220
824220
824220
824220
422440
422440
221880
100100
0C0600
03F800
000000
ENDCHAR
STARTCHAR 246A
ENCODING 9322
SWIDTH 1200 0
DWIDTH 20 0
BBX 20 20 0 -3
BITMAP
03F800
0C0600
100100
220880
4E3840
420840
820820
820820
820820
820820
820820
820820
820820
420840
420840
220880
100100
0C0600
03F800
000000
ENDCHAR
STARTCHAR 246B
ENCODING 9323
SWIDTH 1200 0
DWIDTH 20 0
BBX 20 20 0 -3
BITMAP
03F800
0C0600
100100
223880
4E4440
424440
824420
820420
820820
820820
821020
821020
822020
422040
424040
227C80
100100
0C0600
03F800
000000
ENDCHAR
STARTCHAR 246C
ENCODING 9324
SWIDTH 1200 0
DWIDTH 20 0
BBX 20 20 0 -3
BITMAP
03F800
0C0600
100100
221880
4E2440
424240
824220
820220
820420
821820
820420
820220
824220
424240
422440
221880
100100
0C0600
03F800
000000
ENDCHAR
STARTCHAR 246D
ENCODING 9325
SWIDTH 1200 0
DWIDTH 20 0
BBX 20 20 0 -3
BITMAP
03F800
0C0600
100100
220880
4E0840
421840
821820
822820
822820
824820
824820
82FE20
820820
420840
420840
220880
100100
0C0600
03F800
000000
ENDCHAR
STARTCHAR 246E
ENCODING 9326
SWIDTH 1200 0
DWIDTH 20 0
BBX 20 20 0 -3
BITMAP
03F800
0C0600
100100
227C80
4E4040
424040
824020
824020
827820
824420
820220
820220
820220
424240
424440
223880
100100
0C0600
03F800
000000
ENDCHAR
STARTCHAR 246F
ENCODING 9327
SWIDTH 1200 0
DWIDTH 20 0
BBX 20 20 0 -3
BITMAP
03F800
0C0600
100100
221880
4E2440
424240
824020
824020
825820
826420
824220
824220
824220
424240
422440
221880
100100
0C0600
03F800
000000
ENDCHAR
STARTCHAR 2470
ENCODING 9328
SWIDTH 1200 0
DWIDTH 20 0
BBX 20 20 0 -3
BITMAP
03F800
0C0600
100100
227E80
4E0240
420440
820420
820820
820820
820820
820820
821020
821020
421040
421040
221080
100100
0C0600
03F800
000000
ENDCHAR
STARTCHAR 2471
ENCODING 9329
SWIDTH 1200 0
DWIDTH 20 0
BBX 20 20 0 -3
BITMAP
03F800
0C0600
100100
221880
4E2440
424240
824220
822420
821820
822420
824220
824220
824220
424240
422440
221880
100100
0C0600
03F800
000000
ENDCHAR
STARTCHAR 2472
ENCODING 9330
SWIDTH 1200 0
DWIDTH 20 0
BBX 20 20 0 -3
BITMAP
03F800
0C0600
100100
221880
4E2440
424240
824220
824220
824220
822620
821A20
820220
820220
424240
424440
223880
100100
0C0600
03F800
000000
ENDCHAR
STARTCHAR 2473
ENCODING 9331
SWIDTH 1200 0
DWIDTH 20 0
BBX 20 20 0 -3
BITMAP
03F800
0C0600
100100
271C80
48A240
48A240
88A220
812220
812220
822220
822220
842220
842220
482240
482240
2F9C80
100100
0C0600
03F800
000000
ENDCHAR
STARTCHAR 2500
ENCODING 9472
SWIDTH 1200 0
DWIDTH 20 0
BBX 20 20 0 -3
BITMAP
000000
000000
000000
000000
000000
000000
000000
000000
000000
FFFFF0
000000
000000
000000
000000
000000
000000
000000
000000
000000
000000
ENDCHAR
STARTCHAR 2501
ENCODING 9473
SWIDTH 1200 0
DWIDTH 20 0
BBX 20 20 0 -3
BITMAP
000000
000000
000000
000000
000000
000000
000000
000000
000000
FFFFF0
FFFFF0
000000
000000
000000
000000
000000
000000
000000
000000
000000
ENDCHAR
STARTCHAR 2502
ENCODING 9474
SWIDTH 1200 0
DWIDTH 20 0
BBX 20 20 0 -3
BITMAP
004000
004000
004000
004000
004000
004000
004000
004000
004000
004000
004000
004000
004000
004000
004000
004000
004000
004000
004000
004000
ENDCHAR
STARTCHAR 2503
ENCODING 9475
SWIDTH 1200 0
DWIDTH 20 0
BBX 20 20 0 -3
BITMAP
006000
006000
006000
006000
006000
006000
006000
006000
006000
006000
006000
006000
006000
006000
006000
006000
006000
006000
006000
006000
ENDCHAR
STARTCHAR 250C
ENCODING 9484
SWIDTH 1200 0
DWIDTH 20 0
BBX 20 20 0 -3
BITMAP
000000
000000
000000
000000
000000
000000
000000
000000
000000
007FF0
004000
004000
004000
004000
004000
004000
004000
004000
004000
004000
ENDCHAR
STARTCHAR 250F
ENCODING 9487
SWIDTH 1200 0
DWIDTH 20 0
BBX 20 20 0 -3
BITMAP
000000
000000
000000
000000
000000
000000
000000
000000
000000
007FF0
007FF0
006000
006000
006000
006000
006000
006000
006000
006000
006000
ENDCHAR
STARTCHAR 2510
ENCODING 9488
SWIDTH 1200 0
DWIDTH 20 0
BBX 20 20 0 -3
BITMAP
000000
000000
000000
000000
000000
000000
000000
000000
000000
FFC000
004000
004000
004000
004000
004000
004000
004000
004000
004000
004000
ENDCHAR
STARTCHAR 2513
ENCODING 9491
SWIDTH 1200 0
DWIDTH 20 0
BBX 20 20 0 -3
BITMAP
000000
000000
000000
000000
000000
000000
000000
000000
000000
FFE000
FFE000
006000
006000
006000
006000
006000
006000
006000
006000
006000
ENDCHAR
STARTCHAR 2514
ENCODING 9492
SWIDTH 1200 0
DWIDTH 20 0
BBX 20 20 0 -3
BITMAP
004000
004000
004000
004000
004000
004000
004000
004000
004000
007FF0
000000
000000
000000
000000
000000
000000
000000
000000
000000
000000
ENDCHAR
STARTCHAR 2517
ENCODING 9495
SWIDTH 1200 0
DWIDTH 20 0
BBX 20 20 0 -3
BITMAP
006000
006000
006000
006000
006000
006000
006000
006000
006000
007FF0
007FF0
000000
000000
000000
000000
000000
000000
000000
000000
000000
ENDCHAR
STARTCHAR 2518
ENCODING 9496
SWIDTH 1200 0
DWIDTH 20 0
BBX 20 20 0 -3
BITMAP
004000
004000
004000
004000
004000
004000
004000
004000
004000
FFC000
000000
000000
000000
000000
000000
000000
000000
000000
000000
000000
ENDCHAR
STARTCHAR 251B
ENCODING 9499
SWIDTH 1200 0
DWIDTH 20 0
BBX 20 20 0 -3
BITMAP
006000
006000
006000
006000
006000
006000
006000
006000
006000
FFE000
FFE000
000000
000000
000000
000000
000000
000000
000000
000000
000000
ENDCHAR
STARTCHAR 251C
ENCODING 9500
SWIDTH 1200 0
DWIDTH 20 0
BBX 20 20 0 -3
BITMAP
004000
004000
004000
004000
004000
004000
004000
004000
004000
007FF0
004000
004000
004000
004000
004000
004000
004000
004000
004000
004000
ENDCHAR
STARTCHAR 251D
ENCODING 9501
SWIDTH 1200 0
DWIDTH 20 0
BBX 20 20 0 -3
BITMAP
004000
004000
004000
004000
004000
004000
004000
004000
004000
007FF0
007FF0
004000
004000
004000
004000
004000
004000
004000
004000
004000
ENDCHAR
STARTCHAR 2520
ENCODING 9504
SWIDTH 1200 0
DWIDTH 20 0
BBX 20 20 0 -3
BITMAP
006000
006000
006000
006000
006000
006000
006000
006000
006000
007FF0
006000
006000
006000
006000
006000
006000
006000
006000
006000
006000
ENDCHAR
STARTCHAR 2523
ENCODING 9507
SWIDTH 1200 0
DWIDTH 20 0
BBX 20 20 0 -3
BITMAP
006000
006000
006000
006000
006000
006000
006000
006000
006000
007FF0
007FF0
006000
006000
006000
006000
006000
006000
006000
006000
006000
ENDCHAR
STARTCHAR 2524
ENCODING 9508
SWIDTH 1200 0
DWIDTH 20 0
BBX 20 20 0 -3
BITMAP
004000
004000
004000
004000
004000
004000
004000
004000
004000
FFC000
004000
004000
004000
004000
004000
004000
004000
004000
004000
004000
ENDCHAR
STARTCHAR 2525
ENCODING 9509
SWIDTH 1200 0
DWIDTH 20 0
BBX 20 20 0 -3
BITMAP
004000
004000
004000
004000
004000
004000
004000
004000
004000
FFC000
FFC000
004000
004000
004000
004000
004000
004000
004000
004000
004000
ENDCHAR
STARTCHAR 2528
ENCODING 9512
SWIDTH 1200 0
DWIDTH 20 0
BBX 20 20 0 -3
BITMAP
006000
006000
006000
006000
006000
006000
006000
006000
006000
FFE000
006000
006000
006000
006000
006000
006000
006000
006000
006000
006000
ENDCHAR
STARTCHAR 252B
ENCODING 9515
SWIDTH 1200 0
DWIDTH 20 0
BBX 20 20 0 -3
BITMAP
006000
006000
006000
006000
006000
006000
006000
006000
006000
FFE000
FFE000
006000
006000
006000
006000
006000
006000
006000
006000
006000
ENDCHAR
STARTCHAR 252C
ENCODING 9516
SWIDTH 1200 0
DWIDTH 20 0
BBX 20 20 0 -3
BITMAP
000000
000000
000000
000000
000000
000000
000000
000000
000000
FFFFF0
004000
004000
004000
004000
004000
004000
004000
004000
004000
004000
ENDCHAR
STARTCHAR 252F
ENCODING 9519
SWIDTH 1200 0
DWIDTH 20 0
BBX 20 20 0 -3
BITMAP
000000
000000
000000
000000
000000
000000
000000
000000
000000
FFFFF0
FFFFF0
004000
004000
004000
004000
004000
004000
004000
004000
004000
ENDCHAR
STARTCHAR 2530
ENCODING 9520
SWIDTH 1200 0
DWIDTH 20 0
BBX 20 20 0 -3
BITMAP
000000
000000
000000
000000
000000
000000
000000
000000
000000
FFFFF0
006000
006000
006000
006000
006000
006000
006000
006000
006000
006000
ENDCHAR
STARTCHAR 2533
ENCODING 9523
SWIDTH 1200 0
DWIDTH 20 0
BBX 20 20 0 -3
BITMAP
000000
000000
000000
000000
000000
000000
000000
000000
000000
FFFFF0
FFFFF0
006000
006000
006000
006000
006000
006000
006000
006000
006000
ENDCHAR
STARTCHAR 2534
ENCODING 9524
SWIDTH 1200 0
DWIDTH 20 0
BBX 20 20 0 -3
BITMAP
004000
004000
004000
004000
004000
004000
004000
004000
004000
FFFFF0
000000
000000
000000
000000
000000
000000
000000
000000
000000
000000
ENDCHAR
STARTCHAR 2537
ENCODING 9527
SWIDTH 1200 0
DWIDTH 20 0
BBX 20 20 0 -3
BITMAP
004000
004000
004000
004000
004000
004000
004000
004000
004000
FFFFF0
FFFFF0
000000
000000
000000
000000
000000
000000
000000
000000
000000
ENDCHAR
STARTCHAR 2538
ENCODING 9528
SWIDTH 1200 0
DWIDTH 20 0
BBX 20 20 0 -3
BITMAP
006000
006000
006000
006000
006000
006000
006000
006000
006000
FFFFF0
000000
000000
000000
000000
000000
000000
000000
000000
000000
000000
ENDCHAR
STARTCHAR 253B
ENCODING 9531
SWIDTH 1200 0
DWIDTH 20 0
BBX 20 20 0 -3
BITMAP
006000
006000
006000
006000
006000
006000
006000
006000
006000
FFFFF0
FFFFF0
000000
000000
000000
000000
000000
000000
000000
000000
000000
ENDCHAR
STARTCHAR 253C
ENCODING 9532
SWIDTH 1200 0
DWIDTH 20 0
BBX 20 20 0 -3
BITMAP
004000
004000
004000
004000
004000
004000
004000
004000
004000
FFFFF0
004000
004000
004000
004000
004000
004000
004000
004000
004000
004000
ENDCHAR
STARTCHAR 253F
ENCODING 9535
SWIDTH 1200 0
DWIDTH 20 0
BBX 20 20 0 -3
BITMAP
004000
004000
004000
004000
004000
004000
004000
004000
004000
FFFFF0
FFFFF0
004000
004000
004000
004000
004000
004000
004000
004000
004000
ENDCHAR
STARTCHAR 2542
ENCODING 9538
SWIDTH 1200 0
DWIDTH 20 0
BBX 20 20 0 -3
BITMAP
006000
006000
006000
006000
006000
006000
006000
006000
006000
FFFFF0
006000
006000
006000
006000
006000
006000
006000
006000
006000
006000
ENDCHAR
STARTCHAR 254B
ENCODING 9547
SWIDTH 1200 0
DWIDTH 20 0
BBX 20 20 0 -3
BITMAP
006000
006000
006000
006000
006000
006000
006000
006000
006000
FFFFF0
FFFFF0
006000
006000
006000
006000
006000
006000
006000
006000
006000
ENDCHAR
STARTCHAR 25A0
ENCODING 9632
SWIDTH 1200 0
DWIDTH 20 0
BBX 20 20 0 -3
BITMAP
000000
7FFFC0
7FFFC0
7FFFC0
7FFFC0
7FFFC0
7FFFC0
7FFFC0
7FFFC0
7FFFC0
7FFFC0
7FFFC0
7FFFC0
7FFFC0
7FFFC0
7FFFC0
7FFFC0
7FFFC0
000000
000000
ENDCHAR
STARTCHAR 25A1
ENCODING 9633
SWIDTH 1200 0
DWIDTH 20 0
BBX 20 20 0 -3
BITMAP
000000
7FFFC0
400040
400040
400040
400040
400040
400040
400040
400040
400040
400040
400040
400040
400040
400040
400040
7FFFC0
000000
000000
ENDCHAR
STARTCHAR 25B2
ENCODING 9650
SWIDTH 1200 0
DWIDTH 20 0
BBX 20 20 0 -3
BITMAP
000000
006000
006000
00F000
00F000
01F800
01F800
03FC00
03FC00
07FE00
07FE00
0FFF00
0FFF00
1FFF80
1FFF80
3FFFC0
3FFFC0
000000
000000
000000
ENDCHAR
STARTCHAR 25B3
ENCODING 9651
SWIDTH 1200 0
DWIDTH 20 0
BBX 20 20 0 -3
BITMAP
000000
006000
006000
009000
009000
010800
010800
020400
020400
040200
040200
080100
080100
100080
100080
200040
3FFFC0
000000
000000
000000
ENDCHAR
STARTCHAR 25BC
ENCODING 9660
SWIDTH 1200 0
DWIDTH 20 0
BBX 20 20 0 -3
BITMAP
000000
000000
3FFFC0
3FFFC0
1FFF80
1FFF80
0FFF00
0FFF00
07FE00
07FE00
03FC00
03FC00
01F800
01F800
00F000
00F000
006000
006000
000000
000000
ENDCHAR
STARTCHAR 25BD
ENCODING 9661
SWIDTH 1200 0
DWIDTH 20 0
BBX 20 20 0 -3
BITMAP
000000
000000
3FFFC0
200040
100080
100080
080100
080100
040200
040200
020400
020400
010800
010800
009000
009000
006000
006000
000000
000000
ENDCHAR
STARTCHAR 25C6
ENCODING 9670
SWIDTH 1200 0
DWIDTH 20 0
BBX 20 20 0 -3
BITMAP
000000
004000
00E000
01F000
03F800
07FC00
0FFE00
1FFF00
3FFF80
7FFFC0
7FFFC0
3FFF80
1FFF00
0FFE00
07FC00
03F800
01F000
00E000
004000
000000
ENDCHAR
STARTCHAR 25C7
ENCODING 9671
SWIDTH 1200 0
DWIDTH 20 0
BBX 20 20 0 -3
BITMAP
000000
004000
00A000
011000
020800
040400
080200
100100
200080
400040
400040
200080
100100
080200
040400
020800
011000
00A000
004000
000000
ENDCHAR
STARTCHAR 25CB
ENCODING 9675
SWIDTH 1200 0
DWIDTH 20 0
BBX 20 20 0 -3
BITMAP
000000
01F800
060600
080100
100080
200040
200040
400020
400020
400020
400020
400020
400020
200040
200040
100080
080100
060600
01F800
000000
ENDCHAR
STARTCHAR 25CE
ENCODING 9678
SWIDTH 1200 0
DWIDTH 20 0
BBX 20 20 0 -3
BITMAP
000000
01F800
060600
080100
106080
219840
220440
440220
440220
480120
480120
440220
440220
220440
219840
106080
080100
060600
01F800
000000
ENDCHAR
STARTCHAR 25CF
ENCODING 9679
SWIDTH 1200 0
DWIDTH 20 0
BBX 20 20 0 -3
BITMAP
000000
01F800
07FE00
0FFF00
1FFF80
3FFFC0
3FFFC0
7FFFE0
7FFFE0
7FFFE0
7FFFE0
7FFFE0
7FFFE0
3FFFC0
3FFFC0
1FFF80
0FFF00
07FE00
01F800
000000
ENDCHAR
STARTCHAR 25EF
ENCODING 9711
SWIDTH 1200 0
DWIDTH 20 0
BBX 20 20 0 -3
BITMAP
03F800
0C0600
100100
200080
400040
400040
800020
800020
800020
800020
800020
800020
800020
400040
400040
200080
100100
0C0600
03F800
000000
ENDCHAR
STARTCHAR 2605
ENCODING 9733
SWIDTH 1200 0
DWIDTH 20 0
BBX 20 20 0 -3
BITMAP
004000
004000
00E000
00E000
00E000
01F000
01F000
FFFFE0
7FFFC0
3FFF80
1FFF00
0FFE00
0FFE00
0FFE00
1FBF00
1F1F00
1C0700
380380
200080
000000
ENDCHAR
STARTCHAR 2606
ENCODING 9734
SWIDTH 1200 0
DWIDTH 20 0
BBX 20 20 0 -3
BITMAP
004000
004000
00A000
00A000
00A000
011000
011000
FE0FE0
400040
200080
100100
080200
080200
084200
10A100
131900
240480
380380
200080
000000
ENDCHAR
STARTCHAR 2640
ENCODING 9792
SWIDTH 1200 0
DWIDTH 20 0
BBX 20 20 0 -3
BITMAP
000000
01F000
020800
040400
040400
040400
040400
040400
020800
01F000
004000
004000
1FFF00
004000
004000
004000
004000
004000
000000
000000
ENDCHAR
STARTCHAR 2642
ENCODING 9794
SWIDTH 1200 0
DWIDTH 20 0
BBX 20 20 0 -3
BITMAP
000000
000000
000000
003FC0
0000C0
000140
000240
000440
000840
001040
07A040
084000
102000
102000
102000
102000
084000
078000
000000
000000
ENDCHAR
STARTCHAR 266A
ENCODING 9834
SWIDTH 1200 0
DWIDTH 20 0
BBX 20 20 0 -3
BITMAP
000000
004000
006000
007000
007000
005800
004C00
004600
004200
004300
004100
004100
004200
01C400
07C000
0FC000
0F8000
070000
000000
000000
ENDCHAR
STARTCHAR 266D
ENCODING 9837
SWIDTH 1200 0
DWIDTH 20 0
BBX 20 20 0 -3
BITMAP
000000
010000
010000
010000
010000
010000
010000
010000
013800
014400
018200
010200
010200
010400
010800
011000
016000
018000
010000
000000
ENDCHAR
STARTCHAR 266F
ENCODING 9839
SWIDTH 1200 0
DWIDTH 20 0
BBX 20 20 0 -3
BITMAP
000000
000800
010800
010800
010800
010F00
01F800
0F0800
010800
010800
010800
010F00
01F800
0F0800
010800
010800
010800
010800
010000
000000
ENDCHAR
STARTCHAR 3000
ENCODING 12288
SWIDTH 1200 0
DWIDTH 20 0
BBX 20 20 0 -3
BITMAP
000000
000000
000000
000000
000000
000000
000000
000000
000000
000000
000000
000000
000000
000000
000000
000000
000000
000000
000000
000000
ENDCHAR
STARTCHAR 3001
ENCODING 12289
SWIDTH 1200 0
DWIDTH 20 0
BBX 20 20 0 -3
BITMAP
000000
000000
000000
000000
000000
000000
000000
000000
000000
000000
000000
000000
000000
000000
200000
100000
080000
040000
000000
000000
ENDCHAR
STARTCHAR 3002
ENCODING 12290
SWIDTH 1200 0
DWIDTH 20 0
BBX 20 20 0 -3
BITMAP
000000
000000
000000
000000
000000
000000
000000
000000
000000
000000
000000
000000
000000
000000
380000
440000
440000
440000
380000
000000
ENDCHAR
STARTCHAR 3003
ENCODING 12291
SWIDTH 1200 0
DWIDTH 20 0
BBX 20 20 0 -3
BITMAP
000000
000000
000000
000000
000000
000000
008400
008400
008400
010800
010800
021000
021000
042000
000000
000000
000000
000000
000000
000000
ENDCHAR
STARTCHAR 3005
ENCODING 12293
SWIDTH 1200 0
DWIDTH 20 0
BBX 20 20 0 -3
BITMAP
000000
000000
000000
004000
004000
008000
008000
01FE00
010200
020200
040400
080400
100800
00D000
002000
001000
000800
000400
000000
000000
ENDCHAR
STARTCHAR 3006
ENCODING 12294
SWIDTH 1200 0
DWIDTH 20 0
BBX 20 20 0 -3
BITMAP
000000
000000
000000
0000C0
000100
000200
000400
038800
045000
082000
085000
108800
110800
120000
240000
280000
300000
200000
000000
000000
ENDCHAR
STARTCHAR 3007
ENCODING 12295
SWIDTH 1200 0
DWIDTH 20 0
BBX 20 20 0 -3
BITMAP
000000
01F800
060600
080100
100080
200040
200040
400020
400020
400020
400020
400020
400020
200040
200040
100080
080100
060600
01F800
000000
ENDCHAR
STARTCHAR 3008
ENCODING 12296
SWIDTH 1200 0
DWIDTH 20 0
BBX 20 20 0 -3
BITMAP
000000
000040
000080
000100
000200
000400
000800
001000
002000
004000
004000
002000
001000
000800
000400
000200
000100
000080
000040
000000
ENDCHAR
STARTCHAR 3009
ENCODING 12297
SWIDTH 1200 0
DWIDTH 20 0
BBX 20 20 0 -3
BITMAP
000000
200000
100000
080000
040000
020000
010000
008000
004000
002000
002000
004000
008000
010000
020000
040000
080000
100000
200000
000000
ENDCHAR
STARTCHAR 300A
ENCODING 12298
SWIDTH 1200 0
DWIDTH 20 0
BBX 20 20 0 -3
BITMAP
000000
000440
000880
001100
002200
004400
008800
011000
022000
044000
044000
022000
011000
008800
004400
002200
001100
000880
000440
000000
ENDCHAR
STARTCHAR 300B
ENCODING 12299
SWIDTH 1200 0
DWIDTH 20 0
BBX 20 20 0 -3
BITMAP
000000
220000
110000
088000
044000
022000
011000
008800
004400
002200
002200
004400
008800
011000
022000
044000
088000
110000
220000
000000
ENDCHAR
STARTCHAR 300C
ENCODING 12300
SWIDTH 1200 0
DWIDTH 20 0
BBX 20 20 0 -3
BITMAP
000000
000FC0
000800
000800
000800
000800
000800
000800
000800
000800
000800
000800
000800
000800
000000
000000
000000
000000
000000
000000
ENDCHAR
STARTCHAR 300D
ENCODING 12301
SWIDTH 1200 0
DWIDTH 20 0
BBX 20 20 0 -3
BITMAP
000000
000000
000000
000000
000000
000000
010000
010000
010000
010000
010000
010000
010000
010000
010000
010000
010000
010000
3F0000
000000
ENDCHAR
STARTCHAR 300E
ENCODING 12302
SWIDTH 1200 0
DWIDTH 20 0
BBX 20 20 0 -3
BITMAP
001FE0
001020
001020
0013E0
001200
001200
001200
001200
001200
001200
001200
001200
001200
001200
001E00
000000
000000
000000
000000
000000
ENDCHAR
STARTCHAR 300F
ENCODING 12303
SWIDTH 1200 0
DWIDTH 20 0
BBX 20 20 0 -3
BITMAP
000000
000000
000000
000000
078000
048000
048000
048000
048000
048000
048000
048000
048000
048000
048000
7C8000
408000
408000
7F8000
000000
ENDCHAR
STARTCHAR 3010
ENCODING 12304
SWIDTH 1200 0
DWIDTH 20 0
BBX 20 20 0 -3
BITMAP
0007E0
0007C0
000780
000700
000700
000600
000600
000600
000600
000600
000600
000600
000600
000600
000700
000700
000780
0007C0
0007E0
000000
ENDCHAR
STARTCHAR 3011
ENCODING 12305
SWIDTH 1200 0
DWIDTH 20 0
BBX 20 20 0 -3
BITMAP
7E0000
3E0000
1E0000
0E0000
0E0000
060000
060000
060000
060000
060000
060000
060000
060000
060000
0E0000
0E0000
1E0000
3E0000
7E0000
000000
ENDCHAR
STARTCHAR 3012
ENCODING 12306
SWIDTH 1200 0
DWIDTH 20 0
BBX 20 20 0 -3
BITMAP
000000
000000
3FFF80
000000
000000
000000
000000
3FFF80
004000
004000
004000
004000
004000
004000
004000
004000
004000
004000
000000
000000
ENDCHAR
STARTCHAR 3013
ENCODING 12307
SWIDTH 1200 0
DWIDTH 20 0
BBX 20 20 0 -3
BITMAP
000000
000000
000000
000000
000000
1FFF80
1FFF80
1FFF80
000000
000000
000000
1FFF80
1FFF80
1FFF80
000000
000000
000000
000000
000000
000000
ENDCHAR
STARTCHAR 3014
ENCODING 12308
SWIDTH 1200 0
DWIDTH 20 0
BBX 20 20 0 -3
BITMAP
000000
0000C0
000300
000400
000400
000400
000400
000400
000400
000400
000400
000400
000400
000400
000400
000400
000400
000300
0000C0
000000
ENDCHAR
STARTCHAR 3015
ENCODING 12309
SWIDTH 1200 0
DWIDTH 20 0
BBX 20 20 0 -3
BITMAP
000000
300000
0C0000
030000
010000
010000
010000
010000
010000
010000
010000
010000
010000
010000
010000
010000
030000
0C0000
300000
000000
ENDCHAR
STARTCHAR 301C
ENCODING 12316
SWIDTH 1200 0
DWIDTH 20 0
BBX 20 20 0 -3
BITMAP
000000
000000
000000
000000
000000
000000
000000
000000
070000
18C020
202040
401980
000600
000000
000000
000000
000000
000000
000000
000000
ENDCHAR
STARTCHAR 301D
ENCODING 12317
SWIDTH 1200 0
DWIDTH 20 0
BBX 20 20 0 -3
BITMAP
000000
000360
000240
0006C0
000480
000000
000000
000000
000000
000000
000000
000000
000000
000000
000000
000000
000000
000000
000000
000000
ENDCHAR
STARTCHAR 301F
ENCODING 12319
SWIDTH 1200 0
DWIDTH 20 0
BBX 20 20 0 -3
BITMAP
000000
000000
000000
000000
000000
000000
000000
000000
000000
000000
000000
000000
000000
000000
000000
360000
240000
6C0000
480000
000000
ENDCHAR
STARTCHAR 3041
ENCODING 12353
SWIDTH 1200 0
DWIDTH 20 0
BBX 20 20 0 -3
BITMAP
000000
000000
000000
000000
000000
000000
008000
009000
07E000
011000
011000
01F800
032600
052200
054100
088100
098200
064600
001800
000000
ENDCHAR
STARTCHAR 3042
ENCODING 12354
SWIDTH 1200 0
DWIDTH 20 0
BBX 20 20 0 -3
BITMAP
000000
010000
010000
010000
010000
1FFC00
020000
020800
020800
02FC00
071300
0A1080
122080
212040
214040
218080
228080
1C4300
001C00
000000
ENDCHAR
STARTCHAR 3043
ENCODING 12355
SWIDTH 1200 0
DWIDTH 20 0
BBX 20 20 0 -3
BITMAP
000000
000000
000000
000000
000000
000000
000000
000000
080400
080200
080200
080100
080100
080100
040100
048000
030000
010000
000000
000000
ENDCHAR
STARTCHAR 3044
ENCODING 12356
SWIDTH 1200 0
DWIDTH 20 0
BBX 20 20 0 -3
BITMAP
000000
000000
000000
100000
100000
100200
200100
200080
200080
200040
200040
200040
200040
120000
120000
0C0000
040000
000000
000000
000000
ENDCHAR
STARTCHAR 3045
ENCODING 12357
SWIDTH 1200 0
DWIDTH 20 0
BBX 20 20 0 -3
BITMAP
000000
000000
000000
000000
000000
000000
01C000
003000
000000
00E000
071000
000800
000800
000800
001000
001000
002000
00C000
000000
000000
ENDCHAR
STARTCHAR 3046
ENCODING 12358
SWIDTH 1200 0
DWIDTH 20 0
BBX 20 20 0 -3
BITMAP
000000
018000
007000
000C00
000000
000000
00F800
0F0600
000200
000100
000100
000100
000100
000200
000200
000400
000800
003000
00C000
000000
ENDCHAR
STARTCHAR 3047
ENCODING 12359
SWIDTH 1200 0
DWIDTH 20 0
BBX 20 20 0 -3
BITMAP
000000
000000
000000
000000
000000
018000
006000
000000
000000
00F800
071000
002000
004000
00A000
012000
022000
042000
081E00
000000
000000
ENDCHAR
STARTCHAR 3048
ENCODING 12360
SWIDTH 1200 0
DWIDTH 20 0
BBX 20 20 0 -3
BITMAP
000000
038000
007000
000000
000000
000000
00FC00
0F0800
001000
002000
006000
009000
011000
021000
041000
081000
101000
200FC0
000000
000000
ENDCHAR
STARTCHAR 3049
ENCODING 12361
SWIDTH 1200 0
DWIDTH 20 0
BBX 20 20 0 -3
BITMAP
000000
000000
000000
000000
000000
000000
010000
010000
017400
0F8200
010100
010000
017C00
038200
050100
090100
092200
061C00
000000
000000
ENDCHAR
STARTCHAR 304A
ENCODING 12362
SWIDTH 1200 0
DWIDTH 20 0
BBX 20 20 0 -3
BITMAP
000000
020000
020000
020000
020000
027300
1F8080
020040
020000
020000
027E00
038180
060080
0A0040
120040
220040
221080
120F00
0C0000
000000
ENDCHAR
STARTCHAR 304B
ENCODING 12363
SWIDTH 1200 0
DWIDTH 20 0
BBX 20 20 0 -3
BITMAP
000000
010000
010000
010000
020000
020200
03E100
3E1080
041080
041040
081040
081040
081000
101000
101000
101000
202000
212000
00C000
000000
ENDCHAR
STARTCHAR 304C
ENCODING 12364
SWIDTH 1200 0
DWIDTH 20 0
BBX 20 20 0 -3
BITMAP
000000
010000
010040
010020
020080
020240
03E100
3E1080
041080
041040
081040
081040
081000
101000
101000
101000
202000
212000
00C000
000000
ENDCHAR
STARTCHAR 304D
ENCODING 12365
SWIDTH 1200 0
DWIDTH 20 0
BBX 20 20 0 -3
BITMAP
000000
008000
008000
004600
0FF800
004000
002000
002180
001E00
1FF000
001000
000800
01FC00
060400
080000
080000
080000
060000
01FC00
000000
ENDCHAR
STARTCHAR 304E
ENCODING 12366
SWIDTH 1200 0
DWIDTH 20 0
BBX 20 20 0 -3
BITMAP
000000
008040
008120
004680
0FF800
004000
002000
002180
001E00
1FF000
001000
000800
01FC00
060400
080000
080000
080000
060000
01FC00
000000
ENDCHAR
STARTCHAR 304F
ENCODING 12367
SWIDTH 1200 0
DWIDTH 20 0
BBX 20 20 0 -3
BITMAP
000000
001000
001000
002000
004000
008000
010000
020000
040000
080000
080000
040000
020000
010000
008000
004000
002000
001000
001000
000000
ENDCHAR
STARTCHAR 3050
ENCODING 12368
SWIDTH 1200 0
DWIDTH 20 0
BBX 20 20 0 -3
BITMAP
000000
001000
001000
002000
004000
008100
010080
020400
040200
080000
080000
040000
020000
010000
008000
004000
002000
001000
001000
000000
ENDCHAR
STARTCHAR 3051
ENCODING 12369
SWIDTH 1200 0
DWIDTH 20 0
BBX 20 20 0 -3
BITMAP
000000
000200
080200
080200
080200
1002C0
10FF00
100200
100200
100200
100200
100200
100200
100200
080200
0A0400
040400
000800
003000
000000
ENDCHAR
STARTCHAR 3052
ENCODING 12370
SWIDTH 1200 0
DWIDTH 20 0
BBX 20 20 0 -3
BITMAP
000000
000440
100520
100480
100400
200580
21FE00
200400
200400
200400
200400
200400
200400
200400
100400
140800
080800
001000
006000
000000
ENDCHAR
STARTCHAR 3053
ENCODING 12371
SWIDTH 1200 0
DWIDTH 20 0
BBX 20 20 0 -3
BITMAP
000000
000000
000000
070000
00FC00
000000
000000
000000
000000
000000
000000
000000
000000
100000
100000
100000
0C0000
03FF00
000000
000000
ENDCHAR
STARTCHAR 3054
ENCODING 12372
SWIDTH 1200 0
DWIDTH 20 0
BBX 20 20 0 -3
BITMAP
000000
000100
000480
070200
00FC00
000000
000000
000000
000000
000000
000000
000000
000000
100000
100000
100000
0C0000
03FF00
000000
000000
ENDCHAR
STARTCHAR 3055
ENCODING 12373
SWIDTH 1200 0
DWIDTH 20 0
BBX 20 20 0 -3
BITMAP
000000
004000
004000
004000
002300
003C00
1FD000
001000
000800
000800
000400
01FA00
060600
040000
080000
080000
040000
060000
01FC00
000000
ENDCHAR
STARTCHAR 3056
ENCODING 12374
SWIDTH 1200 0
DWIDTH 20 0
BBX 20 20 0 -3
BITMAP
000000
004040
004120
004080
002300
003C00
1FD000
001000
000800
000800
000400
01FA00
060600
040000
080000
080000
040000
060000
01FC00
000000
ENDCHAR
STARTCHAR 3057
ENCODING 12375
SWIDTH 1200 0
DWIDTH 20 0
BBX 20 20 0 -3
BITMAP
000000
000000
040000
040000
040000
040000
040000
040000
040000
040000
040000
040000
040000
040000
040080
040100
040200
020C00
01F000
000000
ENDCHAR
STARTCHAR 3058
ENCODING 12376
SWIDTH 1200 0
DWIDTH 20 0
BBX 20 20 0 -3
BITMAP
000000
000000
040400
040200
041100
040800
040400
040000
040000
040000
040000
040000
040000
040000
040080
040100
040200
020C00
01F000
000000
ENDCHAR
STARTCHAR 3059
ENCODING 12377
SWIDTH 1200 0
DWIDTH 20 0
BBX 20 20 0 -3
BITMAP
000000
002000
002000
002000
002000
3FFFC0
002000
002000
01E000
022000
022000
022000
022000
01E000
002000
004000
004000
008000
010000
000000
ENDCHAR
STARTCHAR 305A
ENCODING 12378
SWIDTH 1200 0
DWIDTH 20 0
BBX 20 20 0 -3
BITMAP
000080
002440
002220
002100
002000
3FFFC0
002000
002000
01E000
022000
022000
022000
022000
01E000
002000
004000
004000
008000
010000
000000
ENDCHAR
STARTCHAR 305B
ENCODING 12379
SWIDTH 1200 0
DWIDTH 20 0
BBX 20 20 0 -3
BITMAP
000000
000400
000400
040400
040400
040400
040400
043FE0
7FC400
040400
040400
040400
043800
040000
040000
020000
020000
01FF00
000000
000000
ENDCHAR
STARTCHAR 305C
ENCODING 12380
SWIDTH 1200 0
DWIDTH 20 0
BBX 20 20 0 -3
BITMAP
000080
000A40
000920
040880
040800
040800
040800
047FC0
7F8800
040800
040800
040800
047000
040000
040000
020000
020000
01FE00
000000
000000
ENDCHAR
STARTCHAR 305D
ENCODING 12381
SWIDTH 1200 0
DWIDTH 20 0
BBX 20 20 0 -3
BITMAP
000000
000000
03FE00
000400
001800
002000
004000
018000
067FC0
3F9800
002000
004000
004000
008000
008000
008000
008000
004000
003E00
000000
ENDCHAR
STARTCHAR 305E
ENCODING 12382
SWIDTH 1200 0
DWIDTH 20 0
BBX 20 20 0 -3
BITMAP
000000
000000
03FE40
000520
001880
002000
004000
018000
067FC0
3F9800
002000
004000
004000
008000
008000
008000
008000
004000
003E00
000000
ENDCHAR
STARTCHAR 305F
ENCODING 12383
SWIDTH 1200 0
DWIDTH 20 0
BBX 20 20 0 -3
BITMAP
000000
010000
010000
010000
010000
03F000
3E0000
020000
021FC0
040000
040000
040000
040000
080000
084000
084000
102000
101FC0
100000
000000
ENDCHAR
STARTCHAR 3060
ENCODING 12384
SWIDTH 1200 0
DWIDTH 20 0
BBX 20 20 0 -3
BITMAP
000000
010000
010080
010240
010140
03F100
3E0000
020000
021FC0
040000
040000
040000
040000
080000
084000
084000
102000
101FC0
100000
000000
ENDCHAR
STARTCHAR 3061
ENCODING 12385
SWIDTH 1200 0
DWIDTH 20 0
BBX 20 20 0 -3
BITMAP
000000
010000
010000
010000
013C00
3FC000
020000
020000
020000
023C00
04C300
050100
060080
000080
000080
000100
000100
000600
01F800
000000
ENDCHAR
STARTCHAR 3062
ENCODING 12386
SWIDTH 1200 0
DWIDTH 20 0
BBX 20 20 0 -3
BITMAP
000000
010000
010040
010120
013C80
3FC000
020000
020000
020000
023C00
04C300
050100
060080
000080
000080
000100
000100
000600
01F800
000000
ENDCHAR
STARTCHAR 3063
ENCODING 12387
SWIDTH 1200 0
DWIDTH 20 0
BBX 20 20 0 -3
BITMAP
000000
000000
000000
000000
000000
000000
000000
000000
000000
000000
01F800
1E0600
000100
000100
000100
000200
000C00
00F000
000000
000000
ENDCHAR
STARTCHAR 3064
ENCODING 12388
SWIDTH 1200 0
DWIDTH 20 0
BBX 20 20 0 -3
BITMAP
000000
000000
000000
000000
007C00
078300
780080
000040
000040
000040
000040
000040
000080
000180
000600
01F800
000000
000000
000000
000000
ENDCHAR
STARTCHAR 3065
ENCODING 12389
SWIDTH 1200 0
DWIDTH 20 0
BBX 20 20 0 -3
BITMAP
000000
000080
000240
000100
007C00
078300
780080
000040
000040
000040
000040
000040
000080
000180
000600
01F800
000000
000000
000000
000000
ENDCHAR
STARTCHAR 3066
ENCODING 12390
SWIDTH 1200 0
DWIDTH 20 0
BBX 20 20 0 -3
BITMAP
000000
000000
000000
003F80
3FCC00
001000
002000
004000
008000
008000
010000
010000
010000
010000
008000
008000
006000
001E00
000000
000000
ENDCHAR
STARTCHAR 3067
ENCODING 12391
SWIDTH 1200 0
DWIDTH 20 0
BBX 20 20 0 -3
BITMAP
000000
000000
000000
003F80
3FCC00
001000
002100
004080
008400
008200
010000
010000
010000
010000
008000
008000
006000
001E00
000000
000000
ENDCHAR
STARTCHAR 3068
ENCODING 12392
SWIDTH 1200 0
DWIDTH 20 0
BBX 20 20 0 -3
BITMAP
000000
010000
010000
010000
010000
010000
008000
008300
009C00
006000
018000
020000
040000
080000
080000
080000
060000
01FF00
000000
000000
ENDCHAR
STARTCHAR 3069
ENCODING 12393
SWIDTH 1200 0
DWIDTH 20 0
BBX 20 20 0 -3
BITMAP
000000
010080
010040
010220
010100
010080
008000
008300
009C00
006000
018000
020000
040000
080000
080000
080000
060000
01FF00
000000
000000
ENDCHAR
STARTCHAR 306A
ENCODING 12394
SWIDTH 1200 0
DWIDTH 20 0
BBX 20 20 0 -3
BITMAP
000000
010000
010000
010000
02E600
3F0100
020080
040000
040800
080800
080800
100800
100800
200800
00FC00
010B00
020880
020800
01F000
000000
ENDCHAR
STARTCHAR 306B
ENCODING 12395
SWIDTH 1200 0
DWIDTH 20 0
BBX 20 20 0 -3
BITMAP
000000
000000
100000
100000
100F80
207000
200000
200000
200000
200000
200000
200000
200000
208000
208000
206000
101FC0
140000
080000
000000
ENDCHAR
STARTCHAR 306C
ENCODING 12396
SWIDTH 1200 0
DWIDTH 20 0
BBX 20 20 0 -3
BITMAP
000000
001000
001000
001000
101000
10FC00
132300
0C2080
082080
144040
144040
228040
228040
210040
219E40
12A180
0C2140
001E20
000000
000000
ENDCHAR
STARTCHAR 306D
ENCODING 12397
SWIDTH 1200 0
DWIDTH 20 0
BBX 20 20 0 -3
BITMAP
000000
020000
020000
020000
020000
039E00
3F6100
028080
030080
060040
060040
0E0040
0A0040
120080
221E80
022180
022140
021E20
020000
000000
ENDCHAR
STARTCHAR 306E
ENCODING 12398
SWIDTH 1200 0
DWIDTH 20 0
BBX 20 20 0 -3
BITMAP
000000
000000
000000
00F800
032600
042100
082080
102080
104040
204040
204040
204040
208040
208040
210080
110080
0E0300
001C00
000000
000000
ENDCHAR
STARTCHAR 306F
ENCODING 12399
SWIDTH 1200 0
DWIDTH 20 0
BBX 20 20 0 -3
BITMAP
000000
100400
100400
100400
100400
200400
20FFC0
200400
200400
200400
200400
200400
200400
200400
207C00
208700
2084C0
288400
107800
000000
ENDCHAR
STARTCHAR 3070
ENCODING 12400
SWIDTH 1200 0
DWIDTH 20 0
BBX 20 20 0 -3
BITMAP
0000C0
100420
100580
100440
100400
200400
20FFC0
200400
200400
200400
200400
200400
200400
200400
207C00
208700
2084C0
288400
107800
000000
ENDCHAR
STARTCHAR 3071
ENCODING 12401
SWIDTH 1200 0
DWIDTH 20 0
BBX 20 20 0 -3
BITMAP
000000
1004C0
100520
100520
1004C0
200400
20FFC0
200400
200400
200400
200400
200400
200400
200400
207C00
208700
2084C0
288400
107800
000000
ENDCHAR
STARTCHAR 3072
ENCODING 12402
SWIDTH 1200 0
DWIDTH 20 0
BBX 20 20 0 -3
BITMAP
000000
000000
008400
078400
390400
020200
040200
040300
080280
080240
100220
100200
100200
100200
100400
080400
0C1800
03E000
000000
000000
ENDCHAR
STARTCHAR 3073
ENCODING 12403
SWIDTH 1200 0
DWIDTH 20 0
BBX 20 20 0 -3
BITMAP
000000
000040
008520
0784A0
390480
020200
040200
040300
080280
080240
100220
100200
100200
100200
100400
080400
0C1800
03E000
000000
000000
ENDCHAR
STARTCHAR 3074
ENCODING 12404
SWIDTH 1200 0
DWIDTH 20 0
BBX 20 20 0 -3
BITMAP
000000
000000
0084C0
078520
390520
0202C0
040200
040300
080280
080240
100220
100200
100200
100200
100400
080400
0C1800
03E000
000000
000000
ENDCHAR
STARTCHAR 3075
ENCODING 12405
SWIDTH 1200 0
DWIDTH 20 0
BBX 20 20 0 -3
BITMAP
000000
000000
018000
006000
001000
000000
010000
010000
010000
010000
008000
006000
001300
060880
080840
100820
200800
011000
00E000
000000
ENDCHAR
STARTCHAR 3076
ENCODING 12406
SWIDTH 1200 0
DWIDTH 20 0
BBX 20 20 0 -3
BITMAP
000000
000000
018000
006080
001240
000100
010000
010000
010000
010000
008000
006000
001300
060880
080840
100820
200800
011000
00E000
000000
ENDCHAR
STARTCHAR 3077
ENCODING 12407
SWIDTH 1200 0
DWIDTH 20 0
BBX 20 20 0 -3
BITMAP
000000
000000
018180
006240
001240
000180
010000
010000
010000
010000
008000
006000
001300
060880
080840
100820
200800
011000
00E000
000000
ENDCHAR
STARTCHAR 3078
ENCODING 12408
SWIDTH 1200 0
DWIDTH 20 0
BBX 20 20 0 -3
BITMAP
000000
000000
000000
000000
000000
018000
024000
042000
081000
100800
200400
000200
000100
000080
000060
000000
000000
000000
000000
000000
ENDCHAR
STARTCHAR 3079
ENCODING 12409
SWIDTH 1200 0
DWIDTH 20 0
BBX 20 20 0 -3
BITMAP
000000
000000
000000
000080
000240
018100
024000
042000
081000
100800
200400
000200
000100
000080
000060
000000
000000
000000
000000
000000
ENDCHAR
STARTCHAR 307A
ENCODING 12410
SWIDTH 1200 0
DWIDTH 20 0
BBX 20 20 0 -3
BITMAP
000000
000000
000000
000300
000480
018480
024300
042000
081000
100800
200400
000200
000100
000080
000060
000000
000000
000000
000000
000000
ENDCHAR
STARTCHAR 307B
ENCODING 12411
SWIDTH 1200 0
DWIDTH 20 0
BBX 20 20 0 -3
BITMAP
000000
000000
100000
10FFC0
100400
100400
200400
20FFC0
200400
200400
200400
200400
200400
200400
207C00
208700
2084C0
288400
107800
000000
ENDCHAR
STARTCHAR 307C
ENCODING 12412
SWIDTH 1200 0
DWIDTH 20 0
BBX 20 20 0 -3
BITMAP
000000
000040
100020
10FF80
100440
100400
200400
20FFC0
200400
200400
200400
200400
200400
200400
207C00
208700
2084C0
288400
107800
000000
ENDCHAR
STARTCHAR 307D
ENCODING 12413
SWIDTH 1200 0
DWIDTH 20 0
BBX 20 20 0 -3
BITMAP
000000
000060
100090
10FF90
100460
100400
200400
20FFC0
200400
200400
200400
200400
200400
200400
207C00
208700
2084C0
288400
107800
000000
ENDCHAR
STARTCHAR 307E
ENCODING 12414
SWIDTH 1200 0
DWIDTH 20 0
BBX 20 20 0 -3
BITMAP
000000
002000
002000
002000
002000
1FFF00
002000
002000
002000
0FFF00
002000
002000
002000
002000
07E000
083800
082600
082100
07C000
000000
ENDCHAR
STARTCHAR 307F
ENCODING 12415
SWIDTH 1200 0
DWIDTH 20 0
BBX 20 20 0 -3
BITMAP
000000
000000
000000
0FF000
001000
001000
002000
002080
002080
004080
03F880
0C8700
1081C0
210120
210200
220200
1C0400
000800
003000
000000
ENDCHAR
STARTCHAR 3080
ENCODING 12416
SWIDTH 1200 0
DWIDTH 20 0
BBX 20 20 0 -3
BITMAP
000000
020000
020000
020000
020000
3FE000
020000
020000
020300
0E0080
120040
220000
220200
240100
1C0100
040100
040100
040200
03FC00
000000
ENDCHAR
STARTCHAR 3081
ENCODING 12417
SWIDTH 1200 0
DWIDTH 20 0
BBX 20 20 0 -3
BITMAP
000000
000800
000800
080800
080800
08FC00
0B1300
041080
0C2080
142040
144040
224040
228040
218080
210080
128100
0C0600
001800
000000
000000
ENDCHAR
STARTCHAR 3082
ENCODING 12418
SWIDTH 1200 0
DWIDTH 20 0
BBX 20 20 0 -3
BITMAP
000000
010000
010000
010000
010000
010000
1FF000
010000
020000
020000
1A0000
07F200
020100
020100
020100
020100
010200
018600
007800
000000
ENDCHAR
STARTCHAR 3083
ENCODING 12419
SWIDTH 1200 0
DWIDTH 20 0
BBX 20 20 0 -3
BITMAP
000000
000000
000000
000000
000000
000000
002000
022000
022000
011E00
016100
038100
0C8100
009E00
004000
004000
004000
002000
002000
000000
ENDCHAR
STARTCHAR 3084
ENCODING 12420
SWIDTH 1200 0
DWIDTH 20 0
BBX 20 20 0 -3
BITMAP
000000
000000
001000
041000
041000
040E00
027180
038040
0E0040
710040
010040
009080
008F00
008000
004000
004000
002000
002000
002000
000000
ENDCHAR
STARTCHAR 3085
ENCODING 12421
SWIDTH 1200 0
DWIDTH 20 0
BBX 20 20 0 -3
BITMAP
000000
000000
000000
000000
000000
000000
002000
001000
081000
087C00
099200
0A1100
0A1100
0C1100
0C1200
08A600
087800
002000
004000
000000
ENDCHAR
STARTCHAR 3086
ENCODING 12422
SWIDTH 1200 0
DWIDTH 20 0
BBX 20 20 0 -3
BITMAP
000000
002000
001000
101000
101000
203E00
20D180
211080
221040
241040
281040
181040
111080
109180
107E00
002000
002000
004000
008000
000000
ENDCHAR
STARTCHAR 3087
ENCODING 12423
SWIDTH 1200 0
DWIDTH 20 0
BBX 20 20 0 -3
BITMAP
000000
000000
000000
000000
000000
000000
002000
002000
002000
002600
003800
002000
002000
002000
03E000
043800
042600
03C000
000000
000000
ENDCHAR
STARTCHAR 3088
ENCODING 12424
SWIDTH 1200 0
DWIDTH 20 0
BBX 20 20 0 -3
BITMAP
000000
002000
002000
002000
002000
002300
003C00
002000
002000
002000
002000
002000
002000
002000
07F000
082E00
082180
084000
078000
000000
ENDCHAR
STARTCHAR 3089
ENCODING 12425
SWIDTH 1200 0
DWIDTH 20 0
BBX 20 20 0 -3
BITMAP
000000
030000
00E000
001800
000000
040000
040000
040000
040000
080000
087C00
098300
0A0100
0C0080
000080
000080
000100
000600
01F800
000000
ENDCHAR
STARTCHAR 308A
ENCODING 12426
SWIDTH 1200 0
DWIDTH 20 0
BBX 20 20 0 -3
BITMAP
000000
000400
020400
020200
040200
040200
040200
040200
040200
040200
040200
050200
020400
000400
000800
000800
001000
002000
00C000
000000
ENDCHAR
STARTCHAR 308B
ENCODING 12427
SWIDTH 1200 0
DWIDTH 20 0
BBX 20 20 0 -3
BITMAP
000000
000000
007800
078800
001000
001000
002000
004000
008000
017C00
038300
040100
080080
100080
000080
01E080
021100
021600
01F800
000000
ENDCHAR
STARTCHAR 308C
ENCODING 12428
SWIDTH 1200 0
DWIDTH 20 0
BBX 20 20 0 -3
BITMAP
000000
040000
040000
040000
040000
070C00
3D3200
064200
048200
050200
060200
0C0200
0C0200
140200
240200
440220
040240
040180
040000
000000
ENDCHAR
STARTCHAR 308D
ENCODING 12429
SWIDTH 1200 0
DWIDTH 20 0
BBX 20 20 0 -3
BITMAP
000000
000000
007C00
078800
000800
001000
002000
004000
008000
017C00
038300
060100
080080
100080
000080
000080
000100
000600
01F800
000000
ENDCHAR
STARTCHAR 308E
ENCODING 12430
SWIDTH 1200 0
DWIDTH 20 0
BBX 20 20 0 -3
BITMAP
000000
000000
000000
000000
000000
020000
020000
020000
030000
1F3C00
02C200
030100
060100
060100
0A0100
120200
021C00
020000
000000
000000
ENDCHAR
STARTCHAR 308F
ENCODING 12431
SWIDTH 1200 0
DWIDTH 20 0
BBX 20 20 0 -3
BITMAP
000000
020000
020000
020000
020000
078000
3A9E00
036180
028080
030040
060040
0E0040
0A0040
120040
220080
420080
020300
021C00
020000
000000
ENDCHAR
STARTCHAR 3090
ENCODING 12432
SWIDTH 1200 0
DWIDTH 20 0
BBX 20 20 0 -3
BITMAP
000000
000000
01E000
0E2000
002000
002000
002000
00FE00
034180
044080
088040
108040
210040
210040
221C40
242280
182180
001E00
000000
000000
ENDCHAR
STARTCHAR 3091
ENCODING 12433
SWIDTH 1200 0
DWIDTH 20 0
BBX 20 20 0 -3
BITMAP
000000
000000
07F800
002000
004000
008000
01F800
030400
040200
08E200
011600
01FC00
008000
010000
0787C0
185820
206020
4041C0
000000
000000
ENDCHAR
STARTCHAR 3092
ENCODING 12434
SWIDTH 1200 0
DWIDTH 20 0
BBX 20 20 0 -3
BITMAP
000000
008000
008000
010000
1FF800
010000
020000
020000
05C380
0E2C00
183000
006000
01A000
022000
042000
040000
040000
030000
00FF00
000000
ENDCHAR
STARTCHAR 3093
ENCODING 12435
SWIDTH 1200 0
DWIDTH 20 0
BBX 20 20 0 -3
BITMAP
000000
000000
004000
004000
008000
008000
010000
010000
020000
020000
05C000
062040
042040
082080
082080
102100
102100
201200
200C00
000000
ENDCHAR
STARTCHAR 3094
ENCODING 12436
SWIDTH 1200 0
DWIDTH 20 0
BBX 20 20 0 -3
BITMAP
000000
018000
0070C0
000C20
000180
000040
00F800
0F0600
000200
000100
000100
000100
000100
000200
000200
000400
000800
003000
00C000
000000
ENDCHAR
STARTCHAR 309B
ENCODING 12443
SWIDTH 1200 0
DWIDTH 20 0
BBX 20 20 0 -3
BITMAP
000000
100000
080000
440000
200000
100000
000000
000000
000000
000000
000000
000000
000000
000000
000000
000000
000000
000000
000000
000000
ENDCHAR
STARTCHAR 309C
ENCODING 12444
SWIDTH 1200 0
DWIDTH 20 0
BBX 20 20 0 -3
BITMAP
000000
380000
440000
440000
440000
380000
000000
000000
000000
000000
000000
000000
000000
000000
000000
000000
000000
000000
000000
000000
ENDCHAR
STARTCHAR 309D
ENCODING 12445
SWIDTH 1200 0
DWIDTH 20 0
BBX 20 20 0 -3
BITMAP
000000
000000
000000
000000
000000
000000
000000
008000
004000
002000
001000
000800
000800
000400
000400
000C00
00F000
000000
000000
000000
ENDCHAR
STARTCHAR 309E
ENCODING 12446
SWIDTH 1200 0
DWIDTH 20 0
BBX 20 20 0 -3
BITMAP
000000
000000
000000
000000
000000
000400
001200
008900
004400
002000
001000
000800
000800
000400
000400
000C00
00F000
000000
000000
000000
ENDCHAR
STARTCHAR 30A1
ENCODING 12449
SWIDTH 1200 0
DWIDTH 20 0
BBX 20 20 0 -3
BITMAP
000000
000000
000000
000000
000000
000000
000000
000000
0FFF00
000100
002200
002400
002800
002000
004000
004000
008000
010000
020000
000000
ENDCHAR
STARTCHAR 30A2
ENCODING 12450
SWIDTH 1200 0
DWIDTH 20 0
BBX 20 20 0 -3
BITMAP
000000
000000
000000
3FFFC0
000040
000080
000080
002100
002200
002C00
002000
002000
004000
004000
004000
008000
008000
010000
020000
000000
ENDCHAR
STARTCHAR 30A3
ENCODING 12451
SWIDTH 1200 0
DWIDTH 20 0
BBX 20 20 0 -3
BITMAP
000000
000000
000000
000000
000000
000000
000400
000400
000800
001000
002000
006000
00A000
032000
0C2000
002000
002000
002000
002000
000000
ENDCHAR
STARTCHAR 30A4
ENCODING 12452
SWIDTH 1200 0
DWIDTH 20 0
BBX 20 20 0 -3
BITMAP
000000
000000
000100
000100
000200
000400
000800
001000
003000
005000
019000
061000
181000
001000
001000
001000
001000
001000
001000
000000
ENDCHAR
STARTCHAR 30A5
ENCODING 12453
SWIDTH 1200 0
DWIDTH 20 0
BBX 20 20 0 -3
BITMAP
000000
000000
000000
000000
000000
000000
004000
004000
07FE00
040200
040200
040200
040200
000400
000400
000800
003000
00C000
000000
000000
ENDCHAR
STARTCHAR 30A6
ENCODING 12454
SWIDTH 1200 0
DWIDTH 20 0
BBX 20 20 0 -3
BITMAP
000000
004000
004000
004000
004000
1FFF80
100080
100080
100080
100080
100080
000100
000100
000200
000200
000400
000800
003000
01C000
000000
ENDCHAR
STARTCHAR 30A7
ENCODING 12455
SWIDTH 1200 0
DWIDTH 20 0
BBX 20 20 0 -3
BITMAP
000000
000000
000000
000000
000000
000000
000000
000000
000000
0FFE00
004000
004000
004000
004000
004000
004000
1FFF00
000000
000000
000000
ENDCHAR
STARTCHAR 30A8
ENCODING 12456
SWIDTH 1200 0
DWIDTH 20 0
BBX 20 20 0 -3
BITMAP
000000
000000
000000
000000
000000
1FFF00
004000
004000
004000
004000
004000
004000
004000
004000
004000
004000
7FFFC0
000000
000000
000000
ENDCHAR
STARTCHAR 30A9
ENCODING 12457
SWIDTH 1200 0
DWIDTH 20 0
BBX 20 20 0 -3
BITMAP
000000
000000
000000
000000
000000
000000
001000
001000
001000
0FFF00
003000
003000
005000
009000
031000
0C1000
001000
007000
000000
000000
ENDCHAR
STARTCHAR 30AA
ENCODING 12458
SWIDTH 1200 0
DWIDTH 20 0
BBX 20 20 0 -3
BITMAP
000000
000800
000800
000800
000800
000800
3FFFE0
001800
001800
002800
002800
004800
008800
010800
020800
0C0800
300800
000800
003800
000000
ENDCHAR
STARTCHAR 30AB
ENCODING 12459
SWIDTH 1200 0
DWIDTH 20 0
BBX 20 20 0 -3
BITMAP
000000
000000
004000
004000
004000
004000
1FFF80
004080
004080
004080
008080
008080
008080
010080
010080
020080
020100
040900
080600
000000
ENDCHAR
STARTCHAR 30AC
ENCODING 12460
SWIDTH 1200 0
DWIDTH 20 0
BBX 20 20 0 -3
BITMAP
000000
000000
004040
004120
004080
004000
1FFF80
004080
004080
004080
008080
008080
008080
010080
010080
020080
020100
040900
080600
000000
ENDCHAR
STARTCHAR 30AD
ENCODING 12461
SWIDTH 1200 0
DWIDTH 20 0
BBX 20 20 0 -3
BITMAP
000000
000000
008000
008000
008000
007F00
1FC000
004000
004000
002000
0027C0
01F800
3E1000
001000
001000
000800
000800
000800
000800
000000
ENDCHAR
STARTCHAR 30AE
ENCODING 12462
SWIDTH 1200 0
DWIDTH 20 0
BBX 20 20 0 -3
BITMAP
000000
000000
008040
008120
008080
007F00
1FC000
004000
004000
002000
0027C0
01F800
3E1000
001000
001000
000800
000800
000800
000800
000000
ENDCHAR
STARTCHAR 30AF
ENCODING 12463
SWIDTH 1200 0
DWIDTH 20 0
BBX 20 20 0 -3
BITMAP
000000
000000
008000
008000
008000
01FF00
010100
020100
040100
080200
100200
000400
000400
000800
001000
002000
004000
018000
0E0000
000000
ENDCHAR
STARTCHAR 30B0
ENCODING 12464
SWIDTH 1200 0
DWIDTH 20 0
BBX 20 20 0 -3
BITMAP
000000
000040
008020
008080
008040
01FF00
010100
020100
040100
080200
100200
000400
000400
000800
001000
002000
004000
018000
0E0000
000000
ENDCHAR
STARTCHAR 30B1
ENCODING 12465
SWIDTH 1200 0
DWIDTH 20 0
BBX 20 20 0 -3
BITMAP
000000
000000
010000
010000
010000
020000
03FFC0
020400
040400
040400
080400
100400
000400
000800
000800
001000
002000
00C000
030000
000000
ENDCHAR
STARTCHAR 30B2
ENCODING 12466
SWIDTH 1200 0
DWIDTH 20 0
BBX 20 20 0 -3
BITMAP
000000
000100
010080
010200
010100
020000
03FFC0
020400
040400
040400
080400
100400
000400
000800
000800
001000
002000
00C000
030000
000000
ENDCHAR
STARTCHAR 30B3
ENCODING 12467
SWIDTH 1200 0
DWIDTH 20 0
BBX 20 20 0 -3
BITMAP
000000
000000
000000
000000
000000
1FFF00
000100
000100
000100
000100
000100
000100
000100
000100
000100
000100
1FFF00
000100
000000
000000
ENDCHAR
STARTCHAR 30B4
ENCODING 12468
SWIDTH 1200 0
DWIDTH 20 0
BBX 20 20 0 -3
BITMAP
000000
000000
000040
000120
000080
1FFF00
000100
000100
000100
000100
000100
000100
000100
000100
000100
000100
1FFF00
000100
000000
000000
ENDCHAR
STARTCHAR 30B5
ENCODING 12469
SWIDTH 1200 0
DWIDTH 20 0
BBX 20 20 0 -3
BITMAP
000000
000000
000400
040400
040400
040400
040400
7FFFE0
040400
040400
040400
040400
040400
000400
000800
000800
001000
002000
00C000
000000
ENDCHAR
STARTCHAR 30B6
ENCODING 12470
SWIDTH 1200 0
DWIDTH 20 0
BBX 20 20 0 -3
BITMAP
000000
000040
000520
040480
040400
040400
040400
7FFFE0
040400
040400
040400
040400
040400
000400
000800
000800
001000
002000
00C000
000000
ENDCHAR
STARTCHAR 30B7
ENCODING 12471
SWIDTH 1200 0
DWIDTH 20 0
BBX 20 20 0 -3
BITMAP
000000
000000
000000
060000
018000
004000
000000
180000
060040
010040
000080
000080
000100
000200
000400
000800
003000
01C000
0E0000
000000
ENDCHAR
STARTCHAR 30B8
ENCODING 12472
SWIDTH 1200 0
DWIDTH 20 0
BBX 20 20 0 -3
BITMAP
000000
000000
000080
060240
018100
004000
000000
180000
060040
010040
000080
000080
000100
000200
000400
000800
003000
01C000
0E0000
000000
ENDCHAR
STARTCHAR 30B9
ENCODING 12473
SWIDTH 1200 0
DWIDTH 20 0
BBX 20 20 0 -3
BITMAP
000000
000000
000000
000000
0FFC00
000400
000400
000400
000400
000800
000800
000800
001400
002200
004100
018080
060040
380040
000000
000000
ENDCHAR
STARTCHAR 30BA
ENCODING 12474
SWIDTH 1200 0
DWIDTH 20 0
BBX 20 20 0 -3
BITMAP
000000
000040
000120
0000A0
0FFC80
000400
000400
000400
000400
000800
000800
000800
001400
002200
004100
018080
060040
380040
000000
000000
ENDCHAR
STARTCHAR 30BB
ENCODING 12475
SWIDTH 1200 0
DWIDTH 20 0
BBX 20 20 0 -3
BITMAP
000000
000000
020000
020000
020000
020F80
03F080
7E0100
020200
020400
020800
020000
020000
020000
020000
020000
010000
00FF80
000000
000000
ENDCHAR
STARTCHAR 30BC
ENCODING 12476
SWIDTH 1200 0
DWIDTH 20 0
BBX 20 20 0 -3
BITMAP
000000
000080
020240
020100
020000
020F80
03F080
7E0100
020200
020400
020800
020000
020000
020000
020000
020000
010000
00FF80
000000
000000
ENDCHAR
STARTCHAR 30BD
ENCODING 12477
SWIDTH 1200 0
DWIDTH 20 0
BBX 20 20 0 -3
BITMAP
000000
000000
000000
000000
080080
040080
020080
010080
000100
000100
000100
000200
000200
000400
000800
001000
002000
00C000
030000
000000
ENDCHAR
STARTCHAR 30BE
ENCODING 12478
SWIDTH 1200 0
DWIDTH 20 0
BBX 20 20 0 -3
BITMAP
000040
000020
000080
000040
100100
080100
040100
020100
000200
000200
000200
000400
000400
000800
001000
002000
004000
018000
060000
000000
ENDCHAR
STARTCHAR 30BF
ENCODING 12479
SWIDTH 1200 0
DWIDTH 20 0
BBX 20 20 0 -3
BITMAP
000000
000000
008000
008000
00FF00
010100
010100
020100
058200
086200
101200
000C00
000400
000A00
001000
002000
004000
018000
0E0000
000000
ENDCHAR
STARTCHAR 30C0
ENCODING 12480
SWIDTH 1200 0
DWIDTH 20 0
BBX 20 20 0 -3
BITMAP
000000
000040
008120
008080
00FF00
010100
010100
020100
058200
086200
101200
000C00
000400
000A00
001000
002000
004000
018000
0E0000
000000
ENDCHAR
STARTCHAR 30C1
ENCODING 12481
SWIDTH 1200 0
DWIDTH 20 0
BBX 20 20 0 -3
BITMAP
000000
000000
000600
007800
0FA000
002000
002000
002000
002000
3FFFC0
002000
002000
002000
002000
004000
004000
008000
010000
060000
000000
ENDCHAR
STARTCHAR 30C2
ENCODING 12482
SWIDTH 1200 0
DWIDTH 20 0
BBX 20 20 0 -3
BITMAP
000000
000000
000640
007820
0FA080
002040
002000
002000
002000
3FFFC0
002000
002000
002000
002000
004000
004000
008000
010000
060000
000000
ENDCHAR
STARTCHAR 30C3
ENCODING 12483
SWIDTH 1200 0
DWIDTH 20 0
BBX 20 20 0 -3
BITMAP
000000
000000
000000
000000
000000
000000
000000
000000
010200
090200
088200
048400
040400
000800
000800
001000
002000
00C000
000000
000000
ENDCHAR
STARTCHAR 30C4
ENCODING 12484
SWIDTH 1200 0
DWIDTH 20 0
BBX 20 20 0 -3
BITMAP
000000
000000
000000
000080
010080
208080
104080
084100
080100
000100
000200
000200
000400
000400
000800
001000
002000
00C000
070000
000000
ENDCHAR
STARTCHAR 30C5
ENCODING 12485
SWIDTH 1200 0
DWIDTH 20 0
BBX 20 20 0 -3
BITMAP
000040
000120
000080
000000
010080
208080
104080
084100
080100
000100
000200
000200
000400
000400
000800
001000
002000
00C000
070000
000000
ENDCHAR
STARTCHAR 30C6
ENCODING 12486
SWIDTH 1200 0
DWIDTH 20 0
BBX 20 20 0 -3
BITMAP
000000
000000
000000
07FE00
000000
000000
000000
000000
3FFFC0
002000
002000
002000
002000
002000
004000
004000
008000
010000
060000
000000
ENDCHAR
STARTCHAR 30C7
ENCODING 12487
SWIDTH 1200 0
DWIDTH 20 0
BBX 20 20 0 -3
BITMAP
000000
000040
000120
07FE80
000000
000000
000000
000000
3FFFC0
002000
002000
002000
002000
002000
004000
004000
008000
010000
060000
000000
ENDCHAR
STARTCHAR 30C8
ENCODING 12488
SWIDTH 1200 0
DWIDTH 20 0
BBX 20 20 0 -3
BITMAP
000000
000000
008000
008000
008000
008000
008000
008000
008000
00E000
009800
008600
008100
008000
008000
008000
008000
008000
008000
000000
ENDCHAR
STARTCHAR 30C9
ENCODING 12489
SWIDTH 1200 0
DWIDTH 20 0
BBX 20 20 0 -3
BITMAP
000000
000000
008100
008480
008280
008200
008000
008000
008000
00E000
009800
008600
008100
008000
008000
008000
008000
008000
008000
000000
ENDCHAR
STARTCHAR 30CA
ENCODING 12490
SWIDTH 1200 0
DWIDTH 20 0
BBX 20 20 0 -3
BITMAP
000000
000000
002000
002000
002000
002000
002000
3FFFC0
002000
002000
002000
002000
002000
002000
004000
004000
008000
010000
060000
000000
ENDCHAR
STARTCHAR 30CB
ENCODING 12491
SWIDTH 1200 0
DWIDTH 20 0
BBX 20 20 0 -3
BITMAP
000000
000000
000000
000000
000000
0FFF00
000000
000000
000000
000000
000000
000000
000000
000000
000000
3FFFC0
000000
000000
000000
000000
ENDCHAR
STARTCHAR 30CC
ENCODING 12492
SWIDTH 1200 0
DWIDTH 20 0
BBX 20 20 0 -3
BITMAP
000000
000000
000000
000000
07FF00
000100
000100
000100
000200
00C200
003400
000800
000C00
001200
002100
004080
018080
060000
180000
000000
ENDCHAR
STARTCHAR 30CD
ENCODING 12493
SWIDTH 1200 0
DWIDTH 20 0
BBX 20 20 0 -3
BITMAP
000000
004000
004000
004000
004000
0FFE00
000200
000400
000400
001800
003000
00CC00
074300
384080
004000
004000
004000
004000
004000
000000
ENDCHAR
STARTCHAR 30CE
ENCODING 12494
SWIDTH 1200 0
DWIDTH 20 0
BBX 20 20 0 -3
BITMAP
000000
000000
000000
000200
000200
000200
000200
000400
000400
000400
000800
000800
001000
002000
004000
018000
060000
180000
000000
000000
ENDCHAR
STARTCHAR 30CF
ENCODING 12495
SWIDTH 1200 0
DWIDTH 20 0
BBX 20 20 0 -3
BITMAP
000000
000000
000000
000000
000000
000800
010400
010200
010200
020100
020100
040080
040080
080080
080040
100040
200040
000000
000000
000000
ENDCHAR
STARTCHAR 30D0
ENCODING 12496
SWIDTH 1200 0
DWIDTH 20 0
BBX 20 20 0 -3
BITMAP
000000
000000
000080
000240
000140
000900
010400
010200
010200
020100
020100
040080
040080
080080
080040
100040
200040
000000
000000
000000
ENDCHAR
STARTCHAR 30D1
ENCODING 12497
SWIDTH 1200 0
DWIDTH 20 0
BBX 20 20 0 -3
BITMAP
000000
000000
0000C0
000120
000120
0008C0
010400
010200
010200
020100
020100
040080
040080
080080
080040
100040
200040
000000
000000
000000
ENDCHAR
STARTCHAR 30D2
ENCODING 12498
SWIDTH 1200 0
DWIDTH 20 0
BBX 20 20 0 -3
BITMAP
000000
000000
080000
080000
080000
080000
080000
080600
087800
0F8000
080000
080000
080000
080000
080000
080000
060000
01FF00
000000
000000
ENDCHAR
STARTCHAR 30D3
ENCODING 12499
SWIDTH 1200 0
DWIDTH 20 0
BBX 20 20 0 -3
BITMAP
000000
000000
080080
080240
080100
080000
080000
080600
087800
0F8000
080000
080000
080000
080000
080000
080000
060000
01FF00
000000
000000
ENDCHAR
STARTCHAR 30D4
ENCODING 12500
SWIDTH 1200 0
DWIDTH 20 0
BBX 20 20 0 -3
BITMAP
000000
000180
080240
080240
080180
080000
080000
080600
087800
0F8000
080000
080000
080000
080000
080000
080000
060000
01FF00
000000
000000
ENDCHAR
STARTCHAR 30D5
ENCODING 12501
SWIDTH 1200 0
DWIDTH 20 0
BBX 20 20 0 -3
BITMAP
000000
000000
000000
000000
1FFF00
000100
000100
000100
000200
000200
000200
000400
000400
000800
001000
002000
00C000
070000
000000
000000
ENDCHAR
STARTCHAR 30D6
ENCODING 12502
SWIDTH 1200 0
DWIDTH 20 0
BBX 20 20 0 -3
BITMAP
000000
000040
000120
000080
1FFF00
000100
000100
000100
000200
000200
000200
000400
000400
000800
001000
002000
00C000
070000
000000
000000
ENDCHAR
STARTCHAR 30D7
ENCODING 12503
SWIDTH 1200 0
DWIDTH 20 0
BBX 20 20 0 -3
BITMAP
0000C0
000120
000120
0000C0
1FFF00
000100
000100
000100
000200
000200
000200
000400
000400
000800
001000
002000
00C000
070000
000000
000000
ENDCHAR
STARTCHAR 30D8
ENCODING 12504
SWIDTH 1200 0
DWIDTH 20 0
BBX 20 20 0 -3
BITMAP
000000
000000
000000
000000
000000
018000
024000
042000
081000
100800
200400
000200
000100
0000C0
000000
000000
000000
000000
000000
000000
ENDCHAR
STARTCHAR 30D9
ENCODING 12505
SWIDTH 1200 0
DWIDTH 20 0
BBX 20 20 0 -3
BITMAP
000000
000000
000000
000100
000480
018200
024000
042000
081000
100800
200400
000200
000100
0000C0
000000
000000
000000
000000
000000
000000
ENDCHAR
STARTCHAR 30DA
ENCODING 12506
SWIDTH 1200 0
DWIDTH 20 0
BBX 20 20 0 -3
BITMAP
000000
000000
000000
000300
000480
018480
024300
042000
081000
100800
200400
000200
000100
0000C0
000000
000000
000000
000000
000000
000000
ENDCHAR
STARTCHAR 30DB
ENCODING 12507
SWIDTH 1200 0
DWIDTH 20 0
BBX 20 20 0 -3
BITMAP
000000
002000
002000
002000
002000
002000
3FFFC0
002000
002000
002000
022200
022100
042080
042040
082040
102000
002000
00A000
006000
000000
ENDCHAR
STARTCHAR 30DC
ENCODING 12508
SWIDTH 1200 0
DWIDTH 20 0
BBX 20 20 0 -3
BITMAP
000000
002040
002120
002080
002000
002000
3FFFC0
002000
002000
002000
022200
022100
042080
042040
082040
102000
002000
00A000
006000
000000
ENDCHAR
STARTCHAR 30DD
ENCODING 12509
SWIDTH 1200 0
DWIDTH 20 0
BBX 20 20 0 -3
BITMAP
000000
0020C0
002120
002120
0020C0
002000
3FFFC0
002000
002000
002000
022200
022100
042080
042040
082040
102000
002000
00A000
006000
000000
ENDCHAR
STARTCHAR 30DE
ENCODING 12510
SWIDTH 1200 0
DWIDTH 20 0
BBX 20 20 0 -3
BITMAP
000000
000000
000000
000000
000000
1FFFC0
000040
000080
000100
000200
000400
018800
005000
002000
001000
000800
000400
000400
000000
000000
ENDCHAR
STARTCHAR 30DF
ENCODING 12511
SWIDTH 1200 0
DWIDTH 20 0
BBX 20 20 0 -3
BITMAP
000000
000000
078000
007800
000600
000000
000000
000000
078000
007000
000C00
000000
000000
000000
1E0000
01E000
001C00
000300
000000
000000
ENDCHAR
STARTCHAR 30E0
ENCODING 12512
SWIDTH 1200 0
DWIDTH 20 0
BBX 20 20 0 -3
BITMAP
000000
000000
004000
004000
004000
004000
008000
008000
008000
010000
010400
010200
020100
020080
040F80
05F040
3E0040
000040
000000
000000
ENDCHAR
STARTCHAR 30E1
ENCODING 12513
SWIDTH 1200 0
DWIDTH 20 0
BBX 20 20 0 -3
BITMAP
000000
000000
000000
000100
000100
000100
000200
010200
00C400
002400
001800
000800
001400
002200
004100
008000
010000
060000
180000
000000
ENDCHAR
STARTCHAR 30E2
ENCODING 12514
SWIDTH 1200 0
DWIDTH 20 0
BBX 20 20 0 -3
BITMAP
000000
000000
000000
000000
1FFE00
008000
008000
008000
008000
3FFFC0
008000
008000
008000
008000
008000
008000
004000
003F80
000000
000000
ENDCHAR
STARTCHAR 30E3
ENCODING 12515
SWIDTH 1200 0
DWIDTH 20 0
BBX 20 20 0 -3
BITMAP
000000
000000
000000
000000
000000
000000
008000
008000
008F00
00F100
0F4200
004400
004800
004000
002000
002000
002000
002000
000000
000000
ENDCHAR
STARTCHAR 30E4
ENCODING 12516
SWIDTH 1200 0
DWIDTH 20 0
BBX 20 20 0 -3
BITMAP
000000
000000
010000
010000
010000
0083C0
00BC40
03C080
3C8100
008200
004400
004800
004000
004000
002000
002000
002000
002000
002000
000000
ENDCHAR
STARTCHAR 30E5
ENCODING 12517
SWIDTH 1200 0
DWIDTH 20 0
BBX 20 20 0 -3
BITMAP
000000
000000
000000
000000
000000
000000
000000
000000
07F800
000800
000800
000800
000800
000800
000800
000800
0FFF00
000000
000000
000000
ENDCHAR
STARTCHAR 30E6
ENCODING 12518
SWIDTH 1200 0
DWIDTH 20 0
BBX 20 20 0 -3
BITMAP
000000
000000
000000
000000
000000
0FFC00
000400
000400
000400
000400
000800
000800
000800
000800
000800
000800
3FFFC0
000000
000000
000000
ENDCHAR
STARTCHAR 30E7
ENCODING 12519
SWIDTH 1200 0
DWIDTH 20 0
BBX 20 20 0 -3
BITMAP
000000
000000
000000
000000
000000
000000
000000
07FC00
000400
000400
000400
07FC00
000400
000400
000400
000400
07FC00
000400
000000
000000
ENDCHAR
STARTCHAR 30E8
ENCODING 12520
SWIDTH 1200 0
DWIDTH 20 0
BBX 20 20 0 -3
BITMAP
000000
000000
000000
000000
0FFF00
000100
000100
000100
000100
000100
07FF00
000100
000100
000100
000100
000100
0FFF00
000100
000000
000000
ENDCHAR
STARTCHAR 30E9
ENCODING 12521
SWIDTH 1200 0
DWIDTH 20 0
BBX 20 20 0 -3
BITMAP
000000
000000
07FC00
000000
000000
000000
000000
1FFF00
000100
000100
000100
000200
000200
000400
000800
001000
002000
00C000
070000
000000
ENDCHAR
STARTCHAR 30EA
ENCODING 12522
SWIDTH 1200 0
DWIDTH 20 0
BBX 20 20 0 -3
BITMAP
000000
000000
000400
040400
040400
040400
040400
040400
040400
040400
040400
040400
000400
000400
000800
000800
001000
002000
00C000
000000
ENDCHAR
STARTCHAR 30EB
ENCODING 12523
SWIDTH 1200 0
DWIDTH 20 0
BBX 20 20 0 -3
BITMAP
000000
000000
000000
002000
022000
022000
022000
022000
022000
022000
022000
022040
042040
042080
042080
082100
082200
102C00
203000
000000
ENDCHAR
STARTCHAR 30EC
ENCODING 12524
SWIDTH 1200 0
DWIDTH 20 0
BBX 20 20 0 -3
BITMAP
000000
000000
000000
040000
040000
040000
040000
040000
040000
040000
040080
040080
040100
040200
040400
040800
043000
04C000
070000
000000
ENDCHAR
STARTCHAR 30ED
ENCODING 12525
SWIDTH 1200 0
DWIDTH 20 0
BBX 20 20 0 -3
BITMAP
000000
000000
000000
000000
1FFF00
100100
100100
100100
100100
100100
100100
100100
100100
100100
100100
100100
1FFF00
100100
000000
000000
ENDCHAR
STARTCHAR 30EE
ENCODING 12526
SWIDTH 1200 0
DWIDTH 20 0
BBX 20 20 0 -3
BITMAP
000000
000000
000000
000000
000000
000000
000000
000000
07FE00
040200
040200
040200
040200
000400
000400
000800
003000
00C000
000000
000000
ENDCHAR
STARTCHAR 30EF
ENCODING 12527
SWIDTH 1200 0
DWIDTH 20 0
BBX 20 20 0 -3
BITMAP
000000
000000
000000
000000
1FFF00
100100
100100
100100
100100
100100
100100
000200
000200
000400
000400
000800
001000
006000
038000
000000
ENDCHAR
STARTCHAR 30F0
ENCODING 12528
SWIDTH 1200 0
DWIDTH 20 0
BBX 20 20 0 -3
BITMAP
000000
000800
000800
000800
000800
000800
0FFF80
020800
020800
020800
020800
020800
3FFFE0
000800
000800
000800
000800
000800
000800
000000
ENDCHAR
STARTCHAR 30F1
ENCODING 12529
SWIDTH 1200 0
DWIDTH 20 0
BBX 20 20 0 -3
BITMAP
000000
000000
000000
000000
000000
0FFF00
000100
000200
004400
005800
004000
004000
004000
004000
004000
004000
3FFFC0
000000
000000
000000
ENDCHAR
STARTCHAR 30F2
ENCODING 12530
SWIDTH 1200 0
DWIDTH 20 0
BBX 20 20 0 -3
BITMAP
000000
000000
000000
0FFF00
000100
000100
000100
000100
0FFF00
000100
000100
000100
000200
000200
000400
000800
001000
006000
038000
000000
ENDCHAR
STARTCHAR 30F3
ENCODING 12531
SWIDTH 1200 0
DWIDTH 20 0
BBX 20 20 0 -3
BITMAP
000000
000000
000000
000000
080000
060000
018040
000040
000080
000080
000100
000200
000400
000800
001000
006000
018000
0E0000
000000
000000
ENDCHAR
STARTCHAR 30F4
ENCODING 12532
SWIDTH 1200 0
DWIDTH 20 0
BBX 20 20 0 -3
BITMAP
000000
004040
004120
0040A0
004080
1FFF80
100080
100080
100080
100080
100100
000100
000100
000200
000200
000400
000800
003000
01C000
000000
ENDCHAR
STARTCHAR 30F5
ENCODING 12533
SWIDTH 1200 0
DWIDTH 20 0
BBX 20 20 0 -3
BITMAP
000000
000000
000000
000000
000000
000000
008000
008000
008000
0FFC00
008400
010400
010400
010400
020400
020400
041400
080800
000000
000000
ENDCHAR
STARTCHAR 30F6
ENCODING 12534
SWIDTH 1200 0
DWIDTH 20 0
BBX 20 20 0 -3
BITMAP
000000
000000
000000
000000
000000
000000
010000
010000
010000
01FF00
020800
020800
040800
081000
001000
002000
004000
018000
000000
000000
ENDCHAR
STARTCHAR 30FB
ENCODING 12539
SWIDTH 1200 0
DWIDTH 20 0
BBX 20 20 0 -3
BITMAP
000000
000000
000000
000000
000000
000000
000000
000000
00E000
00E000
00E000
000000
000000
000000
000000
000000
000000
000000
000000
000000
ENDCHAR
STARTCHAR 30FC
ENCODING 12540
SWIDTH 1200 0
DWIDTH 20 0
BBX 20 20 0 -3
BITMAP
000000
000000
000000
000000
000000
000000
000000
000000
200000
1FFFC0
000000
000000
000000
000000
000000
000000
000000
000000
000000
000000
ENDCHAR
STARTCHAR 30FD
ENCODING 12541
SWIDTH 1200 0
DWIDTH 20 0
BBX 20 20 0 -3
BITMAP
000000
000000
000000
000000
000000
000000
000000
010000
008000
004000
002000
002000
001000
001000
000800
000800
000800
000000
000000
000000
ENDCHAR
STARTCHAR 30FE
ENCODING 12542
SWIDTH 1200 0
DWIDTH 20 0
BBX 20 20 0 -3
BITMAP
000000
000000
000000
000000
000000
000400
001200
010900
008400
004000
002000
002000
001000
001000
000800
000800
000800
000000
000000
000000
ENDCHAR
STARTCHAR 3231
ENCODING 12849
SWIDTH 1200 0
DWIDTH 20 0
BBX 20 20 0 -3
BITMAP
100100
240880
440840
444840
444840
BF7F20
844820
848820
8E0820
8DFFA0
951C20
942A20
A42A20
844920
444940
4488C0
450840
240880
100100
000000
ENDCHAR
STARTCHAR 3232
ENCODING 12850
SWIDTH 1200 0
DWIDTH 20 0
BBX 20 20 0 -3
BITMAP
100100
208080
408040
5FFF40
408040
810020
810020
83FC20
820420
860420
87FC20
8A0420
920420
83FC20
420440
420440
420440
221C80
100100
000000
ENDCHAR
STARTCHAR 3239
ENCODING 12857
SWIDTH 1200 0
DWIDTH 20 0
BBX 20 20 0 -3
BITMAP
100100
222080
422440
422240
442240
842020
8DFF20
8C2020
942020
A42020
841020
841020
841020
841020
440A40
440A40
440640
240280
100100
000000
ENDCHAR
STARTCHAR 32A4
ENCODING 12964
SWIDTH 1200 0
DWIDTH 20 0
BBX 20 20 0 -3
BITMAP
03F800
0C0600
100100
204080
404040
404040
804020
807E20
804020
804020
804020
804020
804020
5FFF40
400040
200080
100100
0C0600
03F800
000000
ENDCHAR
STARTCHAR 32A5
ENCODING 12965
SWIDTH 1200 0
DWIDTH 20 0
BBX 20 20 0 -3
BITMAP
03F800
0C0600
100100
204080
404040
404040
8FFE20
884220
884220
884220
8FFE20
804020
804020
404040
404040
204080
100100
0C0600
03F800
000000
ENDCHAR
STARTCHAR 32A6
ENCODING 12966
SWIDTH 1200 0
DWIDTH 20 0
BBX 20 20 0 -3
BITMAP
03F800
0C0600
100100
200080
400040
5FFF40
804020
804020
807020
804820
804420
804020
804020
404040
404040
204080
100100
0C0600
03F800
000000
ENDCHAR
STARTCHAR 32A7
ENCODING 12967
SWIDTH 1200 0
DWIDTH 20 0
BBX 20 20 0 -3
BITMAP
03F800
0C0600
108100
208080
408040
5FFF40
808020
810020
810020
83FC20
842020
882020
902020
402040
47FF40
200080
100100
0C0600
03F800
000000
ENDCHAR
STARTCHAR 32A8
ENCODING 12968
SWIDTH 1200 0
DWIDTH 20 0
BBX 20 20 0 -3
BITMAP
03F800
0C0600
108100
208080
408040
5FFF40
808020
810020
810020
83FE20
830220
850220
990220
410240
41FE40
200080
100100
0C0600
03F800
000000
ENDCHAR
STARTCHAR 3303
ENCODING 13059
SWIDTH 1200 0
DWIDTH 20 0
BBX 20 20 0 -3
BITMAP
000000
7FC000
004000
048000
070000
041FC0
040000
080000
300000
000000
090000
090000
090000
090000
090000
112000
114000
218000
410000
000000
ENDCHAR
STARTCHAR 330D
ENCODING 13069
SWIDTH 1200 0
DWIDTH 20 0
BBX 20 20 0 -3
BITMAP
040000
040000
7F9FC0
089040
089040
109040
109040
209040
431FC0
000000
110000
110000
110000
110000
113F80
010000
020000
020000
040000
000000
ENDCHAR
STARTCHAR 3314
ENCODING 13076
SWIDTH 1200 0
DWIDTH 20 0
BBX 20 20 0 -3
BITMAP
000000
040000
040000
078000
7C0000
040000
03C000
7E0000
020000
020000
020000
021FC0
001040
001040
001040
001040
001040
001040
001FC0
000000
ENDCHAR
STARTCHAR 3318
ENCODING 13080
SWIDTH 1200 0
DWIDTH 20 0
BBX 20 20 0 -3
BITMAP
08A000
08AF80
1F0000
111FC0
210040
420040
020080
040080
080300
300C00
000000
040000
040000
040000
080000
088000
084000
13C000
3C4000
000000
ENDCHAR
STARTCHAR 3322
ENCODING 13090
SWIDTH 1200 0
DWIDTH 20 0
BBX 20 20 0 -3
BITMAP
100000
100000
101800
7FC620
108020
130040
100080
100300
0F9C00
000000
078000
3A0000
020000
7FC000
020000
020000
040000
040000
080000
000000
ENDCHAR
STARTCHAR 3323
ENCODING 13091
SWIDTH 1200 0
DWIDTH 20 0
BBX 20 20 0 -3
BITMAP
100000
100000
101800
7FC620
108020
130040
100080
100300
0F9C00
000000
080000
080000
080000
080000
0E0000
090000
088000
080000
080000
000000
ENDCHAR
STARTCHAR 3326
ENCODING 13094
SWIDTH 1200 0
DWIDTH 20 0
BBX 20 20 0 -3
BITMAP
000000
088000
084000
090000
088000
0E0000
090000
088000
080000
080000
081200
001200
001200
001200
001200
002240
002280
004300
008200
000000
ENDCHAR
STARTCHAR 3327
ENCODING 13095
SWIDTH 1200 0
DWIDTH 20 0
BBX 20 20 0 -3
BITMAP
000000
080000
080000
080000
080000
0E0000
090000
088000
080000
080000
083000
000840
000040
000080
000080
000100
000200
000C00
003000
000000
ENDCHAR
STARTCHAR 332B
ENCODING 13099
SWIDTH 1200 0
DWIDTH 20 0
BBX 20 20 0 -3
BITMAP
000000
124000
12A000
114000
110000
111FC0
208000
208000
408000
000000
200100
20C100
2E3500
F20580
240540
200920
200920
201100
1EE100
000000
ENDCHAR
STARTCHAR 3336
ENCODING 13110
SWIDTH 1200 0
DWIDTH 20 0
BBX 20 20 0 -3
BITMAP
000400
000400
1807C0
240840
421040
010080
008100
000600
001800
100000
100500
1E0500
220500
32F500
4A0520
860520
040940
080980
301100
000000
ENDCHAR
STARTCHAR 333B
ENCODING 13115
SWIDTH 1200 0
DWIDTH 20 0
BBX 20 20 0 -3
BITMAP
008000
014000
088000
140000
221FC0
410000
008000
006000
000000
000000
30A000
0CA000
600000
184000
004000
008000
010000
060000
380000
000000
ENDCHAR
STARTCHAR 3349
ENCODING 13129
SWIDTH 1200 0
DWIDTH 20 0
BBX 20 20 0 -3
BITMAP
000000
7C0000
030000
000000
7C0000
030000
000000
000000
7C0040
039040
001040
001040
001040
001040
001040
000040
000080
000080
000100
000000
ENDCHAR
STARTCHAR 334A
ENCODING 13130
SWIDTH 1200 0
DWIDTH 20 0
BBX 20 20 0 -3
BITMAP
000080
3C1080
031080
001080
3C1080
031080
000100
3C0100
038200
000000
028000
028280
140280
140280
120280
127480
2104A0
2108C0
411080
000000
ENDCHAR
STARTCHAR 334D
ENCODING 13133
SWIDTH 1200 0
DWIDTH 20 0
BBX 20 20 0 -3
BITMAP
008000
008000
110000
0D0000
023F80
050000
088000
108000
600000
000000
081200
081200
081200
0C1200
0A1200
091240
082280
082300
084200
000000
ENDCHAR
STARTCHAR 3351
ENCODING 13137
SWIDTH 1200 0
DWIDTH 20 0
BBX 20 20 0 -3
BITMAP
010000
110000
110000
110000
111480
111480
020080
020100
040E00
000000
101200
101200
101200
101200
1C1200
121240
112280
102300
104200
000000
ENDCHAR
STARTCHAR 3357
ENCODING 13143
SWIDTH 1200 0
DWIDTH 20 0
BBX 20 20 0 -3
BITMAP
000000
3F8000
208000
208000
209480
009480
010080
020100
0C0E00
000000
080000
080000
080000
080000
0E0000
090000
088000
080000
080000
000000
ENDCHAR
STARTCHAR 337B
ENCODING 13179
SWIDTH 1200 0
DWIDTH 20 0
BBX 20 20 0 -3
BITMAP
000280
7F8240
040240
248200
14BFE0
14A200
14A200
152200
052140
043D40
FFE540
042580
042580
042500
042500
042D00
0422A0
0422A0
044460
044020
ENDCHAR
STARTCHAR 337C
ENCODING 13180
SWIDTH 1200 0
DWIDTH 20 0
BBX 20 20 0 -3
BITMAP
000200
0FCC00
F27800
924800
9249E0
924920
927F20
944920
F44920
98DD20
901B20
979B20
94A920
94A920
94A920
F4C920
8489E0
048800
078800
000800
ENDCHAR
STARTCHAR 337D
ENCODING 13181
SWIDTH 1200 0
DWIDTH 20 0
BBX 20 20 0 -3
BITMAP
040000
043FE0
040200
040200
040200
040200
FFC200
040200
041200
0413C0
041200
0A1200
0A1200
0A1200
121200
111200
211200
209200
40BFE0
804000
ENDCHAR
STARTCHAR 337E
ENCODING 13182
SWIDTH 1200 0
DWIDTH 20 0
BBX 20 20 0 -3
BITMAP
002100
079100
F49100
948100
948200
94A240
979240
F494E0
948F20
948020
948000
9797C0
F49440
849440
049440
04A440
08A440
08A440
10A7C0
23A000
ENDCHAR
STARTCHAR 338E
ENCODING 13198
SWIDTH 1200 0
DWIDTH 20 0
BBX 20 20 0 -3
BITMAP
000000
000000
000000
000000
000000
000000
000060
5B0740
648880
449040
449040
449080
448F00
448800
448F80
449040
44A020
002020
002020
001FC0
ENDCHAR
STARTCHAR 338F
ENCODING 13199
SWIDTH 1200 0
DWIDTH 20 0
BBX 20 20 0 -3
BITMAP
000000
000000
200000
200000
200000
200000
200060
218740
220880
241040
281040
341080
220F00
220800
210F80
209040
20A020
002020
002020
001FC0
ENDCHAR
STARTCHAR 339C
ENCODING 13212
SWIDTH 1200 0
DWIDTH 20 0
BBX 20 20 0 -3
BITMAP
000000
000000
000000
000000
000000
000000
000000
5B16C0
649920
449120
449120
449120
449120
449120
449120
449120
449120
000000
000000
000000
ENDCHAR
STARTCHAR 339D
ENCODING 13213
SWIDTH 1200 0
DWIDTH 20 0
BBX 20 20 0 -3
BITMAP
000000
000000
000000
000000
000000
000000
000000
1E2DC0
213220
412220
402220
402220
402220
402220
40A220
212220
1E2220
000000
000000
000000
ENDCHAR
STARTCHAR 339E
ENCODING 13214
SWIDTH 1200 0
DWIDTH 20 0
BBX 20 20 0 -3
BITMAP
000000
000000
200000
200000
200000
200000
200000
21ADC0
223220
242220
282220
342220
222220
222220
212220
20A220
20A220
000000
000000
000000
ENDCHAR
STARTCHAR 33A1
ENCODING 13217
SWIDTH 1200 0
DWIDTH 20 0
BBX 20 20 0 -3
BITMAP
000000
0000C0
000120
000020
0000C0
000100
0001E0
2F3C00
30C200
208200
208200
208200
208200
208200
208200
208200
208200
000000
000000
000000
ENDCHAR
STARTCHAR 33C4
ENCODING 13252
SWIDTH 1200 0
DWIDTH 20 0
BBX 20 20 0 -3
BITMAP
000000
000000
000000
000000
000000
000000
000000
1E0F00
211080
412080
402000
402000
402000
402000
40A040
211080
1E0F00
000000
000000
000000
ENDCHAR
STARTCHAR 33CD
ENCODING 13261
SWIDTH 1200 0
DWIDTH 20 0
BBX 20 20 0 -3
BITMAP
000000
000000
421080
421080
441100
441100
481200
481200
501400
681A00
481200
441100
441100
441100
421080
42D0B0
42D0B0
000000
000000
000000
ENDCHAR
STARTCHAR 4E00
ENCODING 19968
SWIDTH 1200 0
DWIDTH 20 0
BBX 20 20 0 -3
BITMAP
000000
000000
000000
000000
000000
000000
000000
000000
000000
FFFFE0
000000
000000
000000
000000
000000
000000
000000
000000
000000
000000
ENDCHAR
STARTCHAR 4E01
ENCODING 19969
SWIDTH 1200 0
DWIDTH 20 0
BBX 20 20 0 -3
BITMAP
000000
FFFFE0
004000
004000
004000
004000
004000
004000
004000
004000
004000
004000
004000
004000
004000
004000
004000
004000
004000
01C000
ENDCHAR
STARTCHAR 4E03
ENCODING 19971
SWIDTH 1200 0
DWIDTH 20 0
BBX 20 20 0 -3
BITMAP
010000
010000
010000
010000
010000
010000
0100E0
010F00
017000
078000
790000
010000
010000
010000
010000
010000
010040
010040
00FFC0
000000
ENDCHAR
STARTCHAR 4E07
ENCODING 19975
SWIDTH 1200 0
DWIDTH 20 0
BBX 20 20 0 -3
BITMAP
000000
000000
FFFFE0
010000
010000
010000
010000
010000
01FF00
010100
020100
020100
020100
040100
040100
080200
080200
100200
200400
401C00
ENDCHAR
STARTCHAR 4E08
ENCODING 19976
SWIDTH 1200 0
DWIDTH 20 0
BBX 20 20 0 -3
BITMAP
004000
004000
004000
004000
FFFFE0
004000
004000
044000
044000
024000
024000
014000
018000
008000
00C000
012000
021000
040C00
180300
E000E0
ENDCHAR
STARTCHAR 4E09
ENCODING 19977
SWIDTH 1200 0
DWIDTH 20 0
BBX 20 20 0 -3
BITMAP
000000
000000
000000
3FFF80
000000
000000
000000
000000
000000
000000
0FFE00
000000
000000
000000
000000
000000
000000
FFFFE0
000000
000000
ENDCHAR
STARTCHAR 4E0A
ENCODING 19978
SWIDTH 1200 0
DWIDTH 20 0
BBX 20 20 0 -3
BITMAP
004000
004000
004000
004000
004000
004000
004000
004000
007F80
004000
004000
004000
004000
004000
004000
004000
004000
004000
FFFFE0
000000
ENDCHAR
STARTCHAR 4E0B
ENCODING 19979
SWIDTH 1200 0
DWIDTH 20 0
BBX 20 20 0 -3
BITMAP
000000
000000
FFFFE0
004000
004000
004000
004000
006000
005800
004400
004200
004200
004000
004000
004000
004000
004000
004000
004000
004000
ENDCHAR
STARTCHAR 4E0D
ENCODING 19981
SWIDTH 1200 0
DWIDTH 20 0
BBX 20 20 0 -3
BITMAP
000000
000000
FFFFE0
002000
004000
004000
00C800
014400
024200
044100
084080
304040
C04040
004000
004000
004000
004000
004000
004000
004000
ENDCHAR
STARTCHAR 4E0E
ENCODING 19982
SWIDTH 1200 0
DWIDTH 20 0
BBX 20 20 0 -3
BITMAP
020000
020000
020000
020000
07FE00
040000
040000
040000
0FFC00
080400
000400
000400
FFFFE0
000800
000800
000800
001000
001000
002000
00E000
ENDCHAR
STARTCHAR 4E10
ENCODING 19984
SWIDTH 1200 0
DWIDTH 20 0
BBX 20 20 0 -3
BITMAP
000000
FFFFE0
004000
004000
004000
104000
107FC0
104000
104000
104000
3FFF80
200080
200080
000080
000080
000100
000100
000200
000400
001800
ENDCHAR
STARTCHAR 4E11
ENCODING 19985
SWIDTH 1200 0
DWIDTH 20 0
BBX 20 20 0 -3
BITMAP
000000
000000
7FFC00
010400
010400
010400
010400
020400
020400
FFFFE0
020400
020400
020400
040400
040400
040400
040400
040400
FFFFE0
000000
ENDCHAR
STARTCHAR 4E14
ENCODING 19988
SWIDTH 1200 0
DWIDTH 20 0
BBX 20 20 0 -3
BITMAP
000000
000000
07FC00
040400
040400
040400
040400
07FC00
040400
040400
040400
040400
07FC00
040400
040400
040400
040400
040400
FFFFE0
000000
ENDCHAR
STARTCHAR 4E15
ENCODING 19989
SWIDTH 1200 0
DWIDTH 20 0
BBX 20 20 0 -3
BITMAP
000000
000000
7FFFC0
004000
004000
008000
00CC00
014200
024100
044080
084080
304040
C04040
004000
004000
004000
004000
000000
FFFFE0
000000
ENDCHAR
STARTCHAR 4E16
ENCODING 19990
SWIDTH 1200 0
DWIDTH 20 0
BBX 20 20 0 -3
BITMAP
104200
104200
104200
104200
104200
104200
FFFFE0
104200
104200
104200
104200
104200
104200
107E00
100000
100000
100000
100000
1FFFC0
000000
ENDCHAR
STARTCHAR 4E17
ENCODING 19991
SWIDTH 1200 0
DWIDTH 20 0
BBX 20 20 0 -3
BITMAP
084200
084200
084200
084200
084200
084200
084200
084200
FFFFE0
084200
084200
084200
084200
084200
084200
084200
084200
084200
0FFE00
000000
ENDCHAR
STARTCHAR 4E18
ENCODING 19992
SWIDTH 1200 0
DWIDTH 20 0
BBX 20 20 0 -3
BITMAP
000000
000600
007800
0F8000
080000
080000
080000
080000
0FFF80
080800
080800
080800
080800
080800
080800
080800
080800
FFFFE0
000000
000000
ENDCHAR
STARTCHAR 4E19
ENCODING 19993
SWIDTH 1200 0
DWIDTH 20 0
BBX 20 20 0 -3
BITMAP
000000
FFFFE0
004000
004000
004000
3FFF80
204080
204080
20A080
209080
210880
220480
2C0480
200080
200080
200080
200080
200080
200080
200180
ENDCHAR
STARTCHAR 4E1E
ENCODING 19998
SWIDTH 1200 0
DWIDTH 20 0
BBX 20 20 0 -3
BITMAP
000000
1FFE00
000400
000800
001000
006080
004080
7F6100
025200
024C00
044400
084200
104100
204080
C04060
004000
00C000
000000
7FFFC0
000000
ENDCHAR
STARTCHAR 4E21
ENCODING 20001
SWIDTH 1200 0
DWIDTH 20 0
BBX 20 20 0 -3
BITMAP
000000
FFFFE0
004000
004000
004000
004000
7FFFC0
404040
404040
484240
484240
484240
484240
484240
4FFE40
480240
400040
400040
400040
4000C0
ENDCHAR
STARTCHAR 4E26
ENCODING 20006
SWIDTH 1200 0
DWIDTH 20 0
BBX 20 20 0 -3
BITMAP
080400
040400
020800
020800
001000
7FFFC0
011000
011000
011080
211080
111100
111100
091200
091200
091400
011000
011000
011000
FFFFE0
000000
ENDCHAR
STARTCHAR 4E2A
ENCODING 20010
SWIDTH 1200 0
DWIDTH 20 0
BBX 20 20 0 -3
BITMAP
004000
004000
00A000
009000
011000
020800
040400
084200
104100
204080
C04060
004000
004000
004000
004000
004000
004000
004000
004000
004000
ENDCHAR
STARTCHAR 4E2D
ENCODING 20013
SWIDTH 1200 0
DWIDTH 20 0
BBX 20 20 0 -3
BITMAP
004000
004000
004000
004000
004000
004000
7FFFC0
404040
404040
404040
404040
404040
7FFFC0
004000
004000
004000
004000
004000
004000
004000
ENDCHAR
STARTCHAR 4E31
ENCODING 20017
SWIDTH 1200 0
DWIDTH 20 0
BBX 20 20 0 -3
BITMAP
020800
020800
020800
420840
420840
420840
420840
420840
420840
420840
420840
420840
7E0FC0
020800
040800
040800
080800
080800
100800
600800
ENDCHAR
STARTCHAR 4E32
ENCODING 20018
SWIDTH 1200 0
DWIDTH 20 0
BBX 20 20 0 -3
BITMAP
004000
004000
004000
3FFF80
204080
204080
204080
3FFF80
004000
004000
004000
7FFFC0
404040
404040
404040
7FFFC0
004000
004000
004000
004000
ENDCHAR
STARTCHAR 4E36
ENCODING 20022
SWIDTH 1200 0
DWIDTH 20 0
BBX 20 20 0 -3
BITMAP
000000
000000
000000
000000
180000
060000
018000
004000
002000
001000
000800
000800
000400
000400
000200
000200
000000
000000
000000
000000
ENDCHAR
STARTCHAR 4E38
ENCODING 20024
SWIDTH 1200 0
DWIDTH 20 0
BBX 20 20 0 -3
BITMAP
010000
010000
010000
010000
010000
010000
7FFC00
010400
010400
010400
190400
060400
030400
028400
044400
044400
080420
080420
100420
6003E0
ENDCHAR
STARTCHAR 4E39
ENCODING 20025
SWIDTH 1200 0
DWIDTH 20 0
BBX 20 20 0 -3
BITMAP
000000
0FFE00
080200
080200
098200
084200
082200
081200
080200
080200
FFFFE0
080200
080200
100200
100200
100200
200200
200200
400200
800E00
ENDCHAR
STARTCHAR 4E3B
ENCODING 20027
SWIDTH 1200 0
DWIDTH 20 0
BBX 20 20 0 -3
BITMAP
010000
008000
004000
002000
000000
7FFFC0
004000
004000
004000
004000
004000
1FFF00
004000
004000
004000
004000
004000
004000
FFFFE0
000000
ENDCHAR
STARTCHAR 4E3C
ENCODING 20028
SWIDTH 1200 0
DWIDTH 20 0
BBX 20 20 0 -3
BITMAP
040400
040400
040400
040400
040400
7FFFC0
040400
048400
044400
042400
042400
040400
FFFFE0
040400
040400
080400
080400
100400
200400
400400
ENDCHAR
STARTCHAR 4E3F
ENCODING 20031
SWIDTH 1200 0
DWIDTH 20 0
BBX 20 20 0 -3
BITMAP
004000
004000
004000
004000
004000
004000
004000
004000
004000
004000
008000
008000
008000
010000
010000
020000
040000
080000
300000
C00000
ENDCHAR
STARTCHAR 4E42
ENCODING 20034
SWIDTH 1200 0
DWIDTH 20 0
BBX 20 20 0 -3
BITMAP
100200
100200
100200
280400
280400
480400
040800
040800
041000
021000
022000
012000
014000
008000
014000
022000
041000
080C00
300300
C000E0
ENDCHAR
STARTCHAR 4E43
ENCODING 20035
SWIDTH 1200 0
DWIDTH 20 0
BBX 20 20 0 -3
BITMAP
000000
7FFC00
020400
020400
020400
020800
020800
020800
021FC0
021040
040040
040040
040040
040040
080080
080080
100080
200100
400100
800E00
ENDCHAR
STARTCHAR 4E45
ENCODING 20037
SWIDTH 1200 0
DWIDTH 20 0
BBX 20 20 0 -3
BITMAP
010000
010000
010000
03F800
020800
020800
040800
040800
081000
081000
102800
202800
004400
004400
008200
010200
020100
040080
180040
600020
ENDCHAR
STARTCHAR 4E4B
ENCODING 20043
SWIDTH 1200 0
DWIDTH 20 0
BBX 20 20 0 -3
BITMAP
004000
004000
004000
004000
004000
7FFF00
000100
000200
000200
000400
000800
001000
002000
084000
088000
150000
220000
418000
807000
000FE0
ENDCHAR
STARTCHAR 4E4D
ENCODING 20045
SWIDTH 1200 0
DWIDTH 20 0
BBX 20 20 0 -3
BITMAP
080000
080000
080000
080000
1FFFE0
104000
204000
204000
404000
807FC0
004000
004000
004000
004000
007FC0
004000
004000
004000
004000
004000
ENDCHAR
STARTCHAR 4E4E
ENCODING 20046
SWIDTH 1200 0
DWIDTH 20 0
BBX 20 20 0 -3
BITMAP
000600
001800
006000
03C000
3C4100
004100
084200
044400
044800
004000
FFFFE0
004000
004000
004000
004000
004000
004000
004000
004000
01C000
ENDCHAR
STARTCHAR 4E4F
ENCODING 20047
SWIDTH 1200 0
DWIDTH 20 0
BBX 20 20 0 -3
BITMAP
000300
001C00
01E000
3E4000
004000
004000
004000
FFFF80
000100
000200
000C00
001000
002000
10C000
110000
2A0000
240000
438000
407000
800FE0
ENDCHAR
STARTCHAR 4E55
ENCODING 20053
SWIDTH 1200 0
DWIDTH 20 0
BBX 20 20 0 -3
BITMAP
000180
001E00
1FF000
101000
101000
1FFFE0
101000
101000
1FFFE0
101000
101000
101000
13FFC0
221040
221040
221040
421040
4211C0
801000
001000
ENDCHAR
STARTCHAR 4E56
ENCODING 20054
SWIDTH 1200 0
DWIDTH 20 0
BBX 20 20 0 -3
BITMAP
000300
000C00
00F000
3F4000
004000
004000
FFFFE0
004000
044400
044400
FC44E0
044700
044400
044400
1C4440
644440
844440
0443C0
004000
004000
ENDCHAR
STARTCHAR 4E57
ENCODING 20055
SWIDTH 1200 0
DWIDTH 20 0
BBX 20 20 0 -3
BITMAP
000600
00F800
1F4000
004000
004000
7FFFC0
084200
084200
FFFFE0
084200
084200
084200
7FFFC0
00E000
015000
024800
0C4600
304180
C04060
004000
ENDCHAR
STARTCHAR 4E58
ENCODING 20056
SWIDTH 1200 0
DWIDTH 20 0
BBX 20 20 0 -3
BITMAP
000600
007800
1FC000
004000
FFFFE0
004000
044400
0444E0
FC4700
044400
0C4400
344420
C4C3E0
016000
025000
044800
084600
304180
C04060
004000
ENDCHAR
STARTCHAR 4E59
ENCODING 20057
SWIDTH 1200 0
DWIDTH 20 0
BBX 20 20 0 -3
BITMAP
000000
3FFF00
000600
000800
003000
004000
008000
010000
020000
040000
080000
100000
200000
200000
400000
400000
200020
180020
07FFE0
000000
ENDCHAR
STARTCHAR 4E5D
ENCODING 20061
SWIDTH 1200 0
DWIDTH 20 0
BBX 20 20 0 -3
BITMAP
010000
010000
010000
010000
010000
010000
7FFC00
010400
010400
010400
020400
020400
020400
020400
040400
040400
080400
080420
100420
6003E0
ENDCHAR
STARTCHAR 4E5E
ENCODING 20062
SWIDTH 1200 0
DWIDTH 20 0
BBX 20 20 0 -3
BITMAP
080000
080000
080000
100000
1FFFE0
100000
200000
400000
07FF00
000C00
003000
00C000
010000
020000
040000
080000
100000
100040
080040
07FFC0
ENDCHAR
STARTCHAR 4E5F
ENCODING 20063
SWIDTH 1200 0
DWIDTH 20 0
BBX 20 20 0 -3
BITMAP
002000
082000
082000
082000
082000
082780
087880
0BA080
1C2080
E82080
082080
082080
082380
082000
082000
082000
080000
080020
080020
07FFE0
ENDCHAR
STARTCHAR 4E62
ENCODING 20066
SWIDTH 1200 0
DWIDTH 20 0
BBX 20 20 0 -3
BITMAP
040400
040400
040400
040400
444400
444400
444400
444400
444400
444400
444400
444400
444400
444400
444400
7FC400
400400
000420
000420
0003E0
ENDCHAR
STARTCHAR 4E71
ENCODING 20081
SWIDTH 1200 0
DWIDTH 20 0
BBX 20 20 0 -3
BITMAP
00C800
030800
3E0800
020800
020800
020800
020800
7FE800
020800
020800
020800
020800
3FC800
204800
204800
204800
204800
204820
3FC820
0007E0
ENDCHAR
STARTCHAR 4E73
ENCODING 20083
SWIDTH 1200 0
DWIDTH 20 0
BBX 20 20 0 -3
BITMAP
002400
01C400
7E0400
004400
244400
124400
128400
008400
010400
3FE400
004400
008400
010400
020400
07E400
7A0400
020400
020420
020420
0603E0
ENDCHAR
STARTCHAR 4E7E
ENCODING 20094
SWIDTH 1200 0
DWIDTH 20 0
BBX 20 20 0 -3
BITMAP
081000
081000
081000
FF1000
083FE0
082000
7F4000
414000
419F80
7F0080
410100
410200
7F0400
080800
081000
FF9000
082000
082020
082020
081FE0
ENDCHAR
STARTCHAR 4E80
ENCODING 20096
SWIDTH 1200 0
DWIDTH 20 0
BBX 20 20 0 -3
BITMAP
020000
020000
07FC00
080800
101000
2FFF00
C84100
0FFF00
084100
0FFF00
004000
004000
1FFF80
104080
1FFF80
104080
1FFF80
004020
004020
003FE0
ENDCHAR
STARTCHAR 4E82
ENCODING 20098
SWIDTH 1200 0
DWIDTH 20 0
BBX 20 20 0 -3
BITMAP
000400
03E400
7C0400
484400
244400
248400
FFC400
008400
1B0400
040400
FFE400
882400
892400
912400
BEA400
802400
992400
862420
8A2420
B163E0
ENDCHAR
STARTCHAR 4E85
ENCODING 20101
SWIDTH 1200 0
DWIDTH 20 0
BBX 20 20 0 -3
BITMAP
004000
004000
004000
004000
004000
004000
004000
004000
004000
004000
004000
004000
004000
004000
004000
004000
004000
004000
004000
01C000
ENDCHAR
STARTCHAR 4E86
ENCODING 20102
SWIDTH 1200 0
DWIDTH 20 0
BBX 20 20 0 -3
BITMAP
000000
1FFFC0
000080
000300
000C00
003000
002000
002000
002000
002000
002000
002000
002000
002000
002000
002000
002000
002000
002000
00E000
ENDCHAR
STARTCHAR 4E88
ENCODING 20104
SWIDTH 1200 0
DWIDTH 20 0
BBX 20 20 0 -3
BITMAP
000000
0FFF00
000200
000400
008800
005000
002000
002000
7FFFE0
002020
002040
002080
002100
002000
002000
002000
002000
002000
002000
00E000
ENDCHAR
STARTCHAR 4E89
ENCODING 20105
SWIDTH 1200 0
DWIDTH 20 0
BBX 20 20 0 -3
BITMAP
020000
020000
07F800
081000
102000
204000
DFFE00
008200
008200
FFFFE0
008200
008200
008200
3FFE00
008000
008000
008000
008000
008000
038000
ENDCHAR
STARTCHAR 4E8A
ENCODING 20106
SWIDTH 1200 0
DWIDTH 20 0
BBX 20 20 0 -3
BITMAP
004000
004000
004000
7FFFC0
084200
044200
044400
044800
3FFF00
004100
004100
FFFFE0
004100
004100
3FFF00
004000
004000
004000
004000
01C000
ENDCHAR
STARTCHAR 4E8B
ENCODING 20107
SWIDTH 1200 0
DWIDTH 20 0
BBX 20 20 0 -3
BITMAP
004000
004000
7FFFC0
004000
004000
0FFE00
084200
084200
0FFE00
004000
1FFF00
004100
FFFFE0
004100
004100
1FFF00
004000
004000
004000
00C000
ENDCHAR
STARTCHAR 4E8C
ENCODING 20108
SWIDTH 1200 0
DWIDTH 20 0
BBX 20 20 0 -3
BITMAP
000000
000000
000000
1FFF00
000000
000000
000000
000000
000000
000000
000000
000000
000000
000000
000000
000000
FFFFE0
000000
000000
000000
ENDCHAR
STARTCHAR 4E8E
ENCODING 20110
SWIDTH 1200 0
DWIDTH 20 0
BBX 20 20 0 -3
BITMAP
000000
3FFF80
004000
004000
004000
004000
004000
004000
004000
FFFFE0
004000
004000
004000
004000
004000
004000
004000
004000
004000
01C000
ENDCHAR
STARTCHAR 4E91
ENCODING 20113
SWIDTH 1200 0
DWIDTH 20 0
BBX 20 20 0 -3
BITMAP
000000
000000
1FFF00
000000
000000
000000
000000
000000
FFFFE0
008000
010000
010000
020000
020400
040200
040100
080E80
09F080
7E0040
000040
ENDCHAR
STARTCHAR 4E92
ENCODING 20114
SWIDTH 1200 0
DWIDTH 20 0
BBX 20 20 0 -3
BITMAP
000000
7FFFC0
010000
010000
020000
020000
020000
07FE00
040200
040200
080400
080400
0FFC00
000800
000800
000800
001000
001000
FFFFE0
000000
ENDCHAR
STARTCHAR 4E94
ENCODING 20116
SWIDTH 1200 0
DWIDTH 20 0
BBX 20 20 0 -3
BITMAP
000000
1FFF00
004000
004000
004000
008000
008000
008000
008000
0FFC00
010400
010400
010400
010400
020400
020400
020400
020400
FFFFE0
000000
ENDCHAR
STARTCHAR 4E95
ENCODING 20117
SWIDTH 1200 0
DWIDTH 20 0
BBX 20 20 0 -3
BITMAP
020800
020800
020800
020800
020800
7FFFC0
020800
020800
020800
020800
020800
020800
FFFFE0
040800
040800
040800
080800
080800
100800
200800
ENDCHAR
STARTCHAR 4E98
ENCODING 20120
SWIDTH 1200 0
DWIDTH 20 0
BBX 20 20 0 -3
BITMAP
000000
7FFFC0
000000
000000
000000
0FFE00
080200
080200
080200
0FFE00
080200
080200
080200
080200
0FFE00
000000
000000
000000
FFFFE0
000000
ENDCHAR
STARTCHAR 4E99
ENCODING 20121
SWIDTH 1200 0
DWIDTH 20 0
BBX 20 20 0 -3
BITMAP
000000
7FFFC0
020000
020000
020000
07FE00
040200
048200
044200
042400
082400
090400
088400
084400
104800
100800
000800
000800
FFFFE0
000000
ENDCHAR
STARTCHAR 4E9B
ENCODING 20123
SWIDTH 1200 0
DWIDTH 20 0
BBX 20 20 0 -3
BITMAP
082000
082000
082000
082080
4FA300
483C00
482000
482000
482000
4BA040
5C2040
E01FC0
000000
000000
1FFF00
000000
000000
000000
FFFFE0
000000
ENDCHAR
STARTCHAR 4E9C
ENCODING 20124
SWIDTH 1200 0
DWIDTH 20 0
BBX 20 20 0 -3
BITMAP
000000
7FFFC0
021000
021000
021000
021000
3FFF00
221100
221100
221100
221100
221100
3FFF00
021000
021000
021000
021000
021000
FFFFE0
000000
ENDCHAR
STARTCHAR 4E9E
ENCODING 20126
SWIDTH 1200 0
DWIDTH 20 0
BBX 20 20 0 -3
BITMAP
000000
7FFFC0
020800
020800
020800
020800
7E0FC0
400040
400040
400040
400040
400040
7E0FC0
020800
020800
020800
020800
020800
FFFFE0
000000
ENDCHAR
STARTCHAR 4E9F
ENCODING 20127
SWIDTH 1200 0
DWIDTH 20 0
BBX 20 20 0 -3
BITMAP
000000
7FFFC0
020000
020000
020000
07C000
004000
005FC0
7C4840
444840
444480
444500
7C4200
008500
008880
00B060
030000
000000
FFFFE0
000000
ENDCHAR
STARTCHAR 4EA0
ENCODING 20128
SWIDTH 1200 0
DWIDTH 20 0
BBX 20 20 0 -3
BITMAP
000000
000000
000000
000000
000000
000000
004000
004000
004000
004000
004000
FFFFE0
000000
000000
000000
000000
000000
000000
000000
000000
ENDCHAR
STARTCHAR 4EA1
ENCODING 20129
SWIDTH 1200 0
DWIDTH 20 0
BBX 20 20 0 -3
BITMAP
004000
004000
004000
004000
004000
FFFFE0
080000
080000
080000
080000
080000
080000
080000
080000
080000
080000
080000
080000
07FF80
000000
ENDCHAR
STARTCHAR 4EA2
ENCODING 20130
SWIDTH 1200 0
DWIDTH 20 0
BBX 20 20 0 -3
BITMAP
004000
004000
004000
004000
FFFFE0
000000
000000
000000
03F800
020800
020800
020800
020800
020800
040800
040800
080800
100820
200820
C007E0
ENDCHAR
STARTCHAR 4EA4
ENCODING 20132
SWIDTH 1200 0
DWIDTH 20 0
BBX 20 20 0 -3
BITMAP
004000
004000
004000
FFFFE0
000000
040C00
040300
080080
140840
240840
C20800
021000
011000
00A000
004000
00A000
011000
060C00
180300
E000E0
ENDCHAR
STARTCHAR 4EA5
ENCODING 20133
SWIDTH 1200 0
DWIDTH 20 0
BBX 20 20 0 -3
BITMAP
004000
004000
004000
004000
FFFFE0
004000
008000
010800
0A0800
041100
022100
014200
018400
020800
0C1000
702C00
00C200
030100
0C0080
700040
ENDCHAR
STARTCHAR 4EA6
ENCODING 20134
SWIDTH 1200 0
DWIDTH 20 0
BBX 20 20 0 -3
BITMAP
004000
004000
004000
004000
FFFFE0
010800
010800
010800
110A00
110900
110880
210840
220840
420820
820820
020800
040800
040800
080800
101800
ENDCHAR
STARTCHAR 4EA8
ENCODING 20136
SWIDTH 1200 0
DWIDTH 20 0
BBX 20 20 0 -3
BITMAP
004000
004000
004000
FFFFE0
000000
0FFE00
080200
080200
0FFE00
000000
000000
7FFF80
000600
001800
006000
004000
004000
004000
004000
01C000
ENDCHAR
STARTCHAR 4EAB
ENCODING 20139
SWIDTH 1200 0
DWIDTH 20 0
BBX 20 20 0 -3
BITMAP
004000
004000
FFFFE0
000000
0FFE00
080200
080200
0FFE00
000000
3FFF00
000600
001800
006000
004000
FFFFE0
004000
004000
004000
004000
01C000
ENDCHAR
STARTCHAR 4EAC
ENCODING 20140
SWIDTH 1200 0
DWIDTH 20 0
BBX 20 20 0 -3
BITMAP
004000
004000
004000
FFFFE0
000000
000000
0FFE00
080200
080200
080200
080200
0FFE00
004000
004000
044C00
044200
084100
104080
604040
01C000
ENDCHAR
STARTCHAR 4EAD
ENCODING 20141
SWIDTH 1200 0
DWIDTH 20 0
BBX 20 20 0 -3
BITMAP
004000
004000
004000
FFFFE0
000000
0FFE00
080200
080200
0FFE00
000000
FFFFE0
800020
800020
1FFF00
004000
004000
004000
004000
004000
01C000
ENDCHAR
STARTCHAR 4EAE
ENCODING 20142
SWIDTH 1200 0
DWIDTH 20 0
BBX 20 20 0 -3
BITMAP
004000
004000
004000
FFFFE0
000000
0FFE00
080200
080200
0FFE00
000000
FFFFE0
800020
821020
821020
021000
041000
041000
081040
301040
C00FC0
ENDCHAR
STARTCHAR 4EB0
ENCODING 20144
SWIDTH 1200 0
DWIDTH 20 0
BBX 20 20 0 -3
BITMAP
004000
004000
004000
FFFFE0
000000
000000
0FFE00
080200
080200
0FFE00
080200
080200
0FFE00
004000
044C00
084200
104100
204080
C04040
01C000
ENDCHAR
STARTCHAR 4EB3
ENCODING 20147
SWIDTH 1200 0
DWIDTH 20 0
BBX 20 20 0 -3
BITMAP
004000
004000
004000
7FFFC0
000000
0FFE00
080200
0FFE00
000000
FFFFE0
800020
800C20
807020
0FC000
004000
007F80
7FC000
004040
004040
003FC0
ENDCHAR
STARTCHAR 4EB6
ENCODING 20150
SWIDTH 1200 0
DWIDTH 20 0
BBX 20 20 0 -3
BITMAP
004000
004000
FFFFE0
000000
1FFF00
100100
13F900
120900
13F900
100100
1FFF00
000000
0FFE00
080200
0FFE00
080200
0FFE00
000000
FFFFE0
000000
ENDCHAR
STARTCHAR 4EBA
ENCODING 20154
SWIDTH 1200 0
DWIDTH 20 0
BBX 20 20 0 -3
BITMAP
004000
004000
004000
004000
004000
004000
004000
004000
00A000
00A000
00A000
011000
011000
020800
020800
040400
080200
100100
200080
C00060
ENDCHAR
STARTCHAR 4EC0
ENCODING 20160
SWIDTH 1200 0
DWIDTH 20 0
BBX 20 20 0 -3
BITMAP
080800
080800
080800
100800
100800
300800
300800
53FFE0
500800
900800
900800
100800
100800
100800
100800
100800
100800
100800
100800
100800
ENDCHAR
STARTCHAR 4EC1
ENCODING 20161
SWIDTH 1200 0
DWIDTH 20 0
BBX 20 20 0 -3
BITMAP
040000
040000
040000
080000
08FFC0
080000
180000
180000
280000
280000
480000
880000
080000
080000
080000
080000
09FFE0
080000
080000
080000
ENDCHAR
STARTCHAR 4EC2
ENCODING 20162
SWIDTH 1200 0
DWIDTH 20 0
BBX 20 20 0 -3
BITMAP
081000
081000
081000
101000
101000
101000
33FFC0
301040
501040
501040
902040
102040
102040
102040
104080
104080
108080
108100
110100
120600
ENDCHAR
STARTCHAR 4EC4
ENCODING 20164
SWIDTH 1200 0
DWIDTH 20 0
BBX 20 20 0 -3
BITMAP
000000
1FFFE0
100000
102000
102000
102000
102000
102000
102000
102000
105000
105000
204800
208800
208400
210400
410200
420100
840080
180060
ENDCHAR
STARTCHAR 4EC6
ENCODING 20166
SWIDTH 1200 0
DWIDTH 20 0
BBX 20 20 0 -3
BITMAP
020800
020800
040800
040800
080800
080800
180C00
180A00
280900
480880
880840
080820
080820
080800
080800
080800
080800
080800
080800
080800
ENDCHAR
STARTCHAR 4EC7
ENCODING 20167
SWIDTH 1200 0
DWIDTH 20 0
BBX 20 20 0 -3
BITMAP
041000
041000
041000
081000
081000
081000
19FF00
181100
281100
281100
481100
081100
081100
082100
082100
082100
084100
084120
088120
0900E0
ENDCHAR
STARTCHAR 4ECA
ENCODING 20170
SWIDTH 1200 0
DWIDTH 20 0
BBX 20 20 0 -3
BITMAP
004000
00A000
011000
020800
040400
080200
100100
200080
CFFC60
000000
000000
000000
1FFE00
000200
000400
000400
000800
001000
002000
00C000
ENDCHAR
STARTCHAR 4ECB
ENCODING 20171
SWIDTH 1200 0
DWIDTH 20 0
BBX 20 20 0 -3
BITMAP
004000
004000
00A000
011000
020800
040400
080200
300180
C40860
040800
040800
040800
040800
040800
040800
080800
080800
100800
200800
400800
ENDCHAR
STARTCHAR 4ECD
ENCODING 20173
SWIDTH 1200 0
DWIDTH 20 0
BBX 20 20 0 -3
BITMAP
080000
0BFE00
084200
104200
104200
104200
304400
304400
5047C0
508040
908040
108040
108040
108040
110080
110080
110080
120100
120100
140600
ENDCHAR
STARTCHAR 4ECE
ENCODING 20174
SWIDTH 1200 0
DWIDTH 20 0
BBX 20 20 0 -3
BITMAP
080400
080400
080400
080400
080400
080400
080400
080400
080400
080400
080400
140A00
120900
120900
211080
211080
402040
402040
804020
008020
ENDCHAR
STARTCHAR 4ECF
ENCODING 20175
SWIDTH 1200 0
DWIDTH 20 0
BBX 20 20 0 -3
BITMAP
040800
040800
040800
080800
080800
101000
101000
301000
301000
502000
902000
102100
102080
104080
104040
104040
1083C0
109C20
13E020
100020
ENDCHAR
STARTCHAR 4ED4
ENCODING 20180
SWIDTH 1200 0
DWIDTH 20 0
BBX 20 20 0 -3
BITMAP
080000
09FFC0
080080
100100
100200
100C00
300800
300800
500800
500800
93FFE0
100800
100800
100800
100800
100800
100800
100800
100800
103800
ENDCHAR
STARTCHAR 4ED5
ENCODING 20181
SWIDTH 1200 0
DWIDTH 20 0
BBX 20 20 0 -3
BITMAP
080800
080800
080800
100800
100800
100800
300800
33FFE0
500800
500800
900800
100800
100800
100800
100800
100800
100800
100800
11FFC0
100000
ENDCHAR
STARTCHAR 4ED6
ENCODING 20182
SWIDTH 1200 0
DWIDTH 20 0
BBX 20 20 0 -3
BITMAP
040800
048800
048800
088800
0888C0
108B40
108C40
309840
30E840
518840
968840
108840
108840
1088C0
108800
108800
108000
108020
108020
107FE0
ENDCHAR
STARTCHAR 4ED7
ENCODING 20183
SWIDTH 1200 0
DWIDTH 20 0
BBX 20 20 0 -3
BITMAP
080800
080800
080800
100800
13FFE0
100800
300800
304800
504800
504800
90A800
112800
101000
101000
102800
102400
104200
108100
110080
160060
ENDCHAR
STARTCHAR 4ED8
ENCODING 20184
SWIDTH 1200 0
DWIDTH 20 0
BBX 20 20 0 -3
BITMAP
080200
080200
080200
100200
100200
13FFE0
300200
300200
500200
518200
904200
102200
102200
100200
100200
100200
100200
100200
100200
100E00
ENDCHAR
STARTCHAR 4ED9
ENCODING 20185
SWIDTH 1200 0
DWIDTH 20 0
BBX 20 20 0 -3
BITMAP
080800
080800
080800
100800
100800
110840
310840
310840
510840
510840
910840
110840
110840
110840
110840
110840
110840
11FFC0
110000
100000
ENDCHAR
STARTCHAR 4EDD
ENCODING 20189
SWIDTH 1200 0
DWIDTH 20 0
BBX 20 20 0 -3
BITMAP
004000
004000
00A000
00A000
011000
020800
040400
080200
100100
200080
C7FC60
004000
004000
004000
004000
004000
004000
004000
7FFFC0
000000
ENDCHAR
STARTCHAR 4EDE
ENCODING 20190
SWIDTH 1200 0
DWIDTH 20 0
BBX 20 20 0 -3
BITMAP
080000
09FFC0
080840
100840
100840
100840
304840
304840
508840
508840
910840
101040
101040
101040
102080
102080
104080
104100
108100
110600
ENDCHAR
STARTCHAR 4EDF
ENCODING 20191
SWIDTH 1200 0
DWIDTH 20 0
BBX 20 20 0 -3
BITMAP
080180
080600
083800
11C800
100800
100800
300800
300800
500800
53FFE0
900800
100800
100800
100800
100800
100800
100800
100800
100800
100800
ENDCHAR
STARTCHAR 4EE3
ENCODING 20195
SWIDTH 1200 0
DWIDTH 20 0
BBX 20 20 0 -3
BITMAP
082000
082600
082100
102080
102000
302000
37FFE0
502000
502000
902000
902000
101000
101000
101000
100800
100800
100440
100240
1001C0
100040
ENDCHAR
STARTCHAR 4EE4
ENCODING 20196
SWIDTH 1200 0
DWIDTH 20 0
BBX 20 20 0 -3
BITMAP
004000
004000
00A000
011000
020800
040400
080200
37FD80
C00060
000000
1FFF00
004100
004100
004100
004100
004100
004700
004000
004000
004000
ENDCHAR
STARTCHAR 4EE5
ENCODING 20197
SWIDTH 1200 0
DWIDTH 20 0
BBX 20 20 0 -3
BITMAP
000000
100100
100100
100100
110100
108100
104100
102100
102200
100200
100200
100200
100600
100500
118880
161080
182040
304040
C18020
060020
ENDCHAR
STARTCHAR 4EED
ENCODING 20205
SWIDTH 1200 0
DWIDTH 20 0
BBX 20 20 0 -3
BITMAP
080000
0BFF80
081080
101080
101080
101080
311080
311080
52A080
526080
942080
103080
102D00
104300
104180
104160
108100
108200
110200
120C00
ENDCHAR
STARTCHAR 4EEE
ENCODING 20206
SWIDTH 1200 0
DWIDTH 20 0
BBX 20 20 0 -3
BITMAP
080000
080000
08FFE0
108000
108000
108000
308000
30FF80
50A080
50A080
90A100
111100
111200
110A00
110400
120C00
121200
142100
10C080
130060
ENDCHAR
STARTCHAR 4EF0
ENCODING 20208
SWIDTH 1200 0
DWIDTH 20 0
BBX 20 20 0 -3
BITMAP
081000
082000
094000
118FC0
110840
110840
310840
310840
510840
510840
910840
110840
110840
110840
116840
118840
1608C0
100800
100800
100800
ENDCHAR
STARTCHAR 4EF2
ENCODING 20210
SWIDTH 1200 0
DWIDTH 20 0
BBX 20 20 0 -3
BITMAP
080800
080800
080800
100800
100800
11FFC0
310840
310840
510840
510840
910840
110840
11FFC0
100800
100800
100800
100800
100800
100800
100800
ENDCHAR
STARTCHAR 4EF6
ENCODING 20214
SWIDTH 1200 0
DWIDTH 20 0
BBX 20 20 0 -3
BITMAP
080800
088800
088800
108800
108800
11FFC0
310800
320800
540800
500800
900800
13FFE0
100800
100800
100800
100800
100800
100800
100800
100800
ENDCHAR
STARTCHAR 4EF7
ENCODING 20215
SWIDTH 1200 0
DWIDTH 20 0
BBX 20 20 0 -3
BITMAP
081000
081000
082800
102400
104200
104100
308080
310040
564220
504200
904200
104200
104200
104200
108200
108200
108200
110200
110200
120200
ENDCHAR
STARTCHAR 4EFB
ENCODING 20219
SWIDTH 1200 0
DWIDTH 20 0
BBX 20 20 0 -3
BITMAP
080180
080600
083800
11C800
100800
100800
300800
300800
500800
57FFE0
900800
900800
100800
100800
100800
100800
100800
100800
13FFC0
100000
ENDCHAR
STARTCHAR 4F01
ENCODING 20225
SWIDTH 1200 0
DWIDTH 20 0
BBX 20 20 0 -3
BITMAP
004000
004000
00A000
00A000
011000
020800
040400
084200
304180
C04060
084000
084000
087F00
084000
084000
084000
084000
084000
7FFFC0
000000
ENDCHAR
STARTCHAR 4F09
ENCODING 20233
SWIDTH 1200 0
DWIDTH 20 0
BBX 20 20 0 -3
BITMAP
080800
080800
080800
100800
13FFE0
100000
300000
300000
507E00
504200
904200
104200
104200
104200
104200
108200
108200
108220
110220
1201E0
ENDCHAR
STARTCHAR 4F0A
ENCODING 20234
SWIDTH 1200 0
DWIDTH 20 0
BBX 20 20 0 -3
BITMAP
080000
080000
09FF80
101080
101080
101080
301080
33FFE0
501080
501080
901080
101080
11FF80
101000
101000
102000
102000
104000
108000
130000
ENDCHAR
STARTCHAR 4F0D
ENCODING 20237
SWIDTH 1200 0
DWIDTH 20 0
BBX 20 20 0 -3
BITMAP
080000
09FF80
082000
102000
102000
302000
302000
502000
502000
93FE00
904200
104200
104200
104200
104200
104200
104200
104200
17FFE0
100000
ENDCHAR
STARTCHAR 4F0E
ENCODING 20238
SWIDTH 1200 0
DWIDTH 20 0
BBX 20 20 0 -3
BITMAP
080800
080800
080800
11FFE0
100800
100800
300800
31FF80
504080
504080
904100
102200
102200
101400
100800
101400
102200
104100
118080
160060
ENDCHAR
STARTCHAR 4F0F
ENCODING 20239
SWIDTH 1200 0
DWIDTH 20 0
BBX 20 20 0 -3
BITMAP
040900
040880
080840
080840
100800
100800
33FFE0
300800
500800
901400
101400
101400
101400
102200
102200
104100
104100
108080
110040
120020
ENDCHAR
STARTCHAR 4F10
ENCODING 20240
SWIDTH 1200 0
DWIDTH 20 0
BBX 20 20 0 -3
BITMAP
082000
082300
082080
102040
102000
102000
303FE0
37E000
501000
501080
901080
100900
100A00
100400
100C00
101200
102200
10C120
1300A0
100060
ENDCHAR
STARTCHAR 4F11
ENCODING 20241
SWIDTH 1200 0
DWIDTH 20 0
BBX 20 20 0 -3
BITMAP
081000
081000
081000
101000
101000
17FFE0
303800
303400
505400
505400
905200
109200
109100
111100
111080
121080
141040
101000
101000
101000
ENDCHAR
STARTCHAR 4F1A
ENCODING 20250
SWIDTH 1200 0
DWIDTH 20 0
BBX 20 20 0 -3
BITMAP
004000
00A000
011000
020800
040400
080200
300180
CFFC60
000000
000000
000000
7FFFC0
008000
010000
020800
020400
041A00
08E200
3F0100
000100
ENDCHAR
STARTCHAR 4F1C
ENCODING 20252
SWIDTH 1200 0
DWIDTH 20 0
BBX 20 20 0 -3
BITMAP
081000
081000
081000
13FE00
102200
102200
304200
304200
508220
5301E0
901000
101000
101000
17FFE0
101000
101000
101000
101000
101000
101000
ENDCHAR
STARTCHAR 4F1D
ENCODING 20253
SWIDTH 1200 0
DWIDTH 20 0
BBX 20 20 0 -3
BITMAP
080000
080000
08FFC0
100000
100000
100000
300000
300000
53FFE0
501000
901000
101000
102000
102100
104080
104080
108340
109C40
11E020
100020
ENDCHAR
STARTCHAR 4F2F
ENCODING 20271
SWIDTH 1200 0
DWIDTH 20 0
BBX 20 20 0 -3
BITMAP
040400
040400
040800
081000
08FFC0
088040
188040
188040
288040
288040
488040
08FFC0
088040
088040
088040
088040
088040
088040
08FFC0
080000
ENDCHAR
STARTCHAR 4F30
ENCODING 20272
SWIDTH 1200 0
DWIDTH 20 0
BBX 20 20 0 -3
BITMAP
080800
080800
080800
100800
100800
13FFE0
300800
300800
500800
500800
900800
10FF80
108080
108080
108080
108080
108080
108080
10FF80
100000
ENDCHAR
STARTCHAR 4F34
ENCODING 20276
SWIDTH 1200 0
DWIDTH 20 0
BBX 20 20 0 -3
BITMAP
080800
090880
088880
104900
104A00
100800
300800
31FFC0
500800
500800
900800
100800
13FFE0
100800
100800
100800
100800
100800
100800
100800
ENDCHAR
STARTCHAR 4F36
ENCODING 20278
SWIDTH 1200 0
DWIDTH 20 0
BBX 20 20 0 -3
BITMAP
081000
081000
082800
102400
104200
108100
310080
320040
54FF20
500000
900000
13FF80
101080
101080
101080
101080
101380
101000
101000
101000
ENDCHAR
STARTCHAR 4F38
ENCODING 20280
SWIDTH 1200 0
DWIDTH 20 0
BBX 20 20 0 -3
BITMAP
080800
080800
080800
100800
11FFC0
110840
310840
310840
51FFC0
510840
910840
110840
110840
11FFC0
100800
100800
100800
100800
100800
100800
ENDCHAR
STARTCHAR 4F3A
ENCODING 20282
SWIDTH 1200 0
DWIDTH 20 0
BBX 20 20 0 -3
BITMAP
080000
09FFC0
080040
100040
100040
10FC40
300040
300040
500040
50FC40
908440
108440
108440
108440
10FC40
108040
100040
100040
100040
1001C0
ENDCHAR
STARTCHAR 4F3C
ENCODING 20284
SWIDTH 1200 0
DWIDTH 20 0
BBX 20 20 0 -3
BITMAP
080000
080080
090080
110080
110080
112080
311080
310880
510880
510900
910100
110100
110100
112200
114300
118480
110840
121040
142020
10C020
ENDCHAR
STARTCHAR 4F3D
ENCODING 20285
SWIDTH 1200 0
DWIDTH 20 0
BBX 20 20 0 -3
BITMAP
088000
088000
088000
108000
17F7C0
109440
309440
309440
509440
509440
909440
109440
109440
111440
111440
111440
111440
1227C0
122400
146000
ENDCHAR
STARTCHAR 4F43
ENCODING 20291
SWIDTH 1200 0
DWIDTH 20 0
BBX 20 20 0 -3
BITMAP
080000
080000
09FFC0
110840
110840
110840
310840
310840
510840
510840
91FFC0
110840
110840
110840
110840
110840
110840
110840
11FFC0
100000
ENDCHAR
STARTCHAR 4F46
ENCODING 20294
SWIDTH 1200 0
DWIDTH 20 0
BBX 20 20 0 -3
BITMAP
080000
080000
08FF80
108080
108080
108080
308080
308080
50FF80
508080
908080
108080
108080
108080
10FF80
100000
100000
100000
13FFE0
100000
ENDCHAR
STARTCHAR 4F47
ENCODING 20295
SWIDTH 1200 0
DWIDTH 20 0
BBX 20 20 0 -3
BITMAP
080800
080800
080800
13FFE0
120020
120020
300000
300000
53FFE0
500800
900800
100800
100800
100800
100800
100800
100800
100800
100800
103800
ENDCHAR
STARTCHAR 4F4D
ENCODING 20301
SWIDTH 1200 0
DWIDTH 20 0
BBX 20 20 0 -3
BITMAP
080800
080800
080800
100800
100800
11FFC0
300000
300100
510100
508100
908100
104200
104200
104200
104200
100400
100400
100400
13FFE0
100000
ENDCHAR
STARTCHAR 4F4E
ENCODING 20302
SWIDTH 1200 0
DWIDTH 20 0
BBX 20 20 0 -3
BITMAP
080040
080180
080E00
10F200
108200
308200
308200
308200
50FFE0
508200
908200
108200
108200
108100
10B100
11C100
160080
1000A0
13FE60
100020
ENDCHAR
STARTCHAR 4F4F
ENCODING 20303
SWIDTH 1200 0
DWIDTH 20 0
BBX 20 20 0 -3
BITMAP
042000
041000
040800
080800
080000
13FFC0
101000
301000
301000
501000
901000
11FF80
101000
101000
101000
101000
101000
101000
17FFE0
100000
ENDCHAR
STARTCHAR 4F50
ENCODING 20304
SWIDTH 1200 0
DWIDTH 20 0
BBX 20 20 0 -3
BITMAP
041000
041000
081000
081000
101000
13FFE0
302000
302000
502000
904000
107FC0
108400
108400
110400
120400
140400
100400
100400
11FFE0
100000
ENDCHAR
STARTCHAR 4F51
ENCODING 20305
SWIDTH 1200 0
DWIDTH 20 0
BBX 20 20 0 -3
BITMAP
041000
041000
081000
081000
101000
13FFE0
302000
302000
504000
904000
10FF80
114080
124080
144080
104080
104080
104080
104080
107F80
100000
ENDCHAR
STARTCHAR 4F53
ENCODING 20307
SWIDTH 1200 0
DWIDTH 20 0
BBX 20 20 0 -3
BITMAP
081000
081000
081000
101000
101000
17FFE0
303800
305400
505400
505200
909200
109100
111100
121080
141040
19FF20
101000
101000
101000
101000
ENDCHAR
STARTCHAR 4F55
ENCODING 20309
SWIDTH 1200 0
DWIDTH 20 0
BBX 20 20 0 -3
BITMAP
080000
080000
0BFFE0
100080
100080
100080
31F880
310880
510880
510880
910880
110880
11F880
110080
100080
100080
100080
100080
100080
100380
ENDCHAR
STARTCHAR 4F57
ENCODING 20311
SWIDTH 1200 0
DWIDTH 20 0
BBX 20 20 0 -3
BITMAP
080800
080800
080800
100800
13FFE0
120020
320020
320020
504000
504000
9040C0
104300
104C00
107000
104000
104000
104000
104040
104040
103FC0
ENDCHAR
STARTCHAR 4F59
ENCODING 20313
SWIDTH 1200 0
DWIDTH 20 0
BBX 20 20 0 -3
BITMAP
004000
004000
00A000
011000
020800
040400
080200
300180
CFFE60
004000
004000
004000
7FFFC0
004000
084400
084200
104100
204080
C04080
00C000
ENDCHAR
STARTCHAR 4F5A
ENCODING 20314
SWIDTH 1200 0
DWIDTH 20 0
BBX 20 20 0 -3
BITMAP
088800
088800
088800
108800
110800
11FFC0
320800
320800
540800
500800
93FFE0
101400
101400
102200
102200
104100
104100
108080
110040
120020
ENDCHAR
STARTCHAR 4F5B
ENCODING 20315
SWIDTH 1200 0
DWIDTH 20 0
BBX 20 20 0 -3
BITMAP
082400
082400
082400
13FFC0
102440
102440
302440
31FFC0
512400
512400
922400
13FFC0
102440
102440
104440
104440
108440
1084C0
110400
120400
ENDCHAR
STARTCHAR 4F5C
ENCODING 20316
SWIDTH 1200 0
DWIDTH 20 0
BBX 20 20 0 -3
BITMAP
042000
042000
042000
084000
087FE0
185000
189000
289000
291000
4A1FC0
881000
081000
081000
081000
081FC0
081000
081000
081000
081000
081000
ENDCHAR
STARTCHAR 4F5D
ENCODING 20317
SWIDTH 1200 0
DWIDTH 20 0
BBX 20 20 0 -3
BITMAP
088000
088000
088000
108000
11FFC0
110040
320040
320040
54FC40
508440
908440
108440
108440
10FC40
100080
100080
100080
100100
100100
100600
ENDCHAR
STARTCHAR 4F5E
ENCODING 20318
SWIDTH 1200 0
DWIDTH 20 0
BBX 20 20 0 -3
BITMAP
080000
08FF80
080000
100000
100000
13FFE0
300000
302000
502000
502000
97FFE0
104100
104100
108200
11F400
110C00
101200
106100
118080
160040
ENDCHAR
STARTCHAR 4F69
ENCODING 20329
SWIDTH 1200 0
DWIDTH 20 0
BBX 20 20 0 -3
BITMAP
100000
13FF00
120100
220100
220100
23FF00
622100
622100
A22100
A2FD00
22A500
22A500
22A500
22A500
22A500
22A500
24AC80
2420A0
242060
282020
ENDCHAR
STARTCHAR 4F6F
ENCODING 20335
SWIDTH 1200 0
DWIDTH 20 0
BBX 20 20 0 -3
BITMAP
090200
088200
084400
104400
100800
13FFC0
301000
301000
501000
501000
91FF80
101000
101000
101000
101000
17FFE0
101000
101000
101000
101000
ENDCHAR
STARTCHAR 4F70
ENCODING 20336
SWIDTH 1200 0
DWIDTH 20 0
BBX 20 20 0 -3
BITMAP
080000
09FFE0
080400
100800
100800
101000
307F80
304080
504080
504080
904080
104080
107F80
104080
104080
104080
104080
104080
107F80
100000
ENDCHAR
STARTCHAR 4F73
ENCODING 20339
SWIDTH 1200 0
DWIDTH 20 0
BBX 20 20 0 -3
BITMAP
080800
080800
080800
100800
10FFC0
100800
300800
300800
500800
53FFE0
900000
100800
100800
100800
10FFC0
100800
100800
100800
100800
13FFE0
ENDCHAR
STARTCHAR 4F75
ENCODING 20341
SWIDTH 1200 0
DWIDTH 20 0
BBX 20 20 0 -3
BITMAP
088100
084100
082200
102200
100400
13FFC0
304200
304200
504200
504200
904200
17FFE0
104200
104200
104200
104200
108200
108200
110200
120200
ENDCHAR
STARTCHAR 4F76
ENCODING 20342
SWIDTH 1200 0
DWIDTH 20 0
BBX 20 20 0 -3
BITMAP
080800
080800
080800
13FFE0
100800
100800
300800
300800
51FFC0
500000
900000
100000
10FF00
108100
108100
108100
108100
108100
10FF00
100000
ENDCHAR
STARTCHAR 4F7B
ENCODING 20347
SWIDTH 1200 0
DWIDTH 20 0
BBX 20 20 0 -3
BITMAP
082400
082400
082400
102400
122420
112440
30A480
30A500
502400
502400
906500
10A480
112440
162440
104400
104400
108400
110420
120420
1403E0
ENDCHAR
STARTCHAR 4F7C
ENCODING 20348
SWIDTH 1200 0
DWIDTH 20 0
BBX 20 20 0 -3
BITMAP
080800
080800
080800
13FFE0
100000
104600
308100
310080
524240
504200
904200
10A400
112400
101800
100800
101400
102200
104100
118080
160060
ENDCHAR
STARTCHAR 4F7F
ENCODING 20351
SWIDTH 1200 0
DWIDTH 20 0
BBX 20 20 0 -3
BITMAP
080800
080800
080800
13FFE0
100800
100800
31FFC0
310840
510840
510840
91FFC0
100800
110800
108800
105000
103000
102800
104600
118180
160060
ENDCHAR
STARTCHAR 4F83
ENCODING 20355
SWIDTH 1200 0
DWIDTH 20 0
BBX 20 20 0 -3
BITMAP
040000
04FFC0
048040
088040
088040
108040
10FFC0
300000
300000
504900
904900
104900
104900
104900
104900
108900
108900
108920
110920
1600E0
ENDCHAR
STARTCHAR 4F86
ENCODING 20358
SWIDTH 1200 0
DWIDTH 20 0
BBX 20 20 0 -3
BITMAP
004000
004000
004000
7FFFC0
004000
104200
104200
104200
284500
244480
424840
825040
00C000
00E000
015000
024800
0C4600
304180
C04060
004000
ENDCHAR
STARTCHAR 4F88
ENCODING 20360
SWIDTH 1200 0
DWIDTH 20 0
BBX 20 20 0 -3
BITMAP
084000
084000
087E00
108200
110400
168400
304800
305000
502400
50C800
971FC0
101040
102080
10D080
130900
100A00
100400
100800
103000
11C000
ENDCHAR
STARTCHAR 4F8B
ENCODING 20363
SWIDTH 1200 0
DWIDTH 20 0
BBX 20 20 0 -3
BITMAP
080020
080020
09FD20
104120
104120
108120
308120
30F920
508920
510920
910920
129120
145120
102120
102120
104020
104020
108020
110020
120060
ENDCHAR
STARTCHAR 4F8D
ENCODING 20365
SWIDTH 1200 0
DWIDTH 20 0
BBX 20 20 0 -3
BITMAP
080800
080800
080800
10FFC0
100800
100800
300800
33FFE0
500000
500200
900200
13FFE0
100200
108200
104200
102200
102200
100200
100200
100600
ENDCHAR
STARTCHAR 4F8F
ENCODING 20367
SWIDTH 1200 0
DWIDTH 20 0
BBX 20 20 0 -3
BITMAP
080800
088800
088800
108800
108800
11FFC0
310800
320800
500800
500800
93FFE0
101C00
102A00
102A00
104900
104900
108880
110840
160820
100800
ENDCHAR
STARTCHAR 4F91
ENCODING 20369
SWIDTH 1200 0
DWIDTH 20 0
BBX 20 20 0 -3
BITMAP
081000
081000
081000
13FFE0
102000
102000
304000
307F80
50C080
50C080
917F80
124080
144080
104080
107F80
104080
104080
104080
104080
104180
ENDCHAR
STARTCHAR 4F96
ENCODING 20374
SWIDTH 1200 0
DWIDTH 20 0
BBX 20 20 0 -3
BITMAP
004000
004000
00A000
011000
020C00
0C0200
300180
CFFE60
000000
000000
1FFF00
111100
111100
111100
1FFF00
111100
111100
111100
111100
111300
ENDCHAR
STARTCHAR 4F98
ENCODING 20376
SWIDTH 1200 0
DWIDTH 20 0
BBX 20 20 0 -3
BITMAP
080800
080800
080800
13FFE0
120020
120020
320120
300600
50F800
501000
901000
101000
101FE0
13F000
101000
101000
101000
101040
101040
100FC0
ENDCHAR
STARTCHAR 4F9B
ENCODING 20379
SWIDTH 1200 0
DWIDTH 20 0
BBX 20 20 0 -3
BITMAP
084200
084200
084200
104200
104200
13FFC0
304200
304200
504200
504200
904200
104200
17FFE0
100000
100000
104200
104100
108080
110040
160040
ENDCHAR
STARTCHAR 4F9D
ENCODING 20381
SWIDTH 1200 0
DWIDTH 20 0
BBX 20 20 0 -3
BITMAP
080800
080800
080800
100800
13FFE0
101000
301000
302820
502840
504880
90C500
114600
124400
144200
104200
104100
104100
104C80
107040
138020
ENDCHAR
STARTCHAR 4FA0
ENCODING 20384
SWIDTH 1200 0
DWIDTH 20 0
BBX 20 20 0 -3
BITMAP
080800
080800
080800
11FFC0
100800
110880
308880
308900
504900
504A00
900800
13FFE0
101400
101400
102200
102200
104100
104080
108040
130020
ENDCHAR
STARTCHAR 4FA1
ENCODING 20385
SWIDTH 1200 0
DWIDTH 20 0
BBX 20 20 0 -3
BITMAP
080000
080000
0BFFE0
102400
102400
102400
302400
31FF80
512480
512480
912480
112480
112480
112480
112480
112480
112480
112480
11FF80
100000
ENDCHAR
STARTCHAR 4FAB
ENCODING 20395
SWIDTH 1200 0
DWIDTH 20 0
BBX 20 20 0 -3
BITMAP
080800
080800
080800
13FFE0
108000
108000
308000
308000
507FC0
502000
902000
102000
17FFE0
104100
108100
10F200
110C00
103300
10C080
170040
ENDCHAR
STARTCHAR 4FAD
ENCODING 20397
SWIDTH 1200 0
DWIDTH 20 0
BBX 20 20 0 -3
BITMAP
080000
08FFC0
088040
108040
108040
10FFC0
308200
308200
508200
910200
110100
113100
120900
120480
140080
14C040
183020
100800
100400
100200
ENDCHAR
STARTCHAR 4FAE
ENCODING 20398
SWIDTH 1200 0
DWIDTH 20 0
BBX 20 20 0 -3
BITMAP
088000
088000
088000
11FFE0
110000
320000
34FF80
308880
508880
508880
908880
17FFE0
111100
111100
111100
111100
11FFC0
100100
100100
100600
ENDCHAR
STARTCHAR 4FAF
ENCODING 20399
SWIDTH 1200 0
DWIDTH 20 0
BBX 20 20 0 -3
BITMAP
080000
08FF00
080100
100100
100100
13FFE0
300000
304000
504000
50FFC0
908800
110800
100800
13FFE0
101400
101400
102200
104100
118080
160060
ENDCHAR
STARTCHAR 4FB5
ENCODING 20405
SWIDTH 1200 0
DWIDTH 20 0
BBX 20 20 0 -3
BITMAP
080000
09FF80
080080
11FF80
100080
100080
31FF80
300000
500000
57FFE0
940020
140020
11FF00
108100
104200
102400
101800
106600
118180
160060
ENDCHAR
STARTCHAR 4FB6
ENCODING 20406
SWIDTH 1200 0
DWIDTH 20 0
BBX 20 20 0 -3
BITMAP
080000
08FF80
088080
108080
108080
108080
308080
30FF80
500800
900800
101000
102000
11FFC0
110040
110040
110040
110040
110040
11FFC0
100000
ENDCHAR
STARTCHAR 4FBF
ENCODING 20415
SWIDTH 1200 0
DWIDTH 20 0
BBX 20 20 0 -3
BITMAP
080000
0BFFE0
080800
100800
11FF80
110880
310880
31FF80
510880
510880
910880
11FF80
100800
108800
105000
103000
102800
104600
118180
160060
ENDCHAR
STARTCHAR 4FC2
ENCODING 20418
SWIDTH 1200 0
DWIDTH 20 0
BBX 20 20 0 -3
BITMAP
080180
080E00
09F800
100800
101000
102100
214200
308400
504800
503080
904040
1087A0
13F820
100800
104900
104880
108840
110820
160820
100800
ENDCHAR
STARTCHAR 4FC3
ENCODING 20419
SWIDTH 1200 0
DWIDTH 20 0
BBX 20 20 0 -3
BITMAP
040000
04FF80
048080
088080
088080
108080
108080
30FF80
300800
500800
900800
108800
108FC0
108800
108800
108800
114800
112800
121800
1407E0
ENDCHAR
STARTCHAR 4FC4
ENCODING 20420
SWIDTH 1200 0
DWIDTH 20 0
BBX 20 20 0 -3
BITMAP
082500
08C480
0B8440
108440
108400
208400
27FFE0
608400
608440
A08240
208240
20B280
21C280
268100
208100
208300
2082A0
2084A0
208860
21B020
ENDCHAR
STARTCHAR 4FCA
ENCODING 20426
SWIDTH 1200 0
DWIDTH 20 0
BBX 20 20 0 -3
BITMAP
082000
082200
084100
104080
108F40
13F440
302400
304400
508420
5303E0
902000
102000
107F00
108100
114200
162400
101800
102600
10C180
170060
ENDCHAR
STARTCHAR 4FCE
ENCODING 20430
SWIDTH 1200 0
DWIDTH 20 0
BBX 20 20 0 -3
BITMAP
080000
083F80
082080
142080
122080
222080
212080
413F80
802080
082080
082080
082080
143F80
122080
222080
212080
412080
802080
00FFE0
000000
ENDCHAR
STARTCHAR 4FD0
ENCODING 20432
SWIDTH 1200 0
DWIDTH 20 0
BBX 20 20 0 -3
BITMAP
081840
086040
0BC240
104240
104240
104240
33FA40
304240
50C240
50E240
915240
114A40
114A40
124240
124040
144040
104040
104040
104040
1040C0
ENDCHAR
STARTCHAR 4FD1
ENCODING 20433
SWIDTH 1200 0
DWIDTH 20 0
BBX 20 20 0 -3
BITMAP
080000
09FF80
080100
102200
101400
100800
31FFC0
310840
510840
510840
91FFC0
110840
110840
110840
11FFC0
110840
110840
110840
110840
1108C0
ENDCHAR
STARTCHAR 4FD4
ENCODING 20436
SWIDTH 1200 0
DWIDTH 20 0
BBX 20 20 0 -3
BITMAP
080000
08FF00
088100
108100
10FF00
108100
308100
30FF00
508100
508100
908100
10FF00
102400
102400
102400
104400
104400
108440
110440
1203C0
ENDCHAR
STARTCHAR 4FD7
ENCODING 20439
SWIDTH 1200 0
DWIDTH 20 0
BBX 20 20 0 -3
BITMAP
084400
084200
088100
108100
111080
121080
302800
302400
504200
508100
910080
160060
10FF00
108100
108100
108100
108100
108100
10FF00
100000
ENDCHAR
STARTCHAR 4FD8
ENCODING 20440
SWIDTH 1200 0
DWIDTH 20 0
BBX 20 20 0 -3
BITMAP
080000
0801C0
081E00
11E180
111040
110820
320420
320400
540000
50FF00
900200
100400
100800
100800
13FFE0
100800
100800
100800
100800
101800
ENDCHAR
STARTCHAR 4FDA
ENCODING 20442
SWIDTH 1200 0
DWIDTH 20 0
BBX 20 20 0 -3
BITMAP
080000
08FF80
088880
108880
108880
10FF80
308880
308880
508880
50FF80
900800
100800
100800
100800
11FFC0
100800
100800
100800
13FFE0
100000
ENDCHAR
STARTCHAR 4FDB
ENCODING 20443
SWIDTH 1200 0
DWIDTH 20 0
BBX 20 20 0 -3
BITMAP
082000
083F00
084100
104200
108400
118800
32FF80
308880
508880
508880
909080
10FF80
101400
102400
102400
104400
104400
108440
110440
1603C0
ENDCHAR
STARTCHAR 4FDD
ENCODING 20445
SWIDTH 1200 0
DWIDTH 20 0
BBX 20 20 0 -3
BITMAP
080000
08FF80
088080
108080
108080
108080
30FF80
300800
500800
500800
93FFE0
101C00
102A00
102A00
104900
108880
110840
120820
100800
100800
ENDCHAR
STARTCHAR 4FDF
ENCODING 20447
SWIDTH 1200 0
DWIDTH 20 0
BBX 20 20 0 -3
BITMAP
082000
082000
084100
104080
108F80
11F040
300040
308000
508000
51FFC0
910800
120800
100800
13FFE0
100800
101400
102200
104100
118080
160060
ENDCHAR
STARTCHAR 4FE1
ENCODING 20449
SWIDTH 1200 0
DWIDTH 20 0
BBX 20 20 0 -3
BITMAP
080000
08FF80
080000
100000
13FFE0
100000
300000
30FF80
500000
500000
90FF80
100000
100000
10FF80
108080
108080
108080
108080
10FF80
100000
ENDCHAR
STARTCHAR 4FE3
ENCODING 20451
SWIDTH 1200 0
DWIDTH 20 0
BBX 20 20 0 -3
BITMAP
040000
04FF80
048080
088080
088080
10FF80
100000
300000
300000
53FFC0
901000
101000
101000
17FFE0
102800
102400
104200
108100
110080
160060
ENDCHAR
STARTCHAR 4FE4
ENCODING 20452
SWIDTH 1200 0
DWIDTH 20 0
BBX 20 20 0 -3
BITMAP
084100
082100
082200
100400
13FFC0
100840
300840
31FFC0
510800
510800
920800
13FFC0
101840
102840
104840
108880
110880
160B00
100800
100800
ENDCHAR
STARTCHAR 4FE5
ENCODING 20453
SWIDTH 1200 0
DWIDTH 20 0
BBX 20 20 0 -3
BITMAP
080800
080800
080800
11FFC0
100800
100800
30FF80
308880
508880
50FF80
908880
108880
10FF80
100800
100800
13FFE0
100800
100800
100800
100800
ENDCHAR
STARTCHAR 4FEE
ENCODING 20462
SWIDTH 1200 0
DWIDTH 20 0
BBX 20 20 0 -3
BITMAP
082000
082000
084000
107FE0
14C100
152200
361400
340800
541400
546300
9780E0
140800
143000
14C200
140C00
143040
14C180
140600
103800
11C000
ENDCHAR
STARTCHAR 4FEF
ENCODING 20463
SWIDTH 1200 0
DWIDTH 20 0
BBX 20 20 0 -3
BITMAP
080800
080800
080800
13FFE0
120000
122080
322080
322080
525FE0
524080
92C080
134880
124480
124480
124480
144080
144080
144080
184080
104180
ENDCHAR
STARTCHAR 4FF3
ENCODING 20467
SWIDTH 1200 0
DWIDTH 20 0
BBX 20 20 0 -3
BITMAP
082200
082200
082200
102200
13E3E0
102200
302200
302200
53E3E0
502200
902200
102200
106200
11A3E0
162200
104200
104200
108200
110200
160200
ENDCHAR
STARTCHAR 4FF5
ENCODING 20469
SWIDTH 1200 0
DWIDTH 20 0
BBX 20 20 0 -3
BITMAP
081000
081000
081000
13FFC0
101000
101000
31FF80
301000
501000
57FFE0
902800
104840
108840
118480
168500
108200
108200
10B100
11C080
160060
ENDCHAR
STARTCHAR 4FF6
ENCODING 20470
SWIDTH 1200 0
DWIDTH 20 0
BBX 20 20 0 -3
BITMAP
088000
088000
088FC0
108440
10F440
108440
308440
308280
57F280
508280
908280
12C100
12A100
129300
149280
149480
148480
108840
109020
11A020
ENDCHAR
STARTCHAR 4FF8
ENCODING 20472
SWIDTH 1200 0
DWIDTH 20 0
BBX 20 20 0 -3
BITMAP
081000
081000
081000
13FFC0
101000
11FF80
302800
302800
57FFE0
904400
109200
111180
161060
11FF00
101000
101000
17FFC0
101000
101000
101000
ENDCHAR
STARTCHAR 4FFA
ENCODING 20474
SWIDTH 1200 0
DWIDTH 20 0
BBX 20 20 0 -3
BITMAP
081000
081000
081000
13FFE0
102400
104200
309100
311080
57FF60
511100
911100
11FF00
111100
111100
11FF00
101000
101000
101020
101020
100FE0
ENDCHAR
STARTCHAR 4FFE
ENCODING 20478
SWIDTH 1200 0
DWIDTH 20 0
BBX 20 20 0 -3
BITMAP
040400
040800
041000
08FF80
088880
188880
18FF80
288880
288880
48FF80
881200
082200
084200
088200
0BFFE0
080200
080200
080200
080200
080200
ENDCHAR
STARTCHAR 5005
ENCODING 20485
SWIDTH 1200 0
DWIDTH 20 0
BBX 20 20 0 -3
BITMAP
080800
080800
080800
100800
13FFE0
100000
308080
308080
508080
514140
922220
142420
100000
100800
100800
13FFE0
100800
100800
100800
100800
ENDCHAR
STARTCHAR 5006
ENCODING 20486
SWIDTH 1200 0
DWIDTH 20 0
BBX 20 20 0 -3
BITMAP
100000
17FFE0
101000
201000
201000
2FFFC0
681040
681040
A81040
AF9F40
291240
291240
2A9540
2A9540
2C78C0
281040
281040
281040
281040
2810C0
ENDCHAR
STARTCHAR 5009
ENCODING 20489
SWIDTH 1200 0
DWIDTH 20 0
BBX 20 20 0 -3
BITMAP
004000
00A000
011000
020800
040400
0BFE00
100100
27FC80
C40460
07FC00
040400
07FC00
080000
080000
13FE00
120200
220200
420200
03FE00
000000
ENDCHAR
STARTCHAR 500B
ENCODING 20491
SWIDTH 1200 0
DWIDTH 20 0
BBX 20 20 0 -3
BITMAP
080000
09FFC0
090040
110840
110840
310840
31FFC0
510840
510840
910840
113E40
112240
112240
112240
112240
113E40
110040
110040
11FFC0
100000
ENDCHAR
STARTCHAR 500D
ENCODING 20493
SWIDTH 1200 0
DWIDTH 20 0
BBX 20 20 0 -3
BITMAP
080800
080800
080800
11FFC0
104100
102100
302200
302200
500400
53FFE0
900000
100000
100000
10FF80
108080
108080
108080
108080
10FF80
100000
ENDCHAR
STARTCHAR 500F
ENCODING 20495
SWIDTH 1200 0
DWIDTH 20 0
BBX 20 20 0 -3
BITMAP
082000
082000
087F80
104080
14A100
151200
340C00
341200
546180
558060
940900
1408C0
140800
15FFE0
141400
141400
142200
104100
108080
130060
ENDCHAR
STARTCHAR 5011
ENCODING 20497
SWIDTH 1200 0
DWIDTH 20 0
BBX 20 20 0 -3
BITMAP
080000
09F3E0
091220
111220
11F3E0
111220
311220
31F3E0
510020
510020
110020
110020
110020
110020
110020
110020
110020
110020
110020
110060
ENDCHAR
STARTCHAR 5012
ENCODING 20498
SWIDTH 1200 0
DWIDTH 20 0
BBX 20 20 0 -3
BITMAP
080040
0BF840
088240
088240
112240
111240
323A40
32CA40
570240
504240
904240
104240
13FA40
104240
104040
105840
106040
118040
160040
1000C0
ENDCHAR
STARTCHAR 5014
ENCODING 20500
SWIDTH 1200 0
DWIDTH 20 0
BBX 20 20 0 -3
BITMAP
080000
09FFC0
090040
110040
11FFC0
110000
310400
310400
512480
512480
912480
113F80
110400
110400
110400
124440
124440
124440
147FC0
100000
ENDCHAR
STARTCHAR 5016
ENCODING 20502
SWIDTH 1200 0
DWIDTH 20 0
BBX 20 20 0 -3
BITMAP
040800
040800
08FFC0
080800
100800
100800
33FFE0
304080
502100
902200
100400
13FFE0
100800
100800
100800
11FFC0
100800
100800
100800
100800
ENDCHAR
STARTCHAR 5019
ENCODING 20505
SWIDTH 1200 0
DWIDTH 20 0
BBX 20 20 0 -3
BITMAP
080000
083F00
0A0100
120100
120100
12FFE0
320000
322000
522000
527FC0
924800
128800
120800
12FFE0
121400
121400
122200
104100
108080
130060
ENDCHAR
STARTCHAR 501A
ENCODING 20506
SWIDTH 1200 0
DWIDTH 20 0
BBX 20 20 0 -3
BITMAP
081000
081000
081000
11FF80
102400
104200
308100
330100
500000
57FFE0
900100
100100
11F100
111100
111100
11F100
110100
100100
100100
100300
ENDCHAR
STARTCHAR 501F
ENCODING 20511
SWIDTH 1200 0
DWIDTH 20 0
BBX 20 20 0 -3
BITMAP
084200
084200
084200
11FFC0
104200
304200
304200
504200
53FFE0
900000
900000
10FF00
108100
108100
10FF00
108100
108100
108100
10FF00
100000
ENDCHAR
STARTCHAR 5021
ENCODING 20513
SWIDTH 1200 0
DWIDTH 20 0
BBX 20 20 0 -3
BITMAP
040000
047F80
044080
084080
087F80
184080
184080
284080
287F80
480000
880000
08FFC0
088040
088040
08FFC0
088040
088040
088040
08FFC0
080000
ENDCHAR
STARTCHAR 5023
ENCODING 20515
SWIDTH 1200 0
DWIDTH 20 0
BBX 20 20 0 -3
BITMAP
108400
108400
108400
208400
2FF7E0
210440
610440
610A40
A1EA80
A12A80
213280
212180
212100
212100
222280
222280
224480
244440
244840
289020
ENDCHAR
STARTCHAR 5024
ENCODING 20516
SWIDTH 1200 0
DWIDTH 20 0
BBX 20 20 0 -3
BITMAP
080800
080800
080800
13FFE0
101000
101000
327F80
324080
324080
527F80
524080
924080
127F80
124080
124080
127F80
120000
120000
13FFE0
100000
ENDCHAR
STARTCHAR 5025
ENCODING 20517
SWIDTH 1200 0
DWIDTH 20 0
BBX 20 20 0 -3
BITMAP
080800
080800
080800
100800
17FFE0
142420
342420
304400
504400
508440
9303C0
100000
100000
11FFC0
100800
100800
100800
100800
13FFE0
100000
ENDCHAR
STARTCHAR 5026
ENCODING 20518
SWIDTH 1200 0
DWIDTH 20 0
BBX 20 20 0 -3
BITMAP
091080
089080
085100
105200
101000
13FFC0
302800
302800
57FFE0
504400
908200
117F00
120280
1C0260
10FE00
108000
108000
108080
108080
107F80
ENDCHAR
ENDFONT
